<?xml version="1.0" encoding="UTF-8"?>
<svg id="Capa_2" data-name="Capa 2" xmlns="http://www.w3.org/2000/svg" viewBox="0 0 146.28 319.04">
  <defs>
    <style>
      .cls-1 {
        fill: red;
      }
    </style>
  </defs>
  <g id="Capa_1-2" data-name="Capa 1">
    <g>
      <path class="cls-1" d="M86.33,86.36c.42,0,2.36-.12,2.4.14v2.26c-.8,0-1.61-.02-2.4,0,0-.8,0-1.6,0-2.4Z"/>
      <path class="cls-1" d="M55.15,110.34c.01.8,0,1.6,0,2.4-.8,0-1.6,0-2.4,0,0-.8,0-1.6,0-2.4.8,0,1.6,0,2.4,0Z"/>
      <path class="cls-1" d="M59.95,110.34c0,.8,0,1.6,0,2.4-.8,0-1.6,0-2.4,0,0-.8-.01-1.6,0-2.4.8,0,1.6,0,2.4,0Z"/>
      <path class="cls-1" d="M64.75,110.34c.01.8,0,1.6,0,2.4-.8,0-1.6,0-2.4,0,0-.8,0-1.6,0-2.4.8,0,1.6,0,2.4,0Z"/>
      <path class="cls-1" d="M69.54,110.34c0,.8,0,1.6,0,2.4-.8,0-1.6,0-2.4,0,0-.8-.01-1.6,0-2.4.8,0,1.6,0,2.4,0Z"/>
      <path class="cls-1" d="M74.34,110.34c-.01.8.01,1.6,0,2.4-.8,0-1.6-.02-2.4,0,0-.8,0-1.6,0-2.4.8,0,1.6,0,2.4,0Z"/>
      <path class="cls-1" d="M38.37,112.74c0,.8-.01,1.6,0,2.4-.8,0-1.6,0-2.4,0,.01-.8,0-1.6,0-2.4.8,0,1.6,0,2.4,0Z"/>
      <path class="cls-1" d="M43.16,112.74c0,.8,0,1.6,0,2.4-.8,0-1.6,0-2.4,0,0-.8,0-1.6,0-2.4.8,0,1.6,0,2.4,0Z"/>
      <path class="cls-1" d="M57.55,141.53c-.01.8-.01,1.6,0,2.4.8.01,1.6-.01,2.4,0v2.4s-2.4,0-2.4,0c0-.8.02-1.6,0-2.4-.8-.01-1.6-.01-2.4,0-.01.8.01,1.6,0,2.4h-2.4s0-2.4,0-2.4c.8,0,1.6.02,2.4,0,.01-.8.01-1.6,0-2.4.8.01,1.6.01,2.4,0Z"/>
      <path class="cls-1" d="M47.96,112.74c0,.8,0,1.6,0,2.4-.8,0-1.6,0-2.4,0,0-.8,0-1.6,0-2.4.8,0,1.6,0,2.4,0Z"/>
      <path class="cls-1" d="M52.76,112.74c0,.8,0,1.6,0,2.4-.8,0-1.6,0-2.4,0,0-.8,0-1.6,0-2.4.8,0,1.6,0,2.4,0Z"/>
      <path class="cls-1" d="M57.55,112.74c0,.8,0,1.6,0,2.4-.8,0-1.6,0-2.4,0,0-.8,0-1.6,0-2.4.8,0,1.6,0,2.4,0Z"/>
      <path class="cls-1" d="M59.95,139.13c-.01.8.01,1.6,0,2.4-.8,0-1.6-.02-2.4,0,.01-.8-.01-1.6,0-2.4.8,0,1.6.02,2.4,0Z"/>
      <path class="cls-1" d="M117.5,16.79c-.8-.01-1.6.01-2.4,0v-2.4s2.4,0,2.4,0c0,.8-.02,1.6,0,2.4.8.01,1.6.01,2.4,0,.01-.8-.01-1.6,0-2.4h2.4s0,2.4,0,2.4c-.8,0-1.6-.02-2.4,0-.01.8,0,1.6,0,2.4-.8-.01-1.6-.01-2.4,0,0-.8.01-1.6,0-2.4Z"/>
      <path class="cls-1" d="M62.35,112.74c0,.8,0,1.6,0,2.4-.8,0-1.6,0-2.4,0,0-.8,0-1.6,0-2.4.8,0,1.6,0,2.4,0Z"/>
      <path class="cls-1" d="M67.14,112.74c0,.8-.01,1.6,0,2.4-.8,0-1.6,0-2.4,0,.01-.8,0-1.6,0-2.4.8,0,1.6,0,2.4,0Z"/>
      <path class="cls-1" d="M71.94,112.74c0,.8,0,1.6,0,2.4-.8-.01-1.6,0-2.4,0,0-.8,0-1.6,0-2.4.8,0,1.6.01,2.4,0Z"/>
      <path class="cls-1" d="M31.17,115.14c0,.8,0,1.6,0,2.4-.42,0-2.36.12-2.4-.14v-2.26c.8,0,1.61.02,2.4,0Z"/>
      <path class="cls-1" d="M107.91,21.59c-.8-.01-1.6.01-2.4,0v-2.4s2.4,0,2.4,0c0,.8-.02,1.6,0,2.4.8.01,1.6.01,2.4,0,.01-.8-.01-1.6,0-2.4h2.4s0,2.4,0,2.4c-.8,0-1.6-.02-2.4,0-.01.8,0,1.6,0,2.4-.8-.01-1.6-.01-2.4,0,0-.8.01-1.6,0-2.4Z"/>
      <path class="cls-1" d="M117.5,19.19c0,.8,0,1.6,0,2.4-.8-.01-1.6.01-2.4,0v-2.26c.04-.26,1.98-.13,2.4-.14Z"/>
      <path class="cls-1" d="M119.9,19.19c.8.01,1.6-.01,2.4,0v2.26c-.04.26-1.98.13-2.4.14,0-.8,0-1.6,0-2.4Z"/>
      <path class="cls-1" d="M35.97,115.14c-.01.8.01,1.6,0,2.4-.8,0-1.6-.02-2.4,0,0-.8,0-1.6,0-2.4.8,0,1.6,0,2.4,0Z"/>
      <path class="cls-1" d="M40.77,115.14c0,.8,0,1.6,0,2.4-.8-.01-1.6.01-2.4,0,0-.8.02-1.6,0-2.4.8,0,1.6,0,2.4,0Z"/>
      <path class="cls-1" d="M119.9,21.59c0,.8-.01,1.6,0,2.4.8.01,1.6-.01,2.4,0v2.4s-2.4,0-2.4,0c0-.8.02-1.6,0-2.4-.8-.01-1.6-.01-2.4,0-.01.8.01,1.6,0,2.4-.8,0-1.6-.02-2.4,0-.01.8,0,1.6,0,2.4-.8-.01-1.6,0-2.4,0,0-.8.01-1.6,0-2.4.8,0,1.6.01,2.4,0,.01-.8-.01-1.6,0-2.4.8,0,1.6.02,2.4,0,.01-.8,0-1.6,0-2.4.8.01,1.6.01,2.4,0Z"/>
      <path class="cls-1" d="M45.56,115.14c0,.8,0,1.6,0,2.4-.8,0-1.6,0-2.4,0,0-.8,0-1.6,0-2.4.8,0,1.6,0,2.4,0Z"/>
      <path class="cls-1" d="M103.11,26.39c-.8-.01-1.6.01-2.4,0v-2.4s2.4,0,2.4,0c0,.8-.02,1.6,0,2.4.8.01,1.6,0,2.4,0-.01.8,0,1.6,0,2.4-.8,0-1.6-.01-2.4,0,0-.8.01-1.6,0-2.4Z"/>
      <path class="cls-1" d="M107.91,23.99c0,.8,0,1.6,0,2.4-.8,0-1.6,0-2.4,0,.01-.8-.01-1.6,0-2.4.8,0,1.6.02,2.4,0Z"/>
      <path class="cls-1" d="M110.31,23.99c.8.01,1.6-.01,2.4,0,0,.8-.02,1.6,0,2.4-.8,0-1.6,0-2.4,0,0-.8,0-1.6,0-2.4Z"/>
      <path class="cls-1" d="M50.36,115.14c0,.8,0,1.6,0,2.4-.8,0-1.6,0-2.4,0,0-.8,0-1.6,0-2.4.8,0,1.6,0,2.4,0Z"/>
      <path class="cls-1" d="M55.15,115.14c0,.8,0,1.6,0,2.4-.8,0-1.6,0-2.4,0,0-.8,0-1.6,0-2.4.8,0,1.6,0,2.4,0Z"/>
      <path class="cls-1" d="M110.31,26.39c0,.8-.01,1.6,0,2.4-.8,0-1.6,0-2.4,0,.01-.8,0-1.6,0-2.4.8,0,1.6,0,2.4,0Z"/>
      <path class="cls-1" d="M59.95,115.14c0,.8,0,1.6,0,2.4-.8,0-1.6,0-2.4,0,0-.8,0-1.6,0-2.4.8,0,1.6,0,2.4,0Z"/>
      <path class="cls-1" d="M64.75,115.14c-.01.8.01,1.6,0,2.4-.8,0-1.6-.02-2.4,0,0-.8,0-1.6,0-2.4.8,0,1.6,0,2.4,0Z"/>
      <path class="cls-1" d="M69.54,115.14c0,.8,0,1.6,0,2.4-.8-.01-1.6.01-2.4,0,0-.8.02-1.6,0-2.4.8,0,1.6,0,2.4,0Z"/>
      <path class="cls-1" d="M71.94,115.14c.42,0,2.36-.12,2.4.14v2.26c-.8,0-1.61-.02-2.4,0,0-.8,0-1.6,0-2.4Z"/>
      <path class="cls-1" d="M103.11,28.79c0,.8,0,1.6,0,2.4-.42,0-2.36.12-2.4-.14v-2.26c.8,0,1.61.02,2.4,0Z"/>
      <path class="cls-1" d="M107.91,28.79c-.01.8.01,1.6,0,2.4-.8,0-1.6-.02-2.4,0,0-.8,0-1.6,0-2.4.8,0,1.6,0,2.4,0Z"/>
      <path class="cls-1" d="M112.7,28.79c0,.8,0,1.6,0,2.4-.8-.01-1.6.01-2.4,0,0-.8.02-1.6,0-2.4.8,0,1.6,0,2.4,0Z"/>
      <path class="cls-1" d="M115.1,28.79c.42,0,2.36-.12,2.4.14v2.26c-.8,0-1.61-.02-2.4,0,0-.8,0-1.6,0-2.4Z"/>
      <path class="cls-1" d="M33.57,117.54c0,.8,0,1.6,0,2.4-.8-.01-1.6-.01-2.4,0,0-.8,0-1.6,0-2.4.8.01,1.6.01,2.4,0Z"/>
      <path class="cls-1" d="M43.16,117.54c0,.8,0,1.6,0,2.4-.8,0-1.6-.01-2.4,0,0-.8,0-1.6,0-2.4.8.01,1.6,0,2.4,0Z"/>
      <path class="cls-1" d="M47.96,117.54c0,.8,0,1.6,0,2.4-.8,0-1.6,0-2.4,0,0-.8,0-1.6,0-2.4.8,0,1.6,0,2.4,0Z"/>
      <path class="cls-1" d="M105.51,31.19c0,.8,0,1.6,0,2.4-.8-.01-1.6-.01-2.4,0,0-.8,0-1.6,0-2.4.8.01,1.6.01,2.4,0Z"/>
      <path class="cls-1" d="M115.1,31.19c0,.8-.01,1.6,0,2.4.8.01,1.6-.01,2.4,0v2.4s-2.4,0-2.4,0c0-.8.02-1.6,0-2.4-.8-.01-1.6-.01-2.4,0,.01-.8,0-1.6,0-2.4.8.01,1.6.01,2.4,0Z"/>
      <path class="cls-1" d="M52.76,117.54c0,.8,0,1.6,0,2.4-.8,0-1.6,0-2.4,0,0-.8,0-1.6,0-2.4.8,0,1.6,0,2.4,0Z"/>
      <path class="cls-1" d="M88.72,35.98c-.8-.01-1.6.01-2.4,0v-2.4s2.4,0,2.4,0c0,.8-.02,1.6,0,2.4.8.01,1.6,0,2.4,0-.01.8,0,1.6,0,2.4-.8,0-1.6-.01-2.4,0,0-.8.01-1.6,0-2.4Z"/>
      <path class="cls-1" d="M91.12,35.98c0-.42-.12-2.36.14-2.4h2.26c0,.8-.02,1.61,0,2.4-.8,0-1.6,0-2.4,0Z"/>
      <path class="cls-1" d="M95.92,35.98c.01-.8-.01-1.6,0-2.4h2.26c.25.04.13,1.98.14,2.4-.8,0-1.6,0-2.4,0Z"/>
      <path class="cls-1" d="M103.11,33.58c0,.8,0,1.6,0,2.4-.8,0-1.6,0-2.4,0,.01-.8-.01-1.6,0-2.4.8,0,1.6.02,2.4,0Z"/>
      <path class="cls-1" d="M105.51,33.58c.8.01,1.6-.01,2.4,0,0,.8-.02,1.6,0,2.4-.8,0-1.6,0-2.4,0,0-.8,0-1.6,0-2.4Z"/>
      <path class="cls-1" d="M112.7,33.58c-.01.8.01,1.6,0,2.4-.8,0-1.6-.02-2.4,0,.01-.8-.01-1.6,0-2.4.8,0,1.6.02,2.4,0Z"/>
      <path class="cls-1" d="M57.55,117.54c0,.8,0,1.6,0,2.4-.8,0-1.6,0-2.4,0,0-.8,0-1.6,0-2.4.8,0,1.6,0,2.4,0Z"/>
      <path class="cls-1" d="M62.35,117.54c0,.8,0,1.6,0,2.4-.8-.01-1.6,0-2.4,0,0-.8,0-1.6,0-2.4.8,0,1.6.01,2.4,0Z"/>
      <path class="cls-1" d="M95.92,35.98c-.01.8,0,1.6,0,2.4-.8,0-1.6,0-2.4,0,0-.8.01-1.6,0-2.4.8,0,1.6,0,2.4,0Z"/>
      <path class="cls-1" d="M100.71,35.98c-.01.8,0,1.6,0,2.4-.8,0-1.6,0-2.4,0,0-.8.01-1.6,0-2.4.8,0,1.6,0,2.4,0Z"/>
      <path class="cls-1" d="M105.51,35.98c0,.8-.01,1.6,0,2.4-.8,0-1.6,0-2.4,0,.01-.8,0-1.6,0-2.4.8,0,1.6,0,2.4,0Z"/>
      <path class="cls-1" d="M110.31,35.98c-.01.8,0,1.6,0,2.4-.8-.01-1.6,0-2.4,0,0-.8.01-1.6,0-2.4.8,0,1.6.01,2.4,0Z"/>
      <path class="cls-1" d="M71.94,117.54c0,.8-.01,1.6,0,2.4.8.01,1.6-.01,2.4,0v2.4s-2.4,0-2.4,0c0-.8.02-1.6,0-2.4-.8-.01-1.6-.01-2.4,0,.01-.8,0-1.6,0-2.4.8.01,1.6.01,2.4,0Z"/>
      <path class="cls-1" d="M79.13,40.78c-.8-.01-1.6.01-2.4,0v-2.4s2.4,0,2.4,0c0,.8-.02,1.6,0,2.4.8.01,1.6.01,2.4,0,.01-.8-.01-1.6,0-2.4h2.4s0,2.4,0,2.4c-.8,0-1.6-.02-2.4,0-.01.8,0,1.6,0,2.4-.8-.01-1.6-.01-2.4,0,0-.8.01-1.6,0-2.4Z"/>
      <path class="cls-1" d="M88.72,38.38c0,.8,0,1.6,0,2.4-.42,0-2.36.12-2.4-.14v-2.26c.8,0,1.61.02,2.4,0Z"/>
      <path class="cls-1" d="M93.52,38.38c0,.8,0,1.6,0,2.4-.8,0-1.6,0-2.4,0,0-.8,0-1.6,0-2.4.8,0,1.6,0,2.4,0Z"/>
      <path class="cls-1" d="M98.32,38.38c0,.8,0,1.6,0,2.4-.8,0-1.6,0-2.4,0,0-.8,0-1.6,0-2.4.8,0,1.6,0,2.4,0Z"/>
      <path class="cls-1" d="M103.11,38.38c-.01.8.01,1.6,0,2.4-.8,0-1.6-.02-2.4,0,0-.8,0-1.6,0-2.4.8,0,1.6,0,2.4,0Z"/>
      <path class="cls-1" d="M107.91,38.38c0,.8,0,1.6,0,2.4-.8-.01-1.6.01-2.4,0,0-.8.02-1.6,0-2.4.8,0,1.6,0,2.4,0Z"/>
      <path class="cls-1" d="M110.31,38.38c.42,0,2.36-.12,2.4.14v2.26c-.8,0-1.61-.02-2.4,0,0-.8,0-1.6,0-2.4Z"/>
      <path class="cls-1" d="M26.38,122.34c-.8-.01-1.6.01-2.4,0v-2.4s2.4,0,2.4,0c0,.8-.02,1.6,0,2.4.8.01,1.6,0,2.4,0-.01.8-.01,1.6,0,2.4-.8,0-1.6-.01-2.4,0-.01.8.01,1.6,0,2.4h-2.4s0-2.4,0-2.4c.8,0,1.6.02,2.4,0,.01-.8.01-1.6,0-2.4Z"/>
      <path class="cls-1" d="M98.32,62.37c-.01.8.01,1.6,0,2.4-.8,0-1.6-.02-2.4,0,0-.8,0-1.6,0-2.4.8,0,1.6,0,2.4,0Z"/>
      <path class="cls-1" d="M91.12,40.78c0,.8,0,1.6,0,2.4-.8,0-1.6-.01-2.4,0,0-.8,0-1.6,0-2.4.8.01,1.6,0,2.4,0Z"/>
      <path class="cls-1" d="M95.92,40.78c0,.8,0,1.6,0,2.4-.8,0-1.6,0-2.4,0,0-.8,0-1.6,0-2.4.8,0,1.6,0,2.4,0Z"/>
      <path class="cls-1" d="M100.71,40.78c0,.8,0,1.6,0,2.4-.8-.01-1.6,0-2.4,0,0-.8,0-1.6,0-2.4.8,0,1.6.01,2.4,0Z"/>
      <path class="cls-1" d="M110.31,40.78c0,.8-.01,1.6,0,2.4.8.01,1.6-.01,2.4,0v2.4s-2.4,0-2.4,0c0-.8.02-1.6,0-2.4-.8-.01-1.6-.01-2.4,0,.01-.8,0-1.6,0-2.4.8.01,1.6.01,2.4,0Z"/>
      <path class="cls-1" d="M31.17,119.94c0,.8,0,1.6,0,2.4-.8,0-1.6,0-2.4,0,.01-.8-.01-1.6,0-2.4.8,0,1.6.02,2.4,0Z"/>
      <path class="cls-1" d="M74.34,45.58c-.8-.01-1.6.01-2.4,0v-2.4s2.4,0,2.4,0c0,.8-.02,1.6,0,2.4.8.01,1.6,0,2.4,0-.01.8,0,1.6,0,2.4-.8,0-1.6-.01-2.4,0,0-.8.01-1.6,0-2.4Z"/>
      <path class="cls-1" d="M79.13,43.18c0,.8,0,1.6,0,2.4-.8,0-1.6,0-2.4,0,.01-.8-.01-1.6,0-2.4.8,0,1.6.02,2.4,0Z"/>
      <path class="cls-1" d="M81.53,43.18c.8.01,1.6-.01,2.4,0,0,.8,0,1.6,0,2.4-.8,0-1.6,0-2.4,0,0-.8,0-1.6,0-2.4Z"/>
      <path class="cls-1" d="M88.72,43.18c0,.8,0,1.6,0,2.4-.8,0-1.6,0-2.4,0,0-.8,0-1.6,0-2.4.8,0,1.6.02,2.4,0Z"/>
      <path class="cls-1" d="M93.52,43.18c0,.8.01,1.6,0,2.4-.8,0-1.6,0-2.4,0,0-.8,0-1.6,0-2.4.8,0,1.6,0,2.4,0Z"/>
      <path class="cls-1" d="M98.32,43.18c0,.8,0,1.6,0,2.4-.8,0-1.6,0-2.4,0-.01-.8,0-1.6,0-2.4.8,0,1.6,0,2.4,0Z"/>
      <path class="cls-1" d="M100.71,43.18c.8.01,1.6-.01,2.4,0,0,.8-.02,1.6,0,2.4-.8,0-1.6,0-2.4,0,0-.8,0-1.6,0-2.4Z"/>
      <path class="cls-1" d="M107.91,43.18c-.01.8.01,1.6,0,2.4-.8,0-1.6-.02-2.4,0,.01-.8-.01-1.6,0-2.4.8,0,1.6.02,2.4,0Z"/>
      <path class="cls-1" d="M33.57,119.94c.8.01,1.6-.01,2.4,0,0,.8-.02,1.6,0,2.4-.8,0-1.6,0-2.4,0,0-.8,0-1.6,0-2.4Z"/>
      <path class="cls-1" d="M81.53,45.58c0,.8,0,1.6,0,2.4-.8.01-1.6,0-2.4,0,0-.8,0-1.6,0-2.4.8,0,1.6,0,2.4,0Z"/>
      <path class="cls-1" d="M86.33,45.58c0,.8,0,1.6,0,2.4.8,0,1.6-.02,2.4,0,0,.8,0,1.6,0,2.4-.8.01-1.6-.01-2.4,0v2.26c.04.26,1.98.13,2.4.14,0,.8.01,1.6,0,2.4-.8.01-1.6-.01-2.4,0,0,.8.02,1.6,0,2.4-.8.01-1.6.01-2.4,0-.01-.8.01-1.6,0-2.4-.8,0-1.6.02-2.4,0-.01-.8,0-1.6,0-2.4.8-.01,1.6.01,2.4,0v-2.26c-.04-.26-1.98-.13-2.4-.14,0-.8,0-1.6,0-2.4.8-.01,1.6.01,2.4,0,0-.8,0-1.6,0-2.4.8,0,1.6,0,2.4,0Z"/>
      <path class="cls-1" d="M91.12,45.58c0,.8,0,1.6,0,2.4-.8.01-1.6.01-2.4,0,0-.8,0-1.6,0-2.4.8,0,1.6,0,2.4,0Z"/>
      <path class="cls-1" d="M95.92,45.58c.01.8-.01,1.6,0,2.4.8,0,1.6-.02,2.4,0,0,.39.09,2.32,0,2.4-.11.11-2.29-.11-2.4,0-.08.08,0,2.01,0,2.4-.8-.01-1.6,0-2.4,0-.01-.8.01-1.6,0-2.4-.8,0-1.6.02-2.4,0,0-.8,0-1.6,0-2.4.8-.01,1.6.01,2.4,0,0-.8-.02-1.6,0-2.4.8,0,1.6,0,2.4,0Z"/>
      <path class="cls-1" d="M100.71,45.58c0,.8-.01,1.6,0,2.4-.8,0-1.6.01-2.4,0,.01-.8,0-1.6,0-2.4.8,0,1.6,0,2.4,0Z"/>
      <path class="cls-1" d="M105.51,45.58c-.01.8-.01,1.6,0,2.4.8.01,1.6-.01,2.4,0v2.4s-2.4,0-2.4,0c0-.8.02-1.6,0-2.4-.8-.01-1.6,0-2.4,0,.01-.8.01-1.6,0-2.4.8,0,1.6.01,2.4,0Z"/>
      <path class="cls-1" d="M40.77,119.94c0,.8,0,1.6,0,2.4-.8,0-1.6,0-2.4,0,.01-.8-.01-1.6,0-2.4.8,0,1.6.02,2.4,0Z"/>
      <path class="cls-1" d="M45.56,119.94c0,.8,0,1.6,0,2.4-.8,0-1.6,0-2.4,0,0-.8,0-1.6,0-2.4.8,0,1.6,0,2.4,0Z"/>
      <path class="cls-1" d="M50.36,119.94c0,.8,0,1.6,0,2.4-.8,0-1.6,0-2.4,0,0-.8,0-1.6,0-2.4.8,0,1.6,0,2.4,0Z"/>
      <path class="cls-1" d="M74.34,47.98c0,.8,0,1.6,0,2.4-.8-.01-1.6.01-2.4,0v-2.26c.04-.26,1.98-.13,2.4-.14Z"/>
      <path class="cls-1" d="M79.13,47.98c0,.8,0,1.6,0,2.4-.8,0-1.6,0-2.4,0,0-.8,0-1.6,0-2.4.8,0,1.6,0,2.4,0Z"/>
      <path class="cls-1" d="M103.11,47.98c0,.42.12,2.36-.14,2.4h-2.26c0-.8.02-1.61,0-2.4.8,0,1.6,0,2.4,0Z"/>
      <path class="cls-1" d="M55.15,119.94c0,.8,0,1.6,0,2.4-.8,0-1.6,0-2.4,0,0-.8,0-1.6,0-2.4.8,0,1.6,0,2.4,0Z"/>
      <path class="cls-1" d="M59.95,119.94c0,.8,0,1.6,0,2.4-.8,0-1.6,0-2.4,0,0-.8,0-1.6,0-2.4.8,0,1.6,0,2.4,0Z"/>
      <path class="cls-1" d="M62.35,119.94c.8.01,1.6-.01,2.4,0,0,.8-.02,1.6,0,2.4-.8,0-1.6,0-2.4,0,0-.8,0-1.6,0-2.4Z"/>
      <path class="cls-1" d="M76.74,50.38c0,.8,0,1.6,0,2.4-.8,0-1.6-.01-2.4,0,0-.8,0-1.6,0-2.4.8.01,1.6,0,2.4,0Z"/>
      <path class="cls-1" d="M81.53,50.38c0,.8,0,1.6,0,2.4-.8.01-1.6,0-2.4,0,0-.8,0-1.6,0-2.4.8,0,1.6-.01,2.4,0Z"/>
      <path class="cls-1" d="M91.12,50.38c0,.8,0,1.6,0,2.4-.8,0-1.6.01-2.4,0,0-.8,0-1.6,0-2.4.8-.01,1.6-.01,2.4,0Z"/>
      <path class="cls-1" d="M69.54,119.94c-.01.8.01,1.6,0,2.4-.8,0-1.6-.02-2.4,0,.01-.8-.01-1.6,0-2.4.8,0,1.6.02,2.4,0Z"/>
      <path class="cls-1" d="M33.57,122.34c0,.8-.01,1.6,0,2.4-.8,0-1.6,0-2.4,0,.01-.8,0-1.6,0-2.4.8,0,1.6,0,2.4,0Z"/>
      <path class="cls-1" d="M69.54,55.17c-.8-.01-1.6.01-2.4,0v-2.4s2.4,0,2.4,0c0,.8-.02,1.6,0,2.4.8.01,1.6,0,2.4,0-.01.8,0,1.6,0,2.4-.8,0-1.6-.01-2.4,0,0-.8.01-1.6,0-2.4Z"/>
      <path class="cls-1" d="M74.34,52.77c0,.8,0,1.6,0,2.4-.8,0-1.6,0-2.4,0,.01-.8-.01-1.6,0-2.4.8,0,1.6.02,2.4,0Z"/>
      <path class="cls-1" d="M79.13,52.77c0,.8.01,1.6,0,2.4-.8,0-1.6,0-2.4,0,0-.8,0-1.6,0-2.4.8,0,1.6,0,2.4,0Z"/>
      <path class="cls-1" d="M93.52,52.77c.01.8,0,1.6,0,2.4-.8,0-1.6,0-2.4,0-.01-.8,0-1.6,0-2.4.8,0,1.6,0,2.4,0Z"/>
      <path class="cls-1" d="M95.92,52.77c.8.01,1.6-.01,2.4,0,0,.8-.02,1.6,0,2.4-.8,0-1.6,0-2.4,0,0-.8-.01-1.6,0-2.4Z"/>
      <path class="cls-1" d="M100.71,55.17c.01-.8-.01-1.6,0-2.4h2.4s0,2.4,0,2.4c-.8,0-1.6-.02-2.4,0-.01.8,0,1.6,0,2.4-.8-.01-1.6,0-2.4,0,0-.8.01-1.6,0-2.4.8,0,1.6.01,2.4,0Z"/>
      <path class="cls-1" d="M38.37,122.34c-.01.8,0,1.6,0,2.4-.8,0-1.6,0-2.4,0,0-.8.01-1.6,0-2.4.8,0,1.6,0,2.4,0Z"/>
      <path class="cls-1" d="M76.74,55.17c0,.8,0,1.6,0,2.4-.8.01-1.6,0-2.4,0,0-.8,0-1.6,0-2.4.8,0,1.6,0,2.4,0Z"/>
      <path class="cls-1" d="M81.53,55.17c.01.8-.01,1.6,0,2.4.8,0,1.6-.02,2.4,0,.01.8,0,1.6,0,2.4-.42,0-2.36-.12-2.4.14v2.26c.8,0,1.61-.02,2.4,0,0,.8.01,1.6,0,2.4-.8.01-1.6-.01-2.4,0,0,.8.02,1.6,0,2.4-.8.01-1.6.01-2.4,0-.01-.8.01-1.6,0-2.4-.8,0-1.6.02-2.4,0-.01-.8,0-1.6,0-2.4.42,0,2.36.12,2.4-.14v-2.26c-.8,0-1.61.02-2.4,0,0-.8,0-1.6,0-2.4.8-.01,1.6.01,2.4,0,0-.8-.02-1.6,0-2.4.8,0,1.6-.01,2.4,0Z"/>
      <path class="cls-1" d="M91.12,55.17c.01.8-.01,1.6,0,2.4.8,0,1.6-.02,2.4,0,0,.8,0,1.6,0,2.4-.8.01-1.6-.01-2.4,0,0,.8.02,1.6,0,2.4-.8,0-1.6,0-2.4,0-.01-.8.01-1.6,0-2.4-.8,0-1.6.02-2.4,0,0-.8-.01-1.6,0-2.4.8-.01,1.6.01,2.4,0,0-.8-.02-1.6,0-2.4.8-.01,1.6,0,2.4,0Z"/>
      <path class="cls-1" d="M95.92,55.17c0,.8,0,1.6,0,2.4-.8,0-1.6.01-2.4,0,0-.8,0-1.6,0-2.4.8,0,1.6,0,2.4,0Z"/>
      <path class="cls-1" d="M43.16,122.34c0,.8-.01,1.6,0,2.4-.8,0-1.6,0-2.4,0,.01-.8,0-1.6,0-2.4.8,0,1.6,0,2.4,0Z"/>
      <path class="cls-1" d="M59.95,59.97c-.8-.01-1.6.01-2.4,0v-2.4s2.4,0,2.4,0c0,.8-.02,1.6,0,2.4.8.01,1.6,0,2.4,0-.01.8,0,1.6,0,2.4-.8,0-1.6-.01-2.4,0,0-.8.01-1.6,0-2.4Z"/>
      <path class="cls-1" d="M62.35,59.97c.01-.8-.01-1.6,0-2.4h2.26c.25.04.13,1.98.14,2.4-.8,0-1.6,0-2.4,0Z"/>
      <path class="cls-1" d="M69.54,57.57c0,.8.01,1.6,0,2.4-.8,0-1.6,0-2.4,0,.01-.8-.01-1.6,0-2.4.8,0,1.6.02,2.4,0Z"/>
      <path class="cls-1" d="M74.34,57.57c0,.8,0,1.6,0,2.4-.8,0-1.6,0-2.4,0-.01-.8,0-1.6,0-2.4.8,0,1.6,0,2.4,0Z"/>
      <path class="cls-1" d="M98.32,57.57c0,.8,0,1.6,0,2.4-.8,0-1.6,0-2.4,0,0-.8,0-1.6,0-2.4.8,0,1.6,0,2.4,0Z"/>
      <path class="cls-1" d="M100.71,57.57c.8.01,1.6-.01,2.4,0v2.26c-.04.26-1.98.13-2.4.14,0-.8,0-1.6,0-2.4Z"/>
      <path class="cls-1" d="M47.96,122.34c0,.8,0,1.6,0,2.4-.8,0-1.6,0-2.4,0,0-.8,0-1.6,0-2.4.8,0,1.6,0,2.4,0Z"/>
      <path class="cls-1" d="M52.76,122.34c0,.8-.01,1.6,0,2.4-.8,0-1.6,0-2.4,0,.01-.8,0-1.6,0-2.4.8,0,1.6,0,2.4,0Z"/>
      <path class="cls-1" d="M67.14,59.97c-.01.8,0,1.6,0,2.4-.8.01-1.6,0-2.4,0,0-.8.01-1.6,0-2.4.8,0,1.6,0,2.4,0Z"/>
      <path class="cls-1" d="M71.94,59.97c.01.8-.01,1.6,0,2.4.8,0,1.6-.02,2.4,0,0,.8.01,1.6,0,2.4-.8.01-1.6-.01-2.4,0v2.4s2.4,0,2.4,0c0-.8-.02-1.6,0-2.4.8-.01,1.6-.01,2.4,0,.01.8-.01,1.6,0,2.4.8,0,1.6-.02,2.4,0,.01.8,0,1.6,0,2.4-.42,0-2.36-.12-2.4.14v2.26c.8,0,1.61-.02,2.4,0,0,.8,0,1.6,0,2.4-.8.01-1.6-.01-2.4,0,0,.8.02,1.6,0,2.4-.8,0-1.6.01-2.4,0-.01-.8.01-1.6,0-2.4-.8,0-1.6.02-2.4,0-.01-.8-.01-1.6,0-2.4.8-.01,1.6.01,2.4,0v-2.4s-2.4,0-2.4,0c0,.8.02,1.6,0,2.4-.8.01-1.6.01-2.4,0-.01-.8.01-1.6,0-2.4h-2.4s0,2.4,0,2.4c.8,0,1.6-.02,2.4,0,.01.8.01,1.6,0,2.4-.8.01-1.6-.01-2.4,0,0,.8.02,1.6,0,2.4-.8.01-1.6.01-2.4,0-.01-.8.01-1.6,0-2.4-.8,0-1.6.02-2.4,0-.01-.8,0-1.6,0-2.4.42,0,2.36.12,2.4-.14v-2.26c-.8,0-1.61.02-2.4,0,0-.8,0-1.6,0-2.4.8-.01,1.6.01,2.4,0,0-.8-.02-1.6,0-2.4.8,0,1.6-.01,2.4,0,.01.8-.01,1.6,0,2.4h2.4s0-2.4,0-2.4c-.8,0-1.6.02-2.4,0-.01-.8,0-1.6,0-2.4.8-.01,1.6.01,2.4,0,0-.8-.02-1.6,0-2.4.8,0,1.6,0,2.4,0Z"/>
      <path class="cls-1" d="M76.74,59.97c0,.8,0,1.6,0,2.4-.8.01-1.6.01-2.4,0,0-.8,0-1.6,0-2.4.8,0,1.6-.01,2.4,0Z"/>
      <path class="cls-1" d="M86.33,59.97c0,.8,0,1.6,0,2.4-.8,0-1.6.01-2.4,0,0-.8,0-1.6,0-2.4.8-.01,1.6-.01,2.4,0Z"/>
      <path class="cls-1" d="M95.92,59.97c0,.8,0,1.6,0,2.4-.8,0-1.6,0-2.4,0,0-.8,0-1.6,0-2.4.8-.01,1.6,0,2.4,0Z"/>
      <path class="cls-1" d="M100.71,59.97c0,.8-.01,1.6,0,2.4.8.01,1.6-.01,2.4,0v2.4s-2.4,0-2.4,0c0-.8.02-1.6,0-2.4-.8-.01-1.6,0-2.4,0,.01-.8,0-1.6,0-2.4.8,0,1.6.01,2.4,0Z"/>
      <path class="cls-1" d="M55.15,64.77c-.8-.01-1.6.01-2.4,0v-2.4s2.4,0,2.4,0c0,.8-.02,1.6,0,2.4.8.01,1.6,0,2.4,0-.01.8,0,1.6,0,2.4-.8,0-1.6-.01-2.4,0,0-.8.01-1.6,0-2.4Z"/>
      <path class="cls-1" d="M59.95,62.37c0,.8,0,1.6,0,2.4-.8,0-1.6,0-2.4,0,.01-.8-.01-1.6,0-2.4.8,0,1.6.02,2.4,0Z"/>
      <path class="cls-1" d="M64.75,62.37c0,.8.01,1.6,0,2.4-.8,0-1.6,0-2.4,0,0-.8,0-1.6,0-2.4.8,0,1.6,0,2.4,0Z"/>
      <path class="cls-1" d="M88.72,62.37c.01.8,0,1.6,0,2.4-.8,0-1.6,0-2.4,0-.01-.8,0-1.6,0-2.4.8,0,1.6,0,2.4,0Z"/>
      <path class="cls-1" d="M93.52,62.37c0,.8,0,1.6,0,2.4-.8,0-1.6,0-2.4,0,0-.8-.01-1.6,0-2.4.8,0,1.6,0,2.4,0Z"/>
      <path class="cls-1" d="M57.55,122.34c0,.8,0,1.6,0,2.4-.8,0-1.6,0-2.4,0,0-.8,0-1.6,0-2.4.8,0,1.6,0,2.4,0Z"/>
      <path class="cls-1" d="M62.35,64.77c0,.8,0,1.6,0,2.4-.8.01-1.6,0-2.4,0,0-.8,0-1.6,0-2.4.8,0,1.6,0,2.4,0Z"/>
      <path class="cls-1" d="M86.33,64.77c.01.8-.01,1.6,0,2.4.8,0,1.6-.02,2.4,0,0,.39.09,2.32,0,2.4-.11.11-2.29-.11-2.4,0-.08.08,0,2.01,0,2.4-.8-.01-1.6,0-2.4,0-.01-.8.01-1.6,0-2.4-.8,0-1.6.02-2.4,0,0-.8-.01-1.6,0-2.4.8-.01,1.6.01,2.4,0,0-.8-.02-1.6,0-2.4.8-.01,1.6,0,2.4,0Z"/>
      <path class="cls-1" d="M91.12,64.77c0,.8-.01,1.6,0,2.4-.8,0-1.6.01-2.4,0,.01-.8,0-1.6,0-2.4.8,0,1.6,0,2.4,0Z"/>
      <path class="cls-1" d="M95.92,64.77c0,.8-.01,1.6,0,2.4.8.01,1.6-.01,2.4,0v2.4s-2.4,0-2.4,0c0-.8.02-1.6,0-2.4-.8-.01-1.6,0-2.4,0,.01-.8,0-1.6,0-2.4.8,0,1.6.01,2.4,0Z"/>
      <path class="cls-1" d="M62.35,122.34c0,.8-.01,1.6,0,2.4-.8,0-1.6,0-2.4,0,.01-.8,0-1.6,0-2.4.8,0,1.6,0,2.4,0Z"/>
      <path class="cls-1" d="M67.14,122.34c-.01.8-.01,1.6,0,2.4.8.01,1.6-.01,2.4,0v2.4s-2.4,0-2.4,0c0-.8.02-1.6,0-2.4-.8-.01-1.6,0-2.4,0,.01-.8.01-1.6,0-2.4.8,0,1.6.01,2.4,0Z"/>
      <path class="cls-1" d="M31.17,124.74c-.01.8.01,1.6,0,2.4h-2.26c-.25-.04-.13-1.98-.14-2.4.8,0,1.6,0,2.4,0Z"/>
      <path class="cls-1" d="M55.15,67.17c0,.8,0,1.6,0,2.4-.42,0-2.36.12-2.4-.14v-2.26c.8,0,1.61.02,2.4,0Z"/>
      <path class="cls-1" d="M59.95,67.17c0,.8,0,1.6,0,2.4-.8,0-1.6,0-2.4,0,0-.8,0-1.6,0-2.4.8,0,1.6,0,2.4,0Z"/>
      <path class="cls-1" d="M93.52,67.17c0,.42.12,2.36-.14,2.4h-2.26c0-.8.02-1.61,0-2.4.8,0,1.6,0,2.4,0Z"/>
      <path class="cls-1" d="M35.97,124.74c0,.8,0,1.6,0,2.4-.8-.01-1.6.01-2.4,0,0-.8.02-1.6,0-2.4.8,0,1.6,0,2.4,0Z"/>
      <path class="cls-1" d="M40.77,124.74c-.01.8.01,1.6,0,2.4-.8,0-1.6-.02-2.4,0,0-.8,0-1.6,0-2.4.8,0,1.6,0,2.4,0Z"/>
      <path class="cls-1" d="M57.55,69.57c0,.8,0,1.6,0,2.4-.8,0-1.6-.01-2.4,0,0-.8,0-1.6,0-2.4.8.01,1.6,0,2.4,0Z"/>
      <path class="cls-1" d="M62.35,69.57c0,.8,0,1.6,0,2.4-.8.01-1.6,0-2.4,0,0-.8,0-1.6,0-2.4.8,0,1.6-.01,2.4,0Z"/>
      <path class="cls-1" d="M81.53,69.57c0,.8,0,1.6,0,2.4-.8,0-1.6.01-2.4,0,0-.8,0-1.6,0-2.4.8-.01,1.6-.01,2.4,0Z"/>
      <path class="cls-1" d="M45.56,124.74c0,.8,0,1.6,0,2.4-.8-.01-1.6.01-2.4,0,0-.8.02-1.6,0-2.4.8,0,1.6,0,2.4,0Z"/>
      <path class="cls-1" d="M50.36,74.36c-.8-.01-1.6.01-2.4,0v-2.4s2.4,0,2.4,0c0,.8-.02,1.6,0,2.4.8.01,1.6,0,2.4,0-.01.8,0,1.6,0,2.4-.8,0-1.6-.01-2.4,0,0-.8.01-1.6,0-2.4Z"/>
      <path class="cls-1" d="M55.15,71.96c0,.8,0,1.6,0,2.4-.8,0-1.6,0-2.4,0,.01-.8-.01-1.6,0-2.4.8,0,1.6.02,2.4,0Z"/>
      <path class="cls-1" d="M59.95,71.96c0,.8.01,1.6,0,2.4-.8,0-1.6,0-2.4,0,0-.8,0-1.6,0-2.4.8,0,1.6,0,2.4,0Z"/>
      <path class="cls-1" d="M83.93,71.96c.01.8,0,1.6,0,2.4-.8,0-1.6,0-2.4,0,0-.8,0-1.6,0-2.4.8,0,1.6,0,2.4,0Z"/>
      <path class="cls-1" d="M86.33,71.96c.8.01,1.6-.01,2.4,0,0,.8-.02,1.6,0,2.4-.8,0-1.6,0-2.4,0,0-.8-.01-1.6,0-2.4Z"/>
      <path class="cls-1" d="M91.12,74.36c.01-.8-.01-1.6,0-2.4h2.4s0,2.4,0,2.4c-.8,0-1.6-.02-2.4,0-.01.8-.01,1.6,0,2.4.8.01,1.6-.01,2.4,0v2.4s-2.4,0-2.4,0c0-.8.02-1.6,0-2.4-.8-.01-1.6,0-2.4,0,.01-.8.01-1.6,0-2.4.8,0,1.6.01,2.4,0Z"/>
      <path class="cls-1" d="M50.36,124.74c-.01.8.01,1.6,0,2.4-.8,0-1.6-.02-2.4,0,0-.8,0-1.6,0-2.4.8,0,1.6,0,2.4,0Z"/>
      <path class="cls-1" d="M57.55,74.36c0,.8,0,1.6,0,2.4-.8.01-1.6,0-2.4,0,0-.8,0-1.6,0-2.4.8,0,1.6,0,2.4,0Z"/>
      <path class="cls-1" d="M62.35,74.36c.01.8-.01,1.6,0,2.4.8,0,1.6-.02,2.4,0,.01.8,0,1.6,0,2.4-.42,0-2.36-.12-2.4.14v2.26c.8,0,1.61-.02,2.4,0,0,.8.01,1.6,0,2.4-.8.01-1.6-.01-2.4,0v2.4s2.4,0,2.4,0c0-.8-.02-1.6,0-2.4.8-.01,1.6-.01,2.4,0,.01.8-.01,1.6,0,2.4h2.4s0-2.4,0-2.4c-.8,0-1.6.02-2.4,0-.01-.8,0-1.6,0-2.4.42,0,2.36.12,2.4-.14v-2.26c-.8,0-1.61.02-2.4,0,0-.8-.01-1.6,0-2.4.8-.01,1.6.01,2.4,0,0-.8-.02-1.6,0-2.4.8-.01,1.6-.01,2.4,0,.01.8-.01,1.6,0,2.4.8,0,1.6-.02,2.4,0,.01.8,0,1.6,0,2.4-.8.01-1.6-.01-2.4,0v2.26c.04.26,1.98.13,2.4.14,0,.8.01,1.6,0,2.4-.8.01-1.6-.01-2.4,0v2.4s2.4,0,2.4,0c0-.8-.02-1.6,0-2.4.8-.01,1.6,0,2.4,0,.01.8-.01,1.6,0,2.4.8,0,1.6-.02,2.4,0,0,.8,0,1.6,0,2.4-.8.01-1.6-.01-2.4,0,0,.8.02,1.6,0,2.4-.8,0-1.6,0-2.4,0,0-.42.12-2.36-.14-2.4h-2.26c0,.8.02,1.61,0,2.4-.8,0-1.6.01-2.4,0-.01-.8.01-1.6,0-2.4h-2.4s0,2.4,0,2.4c.8,0,1.6-.02,2.4,0,.01.8.01,1.6,0,2.4-.8.01-1.6-.01-2.4,0,0,.8.02,1.6,0,2.4-.8.01-1.6.01-2.4,0-.01-.8.01-1.6,0-2.4-.8,0-1.6.02-2.4,0-.01-.8-.01-1.6,0-2.4.8-.01,1.6.01,2.4,0v-2.4s-2.4,0-2.4,0c0,.8.02,1.6,0,2.4-.8.01-1.6.01-2.4,0-.01-.8.01-1.6,0-2.4h-2.4s0,2.4,0,2.4c.8,0,1.6-.02,2.4,0,.01.8.01,1.6,0,2.4-.8.01-1.6-.01-2.4,0,0,.8.02,1.6,0,2.4-.8.01-1.6.01-2.4,0-.01-.8.01-1.6,0-2.4-.8,0-1.6.02-2.4,0-.01-.8,0-1.6,0-2.4.8-.01,1.6.01,2.4,0v-2.26c-.04-.26-1.98-.13-2.4-.14,0-.8-.01-1.6,0-2.4.8-.01,1.6.01,2.4,0,0-.8-.02-1.6,0-2.4.8-.01,1.6-.01,2.4,0,.01.8-.01,1.6,0,2.4h2.4s0-2.4,0-2.4c-.8,0-1.6.02-2.4,0-.01-.8,0-1.6,0-2.4.8-.01,1.6.01,2.4,0v-2.26c-.04-.26-1.98-.13-2.4-.14,0-.8,0-1.6,0-2.4.8-.01,1.6.01,2.4,0,0-.8-.02-1.6,0-2.4.8,0,1.6-.01,2.4,0Z"/>
      <path class="cls-1" d="M81.53,74.36c0,.8,0,1.6,0,2.4-.8,0-1.6,0-2.4,0,0-.8,0-1.6,0-2.4.8-.01,1.6,0,2.4,0Z"/>
      <path class="cls-1" d="M86.33,74.36c0,.8-.01,1.6,0,2.4-.8,0-1.6,0-2.4,0,.01-.8,0-1.6,0-2.4.8,0,1.6,0,2.4,0Z"/>
      <path class="cls-1" d="M55.15,124.74c0,.8,0,1.6,0,2.4-.8-.01-1.6.01-2.4,0,0-.8.02-1.6,0-2.4.8,0,1.6,0,2.4,0Z"/>
      <path class="cls-1" d="M40.77,79.16c-.8-.01-1.6.01-2.4,0v-2.4s2.4,0,2.4,0c0,.8-.02,1.6,0,2.4.8.01,1.6.01,2.4,0,.01-.8-.01-1.6,0-2.4h2.4s0,2.4,0,2.4c-.8,0-1.6-.02-2.4,0-.01.8,0,1.6,0,2.4-.8-.01-1.6-.01-2.4,0,0-.8.01-1.6,0-2.4Z"/>
      <path class="cls-1" d="M50.36,76.76c0,.8.01,1.6,0,2.4-.8-.01-1.6.01-2.4,0v-2.26c.04-.26,1.98-.13,2.4-.14Z"/>
      <path class="cls-1" d="M55.15,76.76c0,.8,0,1.6,0,2.4-.8,0-1.6,0-2.4,0-.01-.8,0-1.6,0-2.4.8,0,1.6,0,2.4,0Z"/>
      <path class="cls-1" d="M79.13,76.76c0,.8,0,1.6,0,2.4-.8,0-1.6,0-2.4,0,0-.8-.01-1.6,0-2.4.8,0,1.6,0,2.4,0Z"/>
      <path class="cls-1" d="M83.93,76.76c-.01.8.01,1.6,0,2.4-.8,0-1.6-.02-2.4,0,0-.8,0-1.6,0-2.4.8,0,1.6,0,2.4,0Z"/>
      <path class="cls-1" d="M88.72,76.76c0,.42.12,2.36-.14,2.4h-2.26c0-.8.02-1.61,0-2.4.8,0,1.6,0,2.4,0Z"/>
      <path class="cls-1" d="M59.95,124.74c-.01.8.01,1.6,0,2.4-.8,0-1.6-.02-2.4,0,0-.8,0-1.6,0-2.4.8,0,1.6,0,2.4,0Z"/>
      <path class="cls-1" d="M52.76,79.16c.01.8-.01,1.6,0,2.4.8,0,1.6-.02,2.4,0,0,.8.01,1.6,0,2.4-.8.01-1.6-.01-2.4,0,0,.8.02,1.6,0,2.4-.8.01-1.6.01-2.4,0-.01-.8.01-1.6,0-2.4-.8,0-1.6.02-2.4,0,0-.39-.09-2.32,0-2.4.11-.11,2.29.11,2.4,0,.08-.08,0-2.01,0-2.4.8.01,1.6,0,2.4,0Z"/>
      <path class="cls-1" d="M57.55,79.16c0,.8,0,1.6,0,2.4-.8.01-1.6.01-2.4,0,0-.8,0-1.6,0-2.4.8,0,1.6-.01,2.4,0Z"/>
      <path class="cls-1" d="M67.14,79.16c0,.8,0,1.6,0,2.4-.8.01-1.6.01-2.4,0,0-.8,0-1.6,0-2.4.8-.01,1.6-.01,2.4,0Z"/>
      <path class="cls-1" d="M76.74,79.16c0,.8,0,1.6,0,2.4-.8,0-1.6.01-2.4,0,0-.8,0-1.6,0-2.4.8-.01,1.6,0,2.4,0Z"/>
      <path class="cls-1" d="M81.53,79.16c0,.8,0,1.6,0,2.4-.8-.01-1.6,0-2.4,0,0-.8,0-1.6,0-2.4.8,0,1.6.01,2.4,0Z"/>
      <path class="cls-1" d="M64.75,124.74c-.01.8.01,1.6,0,2.4h-2.26c-.25-.04-.13-1.98-.14-2.4.8,0,1.6,0,2.4,0Z"/>
      <path class="cls-1" d="M40.77,81.56c0,.8,0,1.6,0,2.4-.8-.01-1.6.01-2.4,0v-2.26c.04-.26,1.98-.13,2.4-.14Z"/>
      <path class="cls-1" d="M43.16,81.56c.8.01,1.6-.01,2.4,0,0,.8,0,1.6,0,2.4-.8,0-1.6,0-2.4,0,0-.8,0-1.6,0-2.4Z"/>
      <path class="cls-1" d="M79.13,81.56c0,.8,0,1.6,0,2.4-.8,0-1.6,0-2.4,0-.01-.8,0-1.6,0-2.4.8,0,1.6,0,2.4,0Z"/>
      <path class="cls-1" d="M81.53,81.56c.8.01,1.6-.01,2.4,0,0,.8-.02,1.6,0,2.4-.8,0-1.6,0-2.4,0,0-.8,0-1.6,0-2.4Z"/>
      <path class="cls-1" d="M86.33,83.96c.01-.8-.01-1.6,0-2.4h2.4s0,2.4,0,2.4c-.8,0-1.6-.02-2.4,0-.01.8,0,1.6,0,2.4-.8-.01-1.6,0-2.4,0,0-.8.01-1.6,0-2.4.8,0,1.6.01,2.4,0Z"/>
      <path class="cls-1" d="M38.37,127.14c0,.8-.01,1.6,0,2.4-.8-.01-1.6-.01-2.4,0-.01.8.01,1.6,0,2.4-.8,0-1.6-.02-2.4,0-.01.8-.01,1.6,0,2.4.8.01,1.6-.01,2.4,0v2.4s-2.4,0-2.4,0c0-.8.02-1.6,0-2.4-.8-.01-1.6-.01-2.4,0-.01.8.01,1.6,0,2.4h-2.4s0-2.4,0-2.4c.8,0,1.6.02,2.4,0,.01-.8.01-1.6,0-2.4-.8-.01-1.6.01-2.4,0v-2.4s2.4,0,2.4,0c0,.8-.02,1.6,0,2.4.8.01,1.6.01,2.4,0,.01-.8-.01-1.6,0-2.4.8,0,1.6.02,2.4,0,.01-.8,0-1.6,0-2.4.8.01,1.6.01,2.4,0Z"/>
      <path class="cls-1" d="M43.16,83.96c0,.8,0,1.6,0,2.4-.8.01-1.6-.01-2.4,0,0-.8,0-1.6,0-2.4.8.01,1.6,0,2.4,0Z"/>
      <path class="cls-1" d="M47.96,83.96c0,.8,0,1.6,0,2.4.8,0,1.6-.02,2.4,0,.01.8,0,1.6,0,2.4-.8.01-1.6-.01-2.4,0,0,.8.02,1.6,0,2.4-.8,0-1.6,0-2.4,0-.01-.8.01-1.6,0-2.4-.8,0-1.6.02-2.4,0,0-.8,0-1.6,0-2.4.8-.01,1.6.01,2.4,0,0-.8,0-1.6,0-2.4.8,0,1.6-.01,2.4,0Z"/>
      <path class="cls-1" d="M81.53,83.96c0,.8,0,1.6,0,2.4-.8,0-1.6.01-2.4,0,0-.8,0-1.6,0-2.4.8,0,1.6,0,2.4,0Z"/>
      <path class="cls-1" d="M47.96,127.14c0,.8-.01,1.6,0,2.4-.8-.01-1.6-.01-2.4,0,.01-.8,0-1.6,0-2.4.8.01,1.6.01,2.4,0Z"/>
      <path class="cls-1" d="M57.55,127.14c0,.8-.01,1.6,0,2.4-.8-.01-1.6-.01-2.4,0,.01-.8,0-1.6,0-2.4.8.01,1.6.01,2.4,0Z"/>
      <path class="cls-1" d="M38.37,129.53c.8.01,1.6-.01,2.4,0,0,.8-.02,1.6,0,2.4-.8-.01-1.6.01-2.4,0,0-.8.02-1.6,0-2.4Z"/>
      <path class="cls-1" d="M40.77,86.36c0,.8,0,1.6,0,2.4-.42,0-2.36.12-2.4-.14v-2.26c.8,0,1.61.02,2.4,0Z"/>
      <path class="cls-1" d="M83.93,86.36c0,.8,0,1.6,0,2.4-.8,0-1.6,0-2.4,0,0-.8,0-1.6,0-2.4.8,0,1.6,0,2.4,0Z"/>
      <path class="cls-1" d="M45.56,129.53c-.01.8.01,1.6,0,2.4-.8,0-1.6-.02-2.4,0,.01-.8-.01-1.6,0-2.4.8,0,1.6.02,2.4,0Z"/>
      <path class="cls-1" d="M47.96,129.53c.8.01,1.6-.01,2.4,0,0,.8-.02,1.6,0,2.4-.8-.01-1.6.01-2.4,0,0-.8.02-1.6,0-2.4Z"/>
      <path class="cls-1" d="M55.15,129.53c-.01.8.01,1.6,0,2.4-.8,0-1.6-.02-2.4,0,.01-.8-.01-1.6,0-2.4.8,0,1.6.02,2.4,0Z"/>
      <path class="cls-1" d="M43.16,88.76c0,.8,0,1.6,0,2.4-.8,0-1.6-.01-2.4,0,0-.8,0-1.6,0-2.4.8.01,1.6-.01,2.4,0Z"/>
      <path class="cls-1" d="M52.76,88.76c0,.8,0,1.6,0,2.4-.8.01-1.6,0-2.4,0,0-.8,0-1.6,0-2.4.8-.01,1.6-.01,2.4,0Z"/>
      <path class="cls-1" d="M81.53,88.76c0,.8,0,1.6,0,2.4-.8,0-1.6,0-2.4,0,0-.8,0-1.6,0-2.4.8-.01,1.6,0,2.4,0Z"/>
      <path class="cls-1" d="M86.33,88.76c0,.8-.01,1.6,0,2.4.8.01,1.6-.01,2.4,0v2.4s-2.4,0-2.4,0c0-.8.02-1.6,0-2.4-.8-.01-1.6,0-2.4,0,.01-.8,0-1.6,0-2.4.8,0,1.6.01,2.4,0Z"/>
      <path class="cls-1" d="M31.17,93.55c-.8-.01-1.6.01-2.4,0v-2.4s2.4,0,2.4,0c0,.8-.02,1.6,0,2.4.8.01,1.6.01,2.4,0,.01-.8-.01-1.6,0-2.4h2.4s0,2.4,0,2.4c-.8,0-1.6-.02-2.4,0-.01.8,0,1.6,0,2.4-.8-.01-1.6-.01-2.4,0,0-.8.01-1.6,0-2.4Z"/>
      <path class="cls-1" d="M40.77,91.15c0,.8,0,1.6,0,2.4-.8-.01-1.6.01-2.4,0v-2.26c.04-.26,1.98-.13,2.4-.14Z"/>
      <path class="cls-1" d="M45.56,91.15c.01.8,0,1.6,0,2.4-.8,0-1.6,0-2.4,0,0-.8,0-1.6,0-2.4.8,0,1.6,0,2.4,0Z"/>
      <path class="cls-1" d="M50.36,91.15c0,.8.01,1.6,0,2.4-.8,0-1.6,0-2.4,0,0-.8-.01-1.6,0-2.4.8,0,1.6,0,2.4,0Z"/>
      <path class="cls-1" d="M74.34,91.15c.01.8,0,1.6,0,2.4-.8,0-1.6,0-2.4,0-.01-.8-.01-1.6,0-2.4.8,0,1.6,0,2.4,0Z"/>
      <path class="cls-1" d="M79.13,91.15c0,.8,0,1.6,0,2.4-.8,0-1.6,0-2.4,0,0-.8-.01-1.6,0-2.4.8,0,1.6,0,2.4,0Z"/>
      <path class="cls-1" d="M83.93,91.15c-.01.8.01,1.6,0,2.4-.8,0-1.6-.02-2.4,0,0-.8,0-1.6,0-2.4.8,0,1.6,0,2.4,0Z"/>
      <path class="cls-1" d="M43.16,93.55c0,.8,0,1.6,0,2.4-.8,0-1.6-.01-2.4,0,0-.8,0-1.6,0-2.4.8.01,1.6,0,2.4,0Z"/>
      <path class="cls-1" d="M47.96,93.55c0,.8,0,1.6,0,2.4-.8.01-1.6,0-2.4,0,0-.8,0-1.6,0-2.4.8,0,1.6,0,2.4,0Z"/>
      <path class="cls-1" d="M52.76,93.55c.01.8-.01,1.6,0,2.4.8,0,1.6-.02,2.4,0,.01.8,0,1.6,0,2.4-.42,0-2.36-.12-2.4.14v2.26c.8,0,1.61-.02,2.4,0,0,.8.01,1.6,0,2.4-.8.01-1.6-.01-2.4,0,0,.8.02,1.6,0,2.4-.8.01-1.6.01-2.4,0-.01-.8.01-1.6,0-2.4-.8,0-1.6.02-2.4,0-.01-.8,0-1.6,0-2.4.8-.01,1.6.01,2.4,0v-2.26c-.04-.26-1.98-.13-2.4-.14,0-.8,0-1.6,0-2.4.8-.01,1.6.01,2.4,0,0-.8-.02-1.6,0-2.4.8,0,1.6-.01,2.4,0Z"/>
      <path class="cls-1" d="M62.35,93.55c.01.8-.01,1.6,0,2.4.8,0,1.6-.02,2.4,0,.01.8,0,1.6,0,2.4-.42,0-2.36-.12-2.4.14v2.26c.8,0,1.61-.02,2.4,0,0,.8.01,1.6,0,2.4-.8.01-1.6-.01-2.4,0,0,.8.02,1.6,0,2.4-.8.01-1.6.01-2.4,0-.01-.8.01-1.6,0-2.4-.8,0-1.6.02-2.4,0-.01-.8,0-1.6,0-2.4.42,0,2.36.12,2.4-.14v-2.26c-.8,0-1.61.02-2.4,0,0-.8-.01-1.6,0-2.4.8-.01,1.6.01,2.4,0,0-.8-.02-1.6,0-2.4.8-.01,1.6-.01,2.4,0Z"/>
      <path class="cls-1" d="M71.94,93.55c.01.8-.01,1.6,0,2.4.8,0,1.6-.02,2.4,0,0,.8,0,1.6,0,2.4-.8.01-1.6-.01-2.4,0,0,.8.02,1.6,0,2.4-.8,0-1.6,0-2.4,0-.01-.8.01-1.6,0-2.4-.8,0-1.6.02-2.4,0,0-.8-.01-1.6,0-2.4.8-.01,1.6.01,2.4,0,0-.8-.02-1.6,0-2.4.8-.01,1.6,0,2.4,0Z"/>
      <path class="cls-1" d="M76.74,93.55c0,.8,0,1.6,0,2.4-.8,0-1.6.01-2.4,0,0-.8,0-1.6,0-2.4.8,0,1.6,0,2.4,0Z"/>
      <path class="cls-1" d="M81.53,93.55c0,.8,0,1.6,0,2.4-.8-.01-1.6,0-2.4,0,0-.8,0-1.6,0-2.4.8,0,1.6.01,2.4,0Z"/>
      <path class="cls-1" d="M50.36,134.33c0,.8,0,1.6,0,2.4-.8-.01-1.6.01-2.4,0v-2.26c.04-.26,1.98-.13,2.4-.14Z"/>
      <path class="cls-1" d="M31.17,95.95c0,.8,0,1.6,0,2.4-.8-.01-1.6.01-2.4,0v-2.26c.04-.26,1.98-.13,2.4-.14Z"/>
      <path class="cls-1" d="M33.57,95.95c.8.01,1.6-.01,2.4,0v2.26c-.04.26-1.98.13-2.4.14,0-.8,0-1.6,0-2.4Z"/>
      <path class="cls-1" d="M40.77,95.95c0,.8,0,1.6,0,2.4-.8-.01-1.6.01-2.4,0v-2.26c.04-.26,1.98-.13,2.4-.14Z"/>
      <path class="cls-1" d="M45.56,95.95c0,.8,0,1.6,0,2.4-.8,0-1.6,0-2.4,0,0-.8,0-1.6,0-2.4.8,0,1.6,0,2.4,0Z"/>
      <path class="cls-1" d="M79.13,95.95c0,.8,0,1.6,0,2.4-.8,0-1.6,0-2.4,0,0-.8,0-1.6,0-2.4.8,0,1.6,0,2.4,0Z"/>
      <path class="cls-1" d="M81.53,95.95c.42,0,2.36-.12,2.4.14v2.26c-.8,0-1.61-.02-2.4,0,0-.8,0-1.6,0-2.4Z"/>
      <path class="cls-1" d="M52.76,139.13c.8.01,1.6-.01,2.4,0,0,.8-.02,1.6,0,2.4-.8-.01-1.6.01-2.4,0,0-.8.02-1.6,0-2.4Z"/>
      <path class="cls-1" d="M57.55,129.53c.8.01,1.6-.01,2.4,0,0,.8-.02,1.6,0,2.4-.8-.01-1.6.01-2.4,0,0-.8.02-1.6,0-2.4Z"/>
      <path class="cls-1" d="M33.57,98.35c0,.8,0,1.6,0,2.4-.8-.01-1.6-.01-2.4,0,0-.8,0-1.6,0-2.4.8.01,1.6.01,2.4,0Z"/>
      <path class="cls-1" d="M43.16,98.35c0,.8,0,1.6,0,2.4-.8,0-1.6-.01-2.4,0,0-.8,0-1.6,0-2.4.8.01,1.6,0,2.4,0Z"/>
      <path class="cls-1" d="M47.96,98.35c0,.8,0,1.6,0,2.4-.8.01-1.6,0-2.4,0,0-.8,0-1.6,0-2.4.8,0,1.6-.01,2.4,0Z"/>
      <path class="cls-1" d="M57.55,98.35c0,.8,0,1.6,0,2.4-.8.01-1.6.01-2.4,0,0-.8,0-1.6,0-2.4.8-.01,1.6-.01,2.4,0Z"/>
      <path class="cls-1" d="M67.14,98.35c0,.8,0,1.6,0,2.4-.8,0-1.6.01-2.4,0,0-.8,0-1.6,0-2.4.8-.01,1.6-.01,2.4,0Z"/>
      <path class="cls-1" d="M76.74,98.35c0,.8,0,1.6,0,2.4-.8,0-1.6,0-2.4,0,0-.8,0-1.6,0-2.4.8-.01,1.6,0,2.4,0Z"/>
      <path class="cls-1" d="M81.53,98.35c0,.8-.01,1.6,0,2.4.8.01,1.6-.01,2.4,0v2.4s-2.4,0-2.4,0c0-.8.02-1.6,0-2.4-.8-.01-1.6,0-2.4,0,.01-.8,0-1.6,0-2.4.8,0,1.6.01,2.4,0Z"/>
      <path class="cls-1" d="M26.38,103.15c-.8-.01-1.6.01-2.4,0v-2.4s2.4,0,2.4,0c0,.8-.02,1.6,0,2.4.8.01,1.6,0,2.4,0-.01.8-.01,1.6,0,2.4-.8,0-1.6-.01-2.4,0-.01.8.01,1.6,0,2.4h-2.4s0-2.4,0-2.4c.8,0,1.6.02,2.4,0,.01-.8.01-1.6,0-2.4Z"/>
      <path class="cls-1" d="M31.17,100.75c0,.8,0,1.6,0,2.4-.8,0-1.6,0-2.4,0,.01-.8-.01-1.6,0-2.4.8,0,1.6.02,2.4,0Z"/>
      <path class="cls-1" d="M33.57,100.75c.8.01,1.6-.01,2.4,0,0,.8-.02,1.6,0,2.4-.8,0-1.6,0-2.4,0,0-.8,0-1.6,0-2.4Z"/>
      <path class="cls-1" d="M40.77,100.75c0,.8,0,1.6,0,2.4-.8,0-1.6,0-2.4,0,.01-.8-.01-1.6,0-2.4.8,0,1.6.02,2.4,0Z"/>
      <path class="cls-1" d="M45.56,100.75c0,.8.01,1.6,0,2.4-.8,0-1.6,0-2.4,0,0-.8,0-1.6,0-2.4.8,0,1.6,0,2.4,0Z"/>
      <path class="cls-1" d="M69.54,100.75c.01.8,0,1.6,0,2.4-.8,0-1.6,0-2.4,0-.01-.8,0-1.6,0-2.4.8,0,1.6,0,2.4,0Z"/>
      <path class="cls-1" d="M74.34,100.75c0,.8,0,1.6,0,2.4-.8,0-1.6,0-2.4,0,0-.8-.01-1.6,0-2.4.8,0,1.6,0,2.4,0Z"/>
      <path class="cls-1" d="M79.13,100.75c-.01.8.01,1.6,0,2.4-.8,0-1.6-.02-2.4,0,0-.8,0-1.6,0-2.4.8,0,1.6,0,2.4,0Z"/>
      <path class="cls-1" d="M52.76,134.33c.8.01,1.6-.01,2.4,0v2.26c-.04.26-1.98.13-2.4.14,0-.8,0-1.6,0-2.4Z"/>
      <path class="cls-1" d="M33.57,103.15c0,.8-.01,1.6,0,2.4-.8,0-1.6,0-2.4,0,.01-.8,0-1.6,0-2.4.8,0,1.6,0,2.4,0Z"/>
      <path class="cls-1" d="M38.37,103.15c-.01.8,0,1.6,0,2.4-.8,0-1.6,0-2.4,0,0-.8.01-1.6,0-2.4.8,0,1.6,0,2.4,0Z"/>
      <path class="cls-1" d="M43.16,103.15c0,.8,0,1.6,0,2.4-.8.01-1.6,0-2.4,0,0-.8,0-1.6,0-2.4.8,0,1.6,0,2.4,0Z"/>
      <path class="cls-1" d="M47.96,103.15c.01.8-.01,1.6,0,2.4.8,0,1.6-.02,2.4,0,.01.8,0,1.6,0,2.4-.8.01-1.6-.01-2.4,0,0,.8.02,1.6,0,2.4-.8,0-1.6,0-2.4,0-.01-.8.01-1.6,0-2.4-.8,0-1.6.02-2.4,0,0-.8,0-1.6,0-2.4.8-.01,1.6.01,2.4,0,0-.8-.02-1.6,0-2.4.8,0,1.6-.01,2.4,0Z"/>
      <path class="cls-1" d="M57.55,103.15c.01.8-.01,1.6,0,2.4.8,0,1.6-.02,2.4,0,.01.8,0,1.6,0,2.4-.8.01-1.6-.01-2.4,0,0,.8.02,1.6,0,2.4-.8,0-1.6,0-2.4,0-.01-.8.01-1.6,0-2.4-.8,0-1.6.02-2.4,0,0-.8-.01-1.6,0-2.4.8-.01,1.6.01,2.4,0,0-.8-.02-1.6,0-2.4.8-.01,1.6-.01,2.4,0Z"/>
      <path class="cls-1" d="M67.14,103.15c.01.8-.01,1.6,0,2.4.8,0,1.6-.02,2.4,0,0,.8,0,1.6,0,2.4-.8.01-1.6-.01-2.4,0,0,.8.02,1.6,0,2.4-.8,0-1.6,0-2.4,0-.01-.8.01-1.6,0-2.4-.8,0-1.6.02-2.4,0,0-.8-.01-1.6,0-2.4.8-.01,1.6.01,2.4,0,0-.8-.02-1.6,0-2.4.8-.01,1.6,0,2.4,0Z"/>
      <path class="cls-1" d="M71.94,103.15c0,.8,0,1.6,0,2.4-.8,0-1.6.01-2.4,0,0-.8,0-1.6,0-2.4.8,0,1.6,0,2.4,0Z"/>
      <path class="cls-1" d="M76.74,103.15c0,.8,0,1.6,0,2.4-.8-.01-1.6,0-2.4,0,0-.8,0-1.6,0-2.4.8,0,1.6.01,2.4,0Z"/>
      <path class="cls-1" d="M59.95,134.33c0,.8,0,1.6,0,2.4-.8-.01-1.6.01-2.4,0v-2.26c.04-.26,1.98-.13,2.4-.14Z"/>
      <path class="cls-1" d="M62.35,131.93c.01-.8-.01-1.6,0-2.4h2.4s0,2.4,0,2.4c-.8,0-1.6-.02-2.4,0-.01.8,0,1.6,0,2.4-.8-.01-1.6-.01-2.4,0,0-.8.01-1.6,0-2.4.8.01,1.6.01,2.4,0Z"/>
      <path class="cls-1" d="M31.17,105.55c0,.42.12,2.36-.14,2.4h-2.26c0-.8.02-1.61,0-2.4.8,0,1.6,0,2.4,0Z"/>
      <path class="cls-1" d="M35.97,105.55c0,.8,0,1.6,0,2.4-.8-.01-1.6.01-2.4,0,0-.8.02-1.6,0-2.4.8,0,1.6,0,2.4,0Z"/>
      <path class="cls-1" d="M40.77,105.55c0,.8,0,1.6,0,2.4-.8,0-1.6,0-2.4,0,0-.8,0-1.6,0-2.4.8,0,1.6,0,2.4,0Z"/>
      <path class="cls-1" d="M74.34,105.55c0,.8,0,1.6,0,2.4-.8,0-1.6,0-2.4,0,0-.8,0-1.6,0-2.4.8,0,1.6,0,2.4,0Z"/>
      <path class="cls-1" d="M76.74,105.55c.8.01,1.6-.01,2.4,0v2.26c-.04.26-1.98.13-2.4.14,0-.8,0-1.6,0-2.4Z"/>
      <path class="cls-1" d="M62.35,134.33c.8.01,1.6-.01,2.4,0v2.26c-.04.26-1.98.13-2.4.14,0-.8,0-1.6,0-2.4Z"/>
      <path class="cls-1" d="M52.76,136.73c0,.8-.01,1.6,0,2.4-.8-.01-1.6-.01-2.4,0-.01.8.01,1.6,0,2.4-.8,0-1.6-.02-2.4,0-.01.8-.01,1.6,0,2.4.8.01,1.6-.01,2.4,0v2.4s-2.4,0-2.4,0c0-.8.02-1.6,0-2.4-.8-.01-1.6-.01-2.4,0-.01.8.01,1.6,0,2.4h-2.4s0-2.4,0-2.4c.8,0,1.6.02,2.4,0,.01-.8.01-1.6,0-2.4-.8-.01-1.6.01-2.4,0v-2.4s2.4,0,2.4,0c0,.8-.02,1.6,0,2.4.8.01,1.6.01,2.4,0,.01-.8-.01-1.6,0-2.4.8,0,1.6.02,2.4,0,.01-.8,0-1.6,0-2.4.8.01,1.6.01,2.4,0Z"/>
      <path class="cls-1" d="M62.35,136.73c0,.8-.01,1.6,0,2.4.8.01,1.6-.01,2.4,0v2.4s-2.4,0-2.4,0c0-.8.02-1.6,0-2.4-.8-.01-1.6-.01-2.4,0,.01-.8,0-1.6,0-2.4.8.01,1.6.01,2.4,0Z"/>
      <path class="cls-1" d="M38.37,107.95c0,.8,0,1.6,0,2.4-.8,0-1.6-.01-2.4,0,0-.8,0-1.6,0-2.4.8.01,1.6,0,2.4,0Z"/>
      <path class="cls-1" d="M43.16,107.95c0,.8,0,1.6,0,2.4-.8,0-1.6,0-2.4,0,0-.8,0-1.6,0-2.4.8,0,1.6-.01,2.4,0Z"/>
      <path class="cls-1" d="M52.76,107.95c0,.8,0,1.6,0,2.4-.8,0-1.6,0-2.4,0,0-.8,0-1.6,0-2.4.8-.01,1.6-.01,2.4,0Z"/>
      <path class="cls-1" d="M62.35,107.95c0,.8,0,1.6,0,2.4-.8,0-1.6,0-2.4,0,0-.8,0-1.6,0-2.4.8-.01,1.6-.01,2.4,0Z"/>
      <path class="cls-1" d="M71.94,107.95c0,.8,0,1.6,0,2.4-.8,0-1.6,0-2.4,0,0-.8,0-1.6,0-2.4.8-.01,1.6,0,2.4,0Z"/>
      <path class="cls-1" d="M76.74,107.95c0,.8-.01,1.6,0,2.4.8.01,1.6-.01,2.4,0v2.4s-2.4,0-2.4,0c0-.8.02-1.6,0-2.4-.8-.01-1.6,0-2.4,0,.01-.8,0-1.6,0-2.4.8,0,1.6.01,2.4,0Z"/>
      <path class="cls-1" d="M43.16,131.93c-.01.8-.01,1.6,0,2.4.8.01,1.6-.01,2.4,0v2.4s-2.4,0-2.4,0c0-.8.02-1.6,0-2.4-.8-.01-1.6-.01-2.4,0-.01.8.01,1.6,0,2.4h-2.4s0-2.4,0-2.4c.8,0,1.6.02,2.4,0,.01-.8.01-1.6,0-2.4.8.01,1.6.01,2.4,0Z"/>
      <path class="cls-1" d="M52.76,131.93c-.01.8,0,1.6,0,2.4-.8-.01-1.6-.01-2.4,0,0-.8.01-1.6,0-2.4.8.01,1.6.01,2.4,0Z"/>
      <path class="cls-1" d="M31.17,112.74c-.8-.01-1.6.01-2.4,0v-2.4s2.4,0,2.4,0c0,.8-.02,1.6,0,2.4.8.01,1.6,0,2.4,0-.01.8,0,1.6,0,2.4-.8,0-1.6-.01-2.4,0,0-.8.01-1.6,0-2.4Z"/>
      <path class="cls-1" d="M35.97,110.34c0,.8,0,1.6,0,2.4-.8,0-1.6,0-2.4,0,.01-.8-.01-1.6,0-2.4.8,0,1.6.02,2.4,0Z"/>
      <path class="cls-1" d="M40.77,110.34c0,.8,0,1.6,0,2.4-.8,0-1.6,0-2.4,0,0-.8,0-1.6,0-2.4.8,0,1.6,0,2.4,0Z"/>
      <path class="cls-1" d="M45.56,110.34c.01.8,0,1.6,0,2.4-.8,0-1.6,0-2.4,0,0-.8,0-1.6,0-2.4.8,0,1.6,0,2.4,0Z"/>
      <path class="cls-1" d="M50.36,110.34c0,.8,0,1.6,0,2.4-.8,0-1.6,0-2.4,0,0-.8-.01-1.6,0-2.4.8,0,1.6,0,2.4,0Z"/>
      <path class="cls-1" d="M52.76,223.09c0,.8,0,1.6,0,2.4-.8,0-1.6,0-2.4,0,0-.8,0-1.6,0-2.4.8,0,1.6-.01,2.4,0Z"/>
      <path class="cls-1" d="M47.96,223.09c0,.8,0,1.6,0,2.4-.8,0-1.6-.01-2.4,0,0-.8,0-1.6,0-2.4.8.01,1.6,0,2.4,0Z"/>
      <path class="cls-1" d="M76.74,220.69c.8.01,1.6-.01,2.4,0v2.26c-.04.26-1.98.13-2.4.14,0-.8,0-1.6,0-2.4Z"/>
      <path class="cls-1" d="M74.34,220.69c0,.8,0,1.6,0,2.4-.8,0-1.6,0-2.4,0,0-.8,0-1.6,0-2.4.8,0,1.6,0,2.4,0Z"/>
      <path class="cls-1" d="M50.36,220.69c0,.8,0,1.6,0,2.4-.8,0-1.6,0-2.4,0,0-.8,0-1.6,0-2.4.8,0,1.6,0,2.4,0Z"/>
      <path class="cls-1" d="M45.56,220.69c0,.8,0,1.6,0,2.4-.8-.01-1.6.01-2.4,0v-2.26c.04-.26,1.98-.13,2.4-.14Z"/>
      <path class="cls-1" d="M71.94,218.29c0,.8,0,1.6,0,2.4-.8,0-1.6.01-2.4,0,0-.8,0-1.6,0-2.4.8,0,1.6,0,2.4,0Z"/>
      <path class="cls-1" d="M67.14,218.29c.01.8-.01,1.6,0,2.4.8,0,1.6-.02,2.4,0,0,.8,0,1.6,0,2.4-.8.01-1.6-.01-2.4,0v2.26c.04.26,1.98.13,2.4.14,0,.8.01,1.6,0,2.4-.8.01-1.6-.01-2.4,0,0,.8.02,1.6,0,2.4-.8.01-1.6.01-2.4,0-.01-.8.01-1.6,0-2.4-.8,0-1.6.02-2.4,0-.01-.8,0-1.6,0-2.4.8-.01,1.6.01,2.4,0v-2.26c-.04-.26-1.98-.13-2.4-.14,0-.8,0-1.6,0-2.4.8-.01,1.6.01,2.4,0,0-.8-.02-1.6,0-2.4.8,0,1.6,0,2.4,0Z"/>
      <path class="cls-1" d="M62.35,218.29c0,.8,0,1.6,0,2.4-.8.01-1.6.01-2.4,0,0-.8,0-1.6,0-2.4.8,0,1.6,0,2.4,0Z"/>
      <path class="cls-1" d="M57.55,218.29c.01.8-.01,1.6,0,2.4.8,0,1.6-.02,2.4,0,0,.8,0,1.6,0,2.4-.8.01-1.6-.01-2.4,0,0,.8.02,1.6,0,2.4-.8,0-1.6,0-2.4,0-.01-.8.01-1.6,0-2.4-.8,0-1.6.02-2.4,0,0-.8,0-1.6,0-2.4.8-.01,1.6.01,2.4,0,0-.8-.02-1.6,0-2.4.8,0,1.6,0,2.4,0Z"/>
      <path class="cls-1" d="M64.75,254.27c0,.8,0,1.6,0,2.4-.8-.01-1.6.01-2.4,0,0-.8.02-1.6,0-2.4.8,0,1.6,0,2.4,0Z"/>
      <path class="cls-1" d="M69.54,254.27c.01.8,0,1.6,0,2.4-.8,0-1.6,0-2.4,0,0-.8,0-1.6,0-2.4.8,0,1.6,0,2.4,0Z"/>
      <path class="cls-1" d="M74.34,254.27c0,.8.01,1.6,0,2.4-.8,0-1.6,0-2.4,0,0-.8-.01-1.6,0-2.4.8,0,1.6,0,2.4,0Z"/>
      <path class="cls-1" d="M88.72,254.27c0,.8,0,1.6,0,2.4-.8,0-1.6,0-2.4,0-.01-.8,0-1.6,0-2.4.8,0,1.6,0,2.4,0Z"/>
      <path class="cls-1" d="M91.12,254.27c.8.01,1.6-.01,2.4,0,0,.8-.02,1.6,0,2.4-.8,0-1.6,0-2.4,0,0-.8,0-1.6,0-2.4Z"/>
      <path class="cls-1" d="M95.92,256.67c.01-.8-.01-1.6,0-2.4h2.4s0,2.4,0,2.4c-.8,0-1.6-.02-2.4,0-.01.8,0,1.6,0,2.4-.8-.01-1.6,0-2.4,0,0-.8.01-1.6,0-2.4.8,0,1.6.01,2.4,0Z"/>
      <path class="cls-1" d="M67.14,256.67c0,.8-.01,1.6,0,2.4-.8,0-1.6-.01-2.4,0-.01.8.01,1.6,0,2.4h-2.4s0-2.4,0-2.4c.8,0,1.6.02,2.4,0,.01-.8,0-1.6,0-2.4.8.01,1.6,0,2.4,0Z"/>
      <path class="cls-1" d="M71.94,256.67c0,.8-.01,1.6,0,2.4-.8.01-1.6,0-2.4,0,.01-.8,0-1.6,0-2.4.8,0,1.6,0,2.4,0Z"/>
      <path class="cls-1" d="M76.74,256.67c.01.8-.01,1.6,0,2.4.8,0,1.6-.02,2.4,0,.01.8,0,1.6,0,2.4-.8.01-1.6-.01-2.4,0,0,.8.02,1.6,0,2.4-.8,0-1.6-.01-2.4,0,0-.39.09-2.32,0-2.4-.11-.11-2.29.11-2.4,0-.08-.08,0-2.01,0-2.4.8-.01,1.6.01,2.4,0,0-.8-.02-1.6,0-2.4.8,0,1.6-.01,2.4,0Z"/>
      <path class="cls-1" d="M86.33,256.67c.01.8-.01,1.6,0,2.4.8,0,1.6-.02,2.4,0,0,.8,0,1.6,0,2.4-.8.01-1.6-.01-2.4,0,0,.8.02,1.6,0,2.4-.8,0-1.6,0-2.4,0-.01-.8.01-1.6,0-2.4-.8,0-1.6.02-2.4,0,0-.8-.01-1.6,0-2.4.8-.01,1.6.01,2.4,0,0-.8-.02-1.6,0-2.4.8-.01,1.6,0,2.4,0Z"/>
      <path class="cls-1" d="M91.12,256.67c0,.8,0,1.6,0,2.4-.8,0-1.6.01-2.4,0,0-.8,0-1.6,0-2.4.8,0,1.6,0,2.4,0Z"/>
      <path class="cls-1" d="M69.54,259.07c-.01.8.01,1.6,0,2.4h-2.26c-.25-.04-.13-1.98-.14-2.4.8,0,1.6,0,2.4,0Z"/>
      <path class="cls-1" d="M93.52,259.07c0,.8,0,1.6,0,2.4-.8,0-1.6,0-2.4,0,0-.8,0-1.6,0-2.4.8,0,1.6,0,2.4,0Z"/>
      <path class="cls-1" d="M95.92,259.07c.8.01,1.6-.01,2.4,0v2.26c-.04.26-1.98.13-2.4.14,0-.8,0-1.6,0-2.4Z"/>
      <path class="cls-1" d="M81.53,261.47c0,.8,0,1.6,0,2.4-.8,0-1.6,0-2.4,0,0-.8,0-1.6,0-2.4.8-.01,1.6-.01,2.4,0Z"/>
      <path class="cls-1" d="M91.12,261.47c0,.8,0,1.6,0,2.4-.8,0-1.6,0-2.4,0,0-.8,0-1.6,0-2.4.8-.01,1.6,0,2.4,0Z"/>
      <path class="cls-1" d="M95.92,261.47c0,.8,0,1.6,0,2.4-.8-.01-1.6,0-2.4,0,0-.8,0-1.6,0-2.4.8,0,1.6.01,2.4,0Z"/>
      <path class="cls-1" d="M69.54,266.26c-.8-.01-1.6.01-2.4,0v-2.4s2.4,0,2.4,0c0,.8-.02,1.6,0,2.4.8.01,1.6,0,2.4,0-.01.8-.01,1.6,0,2.4-.8,0-1.6-.01-2.4,0-.01.8.01,1.6,0,2.4h-2.4s0-2.4,0-2.4c.8,0,1.6.02,2.4,0,.01-.8.01-1.6,0-2.4Z"/>
      <path class="cls-1" d="M74.34,263.87c.01.8,0,1.6,0,2.4-.8,0-1.6,0-2.4,0,.01-.8-.01-1.6,0-2.4.8,0,1.6.02,2.4,0Z"/>
      <path class="cls-1" d="M79.13,263.87c0,.8,0,1.6,0,2.4-.8,0-1.6,0-2.4,0,0-.8-.01-1.6,0-2.4.8,0,1.6,0,2.4,0Z"/>
      <path class="cls-1" d="M83.93,263.87c.01.8,0,1.6,0,2.4-.8,0-1.6,0-2.4,0,0-.8,0-1.6,0-2.4.8,0,1.6,0,2.4,0Z"/>
      <path class="cls-1" d="M55.15,199.1c-.8-.01-1.6.01-2.4,0v-2.4s2.4,0,2.4,0c0,.8-.02,1.6,0,2.4.8.01,1.6.01,2.4,0,.01-.8-.01-1.6,0-2.4h2.4s0,2.4,0,2.4c-.8,0-1.6-.02-2.4,0-.01.8,0,1.6,0,2.4-.8-.01-1.6-.01-2.4,0,0-.8.01-1.6,0-2.4Z"/>
      <path class="cls-1" d="M88.72,263.87c0,.8.01,1.6,0,2.4-.8,0-1.6,0-2.4,0,0-.8-.01-1.6,0-2.4.8,0,1.6,0,2.4,0Z"/>
      <path class="cls-1" d="M81.53,230.28c.8.01,1.6-.01,2.4,0v2.26c-.04.26-1.98.13-2.4.14,0-.8,0-1.6,0-2.4Z"/>
      <path class="cls-1" d="M64.75,199.1c-.8-.01-1.6.01-2.4,0v-2.4s2.4,0,2.4,0c0,.8-.02,1.6,0,2.4.8.01,1.6.01,2.4,0,.01-.8-.01-1.6,0-2.4h2.4s0,2.4,0,2.4c-.8,0-1.6-.02-2.4,0-.01.8,0,1.6,0,2.4-.8-.01-1.6-.01-2.4,0,0-.8.01-1.6,0-2.4Z"/>
      <path class="cls-1" d="M93.52,263.87c0,.8,0,1.6,0,2.4-.8,0-1.6,0-2.4,0-.01-.8,0-1.6,0-2.4.8,0,1.6,0,2.4,0Z"/>
      <path class="cls-1" d="M95.92,263.87c.8.01,1.6-.01,2.4,0,0,.8-.02,1.6,0,2.4-.8,0-1.6,0-2.4,0,0-.8,0-1.6,0-2.4Z"/>
      <path class="cls-1" d="M100.71,266.26c.01-.8-.01-1.6,0-2.4h2.4s0,2.4,0,2.4c-.8,0-1.6-.02-2.4,0-.01.8,0,1.6,0,2.4-.8-.01-1.6,0-2.4,0,0-.8.01-1.6,0-2.4.8,0,1.6.01,2.4,0Z"/>
      <path class="cls-1" d="M76.74,266.26c0,.8-.01,1.6,0,2.4-.8,0-1.6,0-2.4,0,.01-.8,0-1.6,0-2.4.8,0,1.6,0,2.4,0Z"/>
      <path class="cls-1" d="M81.53,266.26c0,.8,0,1.6,0,2.4-.8,0-1.6,0-2.4,0,0-.8,0-1.6,0-2.4.8,0,1.6,0,2.4,0Z"/>
      <path class="cls-1" d="M86.33,266.26c0,.8,0,1.6,0,2.4-.8.01-1.6,0-2.4,0,0-.8,0-1.6,0-2.4.8,0,1.6,0,2.4,0Z"/>
      <path class="cls-1" d="M91.12,266.26c.01.8-.01,1.6,0,2.4.8,0,1.6-.02,2.4,0,0,.8,0,1.6,0,2.4-.8.01-1.6-.01-2.4,0,0,.8.02,1.6,0,2.4-.8,0-1.6,0-2.4,0-.01-.8.01-1.6,0-2.4-.8,0-1.6.02-2.4,0,0-.8,0-1.6,0-2.4.8-.01,1.6.01,2.4,0,0-.8-.02-1.6,0-2.4.8,0,1.6,0,2.4,0Z"/>
      <path class="cls-1" d="M95.92,266.26c0,.8,0,1.6,0,2.4-.8,0-1.6.01-2.4,0,0-.8,0-1.6,0-2.4.8,0,1.6,0,2.4,0Z"/>
      <path class="cls-1" d="M55.15,201.5c0,.8,0,1.6,0,2.4-.8-.01-1.6.01-2.4,0v-2.26c.04-.26,1.98-.13,2.4-.14Z"/>
      <path class="cls-1" d="M74.34,268.66c0,.42.12,2.36-.14,2.4h-2.26c0-.8.02-1.61,0-2.4.8,0,1.6,0,2.4,0Z"/>
      <path class="cls-1" d="M79.13,268.66c0,.8,0,1.6,0,2.4-.8-.01-1.6.01-2.4,0,0-.8.02-1.6,0-2.4.8,0,1.6,0,2.4,0Z"/>
      <path class="cls-1" d="M83.93,268.66c0,.8,0,1.6,0,2.4-.8,0-1.6,0-2.4,0,0-.8,0-1.6,0-2.4.8,0,1.6,0,2.4,0Z"/>
      <path class="cls-1" d="M57.55,201.5c.8.01,1.6-.01,2.4,0v2.26c-.04.26-1.98.13-2.4.14,0-.8,0-1.6,0-2.4Z"/>
      <path class="cls-1" d="M64.75,201.5c0,.8,0,1.6,0,2.4-.8-.01-1.6.01-2.4,0v-2.26c.04-.26,1.98-.13,2.4-.14Z"/>
      <path class="cls-1" d="M98.32,268.66c0,.8,0,1.6,0,2.4-.8,0-1.6,0-2.4,0,0-.8,0-1.6,0-2.4.8,0,1.6,0,2.4,0Z"/>
      <path class="cls-1" d="M100.71,268.66c.8.01,1.6-.01,2.4,0v2.26c-.04.26-1.98.13-2.4.14,0-.8,0-1.6,0-2.4Z"/>
      <path class="cls-1" d="M67.14,201.5c.8.01,1.6-.01,2.4,0v2.26c-.04.26-1.98.13-2.4.14,0-.8,0-1.6,0-2.4Z"/>
      <path class="cls-1" d="M86.33,271.06c0,.8,0,1.6,0,2.4-.8,0-1.6,0-2.4,0,0-.8,0-1.6,0-2.4.8,0,1.6-.01,2.4,0Z"/>
      <path class="cls-1" d="M95.92,271.06c0,.8,0,1.6,0,2.4-.8,0-1.6,0-2.4,0,0-.8,0-1.6,0-2.4.8-.01,1.6,0,2.4,0Z"/>
      <path class="cls-1" d="M100.71,271.06c0,.8,0,1.6,0,2.4-.8-.01-1.6,0-2.4,0,0-.8,0-1.6,0-2.4.8,0,1.6.01,2.4,0Z"/>
      <path class="cls-1" d="M83.93,273.46c0,.8,0,1.6,0,2.4-.8-.01-1.6.01-2.4,0,0-.8.02-1.6,0-2.4.8,0,1.6,0,2.4,0Z"/>
      <path class="cls-1" d="M57.55,203.9c0,.8,0,1.6,0,2.4-.8-.01-1.6-.01-2.4,0,0-.8,0-1.6,0-2.4.8.01,1.6.01,2.4,0Z"/>
      <path class="cls-1" d="M88.72,273.46c.01.8,0,1.6,0,2.4-.8,0-1.6,0-2.4,0,0-.8,0-1.6,0-2.4.8,0,1.6,0,2.4,0Z"/>
      <path class="cls-1" d="M67.14,203.9c0,.8,0,1.6,0,2.4-.8-.01-1.6-.01-2.4,0,0-.8,0-1.6,0-2.4.8.01,1.6.01,2.4,0Z"/>
      <path class="cls-1" d="M93.52,273.46c0,.8,0,1.6,0,2.4-.8,0-1.6,0-2.4,0,0-.8-.01-1.6,0-2.4.8,0,1.6,0,2.4,0Z"/>
      <path class="cls-1" d="M52.76,218.29c0,.8,0,1.6,0,2.4-.8.01-1.6,0-2.4,0,0-.8,0-1.6,0-2.4.8,0,1.6,0,2.4,0Z"/>
      <path class="cls-1" d="M100.71,273.46c.8.01,1.6-.01,2.4,0,0,.8-.02,1.6,0,2.4-.8,0-1.6,0-2.4,0,0-.8,0-1.6,0-2.4Z"/>
      <path class="cls-1" d="M105.51,275.86c.01-.8-.01-1.6,0-2.4h2.4s0,2.4,0,2.4c-.8,0-1.6-.02-2.4,0-.01.8,0,1.6,0,2.4-.8-.01-1.6,0-2.4,0,0-.8.01-1.6,0-2.4.8,0,1.6.01,2.4,0Z"/>
      <path class="cls-1" d="M86.33,275.86c0,.8-.01,1.6,0,2.4-.8,0-1.6-.01-2.4,0-.01.8.01,1.6,0,2.4h-2.4s0-2.4,0-2.4c.8,0,1.6.02,2.4,0,.01-.8,0-1.6,0-2.4.8.01,1.6,0,2.4,0Z"/>
      <path class="cls-1" d="M50.36,208.69c-.8-.01-1.6.01-2.4,0v-2.4s2.4,0,2.4,0c0,.8-.02,1.6,0,2.4.8.01,1.6,0,2.4,0-.01.8,0,1.6,0,2.4-.8,0-1.6-.01-2.4,0,0-.8.01-1.6,0-2.4Z"/>
      <path class="cls-1" d="M91.12,275.86c0,.8-.01,1.6,0,2.4-.8,0-1.6,0-2.4,0,.01-.8,0-1.6,0-2.4.8,0,1.6,0,2.4,0Z"/>
      <path class="cls-1" d="M55.15,206.29c0,.8,0,1.6,0,2.4-.8,0-1.6,0-2.4,0,.01-.8-.01-1.6,0-2.4.8,0,1.6.02,2.4,0Z"/>
      <path class="cls-1" d="M95.92,275.86c0,.8,0,1.6,0,2.4-.8,0-1.6,0-2.4,0,0-.8,0-1.6,0-2.4.8,0,1.6,0,2.4,0Z"/>
      <path class="cls-1" d="M100.71,275.86c0,.8-.01,1.6,0,2.4-.8,0-1.6,0-2.4,0,.01-.8,0-1.6,0-2.4.8,0,1.6,0,2.4,0Z"/>
      <path class="cls-1" d="M57.55,206.29c.8.01,1.6-.01,2.4,0,0,.8-.02,1.6,0,2.4-.8,0-1.6,0-2.4,0,0-.8,0-1.6,0-2.4Z"/>
      <path class="cls-1" d="M88.72,278.26c0,.42.12,2.36-.14,2.4h-2.26c0-.8.02-1.61,0-2.4.8,0,1.6,0,2.4,0Z"/>
      <path class="cls-1" d="M93.52,278.26c0,.8,0,1.6,0,2.4-.8-.01-1.6.01-2.4,0,0-.8.02-1.6,0-2.4.8,0,1.6,0,2.4,0Z"/>
      <path class="cls-1" d="M64.75,206.29c0,.8,0,1.6,0,2.4-.8,0-1.6,0-2.4,0,.01-.8-.01-1.6,0-2.4.8,0,1.6.02,2.4,0Z"/>
      <path class="cls-1" d="M98.32,278.26c-.01.8.01,1.6,0,2.4-.8,0-1.6-.02-2.4,0,0-.8,0-1.6,0-2.4.8,0,1.6,0,2.4,0Z"/>
      <path class="cls-1" d="M103.11,278.26c0,.8,0,1.6,0,2.4-.8-.01-1.6.01-2.4,0,0-.8.02-1.6,0-2.4.8,0,1.6,0,2.4,0Z"/>
      <path class="cls-1" d="M67.14,206.29c.8.01,1.6-.01,2.4,0,0,.8-.02,1.6,0,2.4-.8,0-1.6,0-2.4,0,0-.8,0-1.6,0-2.4Z"/>
      <path class="cls-1" d="M105.51,278.26c.8.01,1.6-.01,2.4,0v2.26c-.04.26-1.98.13-2.4.14,0-.8,0-1.6,0-2.4Z"/>
      <path class="cls-1" d="M95.92,280.66c0,.8-.01,1.6,0,2.4-.8-.01-1.6-.01-2.4,0-.01.8.01,1.6,0,2.4h-2.4s0-2.4,0-2.4c.8,0,1.6.02,2.4,0,.01-.8,0-1.6,0-2.4.8.01,1.6.01,2.4,0Z"/>
      <path class="cls-1" d="M105.51,280.66c0,.8,0,1.6,0,2.4-.8-.01-1.6-.01-2.4,0,0-.8,0-1.6,0-2.4.8.01,1.6.01,2.4,0Z"/>
      <path class="cls-1" d="M62.35,208.69c-.01.8,0,1.6,0,2.4-.8,0-1.6,0-2.4,0,0-.8.01-1.6,0-2.4.8,0,1.6,0,2.4,0Z"/>
      <path class="cls-1" d="M95.92,283.06c.8.01,1.6-.01,2.4,0,0,.8-.02,1.6,0,2.4-.8-.01-1.6.01-2.4,0,0-.8.02-1.6,0-2.4Z"/>
      <path class="cls-1" d="M67.14,208.69c0,.8,0,1.6,0,2.4-.8,0-1.6,0-2.4,0,0-.8,0-1.6,0-2.4.8,0,1.6,0,2.4,0Z"/>
      <path class="cls-1" d="M103.11,283.06c0,.8,0,1.6,0,2.4-.8,0-1.6,0-2.4,0,.01-.8-.01-1.6,0-2.4.8,0,1.6.02,2.4,0Z"/>
      <path class="cls-1" d="M71.94,208.69c.01-.8-.01-1.6,0-2.4h2.4s0,2.4,0,2.4c-.8,0-1.6-.02-2.4,0-.01.8,0,1.6,0,2.4-.8-.01-1.6,0-2.4,0,0-.8.01-1.6,0-2.4.8,0,1.6.01,2.4,0Z"/>
      <path class="cls-1" d="M76.74,218.29c.01-.8-.01-1.6,0-2.4h2.4s0,2.4,0,2.4c-.8,0-1.6-.02-2.4,0-.01.8,0,1.6,0,2.4-.8-.01-1.6,0-2.4,0,0-.8.01-1.6,0-2.4.8,0,1.6.01,2.4,0Z"/>
      <path class="cls-1" d="M71.94,215.89c.8.01,1.6-.01,2.4,0,0,.8-.02,1.6,0,2.4-.8,0-1.6,0-2.4,0,0-.8,0-1.6,0-2.4Z"/>
      <path class="cls-1" d="M50.36,211.09c0,.8,0,1.6,0,2.4-.8-.01-1.6.01-2.4,0v-2.26c.04-.26,1.98-.13,2.4-.14Z"/>
      <path class="cls-1" d="M105.51,283.06c.8.01,1.6-.01,2.4,0,0,.8-.02,1.6,0,2.4-.8,0-1.6,0-2.4,0,0-.8,0-1.6,0-2.4Z"/>
      <path class="cls-1" d="M55.15,211.09c0,.8,0,1.6,0,2.4-.8,0-1.6,0-2.4,0,0-.8,0-1.6,0-2.4.8,0,1.6,0,2.4,0Z"/>
      <path class="cls-1" d="M110.31,285.45c.01-.8-.01-1.6,0-2.4h2.4s0,2.4,0,2.4c-.8,0-1.6-.02-2.4,0-.01.8,0,1.6,0,2.4-.8-.01-1.6,0-2.4,0,0-.8.01-1.6,0-2.4.8,0,1.6.01,2.4,0Z"/>
      <path class="cls-1" d="M59.95,211.09c0,.8,0,1.6,0,2.4-.8,0-1.6,0-2.4,0,0-.8,0-1.6,0-2.4.8,0,1.6,0,2.4,0Z"/>
      <path class="cls-1" d="M100.71,285.45c-.01.8-.01,1.6,0,2.4-.8,0-1.6-.01-2.4,0-.01.8.01,1.6,0,2.4h-2.4s0-2.4,0-2.4c.8,0,1.6.02,2.4,0,.01-.8.01-1.6,0-2.4.8.01,1.6,0,2.4,0Z"/>
      <path class="cls-1" d="M64.75,211.09c0,.8,0,1.6,0,2.4-.8,0-1.6,0-2.4,0,0-.8,0-1.6,0-2.4.8,0,1.6,0,2.4,0Z"/>
      <path class="cls-1" d="M105.51,285.45c0,.8-.01,1.6,0,2.4-.8,0-1.6,0-2.4,0,.01-.8,0-1.6,0-2.4.8,0,1.6,0,2.4,0Z"/>
      <path class="cls-1" d="M69.54,211.09c0,.8,0,1.6,0,2.4-.8,0-1.6,0-2.4,0,0-.8,0-1.6,0-2.4.8,0,1.6,0,2.4,0Z"/>
      <path class="cls-1" d="M103.11,287.85c0,.42.12,2.36-.14,2.4h-2.26c0-.8.02-1.61,0-2.4.8,0,1.6,0,2.4,0Z"/>
      <path class="cls-1" d="M71.94,211.09c.8.01,1.6-.01,2.4,0v2.26c-.04.26-1.98.13-2.4.14,0-.8,0-1.6,0-2.4Z"/>
      <path class="cls-1" d="M69.54,215.89c0,.8,0,1.6,0,2.4-.8,0-1.6,0-2.4,0-.01-.8,0-1.6,0-2.4.8,0,1.6,0,2.4,0Z"/>
      <path class="cls-1" d="M64.75,215.89c0,.8.01,1.6,0,2.4-.8,0-1.6,0-2.4,0,0-.8,0-1.6,0-2.4.8,0,1.6,0,2.4,0Z"/>
      <path class="cls-1" d="M52.76,213.49c0,.8,0,1.6,0,2.4-.8,0-1.6-.01-2.4,0,0-.8,0-1.6,0-2.4.8.01,1.6,0,2.4,0Z"/>
      <path class="cls-1" d="M107.91,287.85c0,.8,0,1.6,0,2.4-.8-.01-1.6.01-2.4,0,0-.8.02-1.6,0-2.4.8,0,1.6,0,2.4,0Z"/>
      <path class="cls-1" d="M57.55,213.49c0,.8,0,1.6,0,2.4-.8,0-1.6,0-2.4,0,0-.8,0-1.6,0-2.4.8,0,1.6,0,2.4,0Z"/>
      <path class="cls-1" d="M57.55,208.69c0,.8,0,1.6,0,2.4-.8,0-1.6,0-2.4,0,0-.8,0-1.6,0-2.4.8,0,1.6,0,2.4,0Z"/>
      <path class="cls-1" d="M62.35,213.49c0,.8,0,1.6,0,2.4-.8,0-1.6,0-2.4,0,0-.8,0-1.6,0-2.4.8,0,1.6,0,2.4,0Z"/>
      <path class="cls-1" d="M110.31,287.85c.8.01,1.6-.01,2.4,0v2.26c-.04.26-1.98.13-2.4.14,0-.8,0-1.6,0-2.4Z"/>
      <path class="cls-1" d="M67.14,213.49c0,.8,0,1.6,0,2.4-.8,0-1.6,0-2.4,0,0-.8,0-1.6,0-2.4.8,0,1.6,0,2.4,0Z"/>
      <path class="cls-1" d="M117.5,290.25c-.8-.01-1.6.01-2.4,0v-2.4s2.4,0,2.4,0c0,.8-.02,1.6,0,2.4.8.01,1.6.01,2.4,0,.01-.8-.01-1.6,0-2.4h2.4s0,2.4,0,2.4c-.8,0-1.6-.02-2.4,0-.01.8-.01,1.6,0,2.4.8.01,1.6-.01,2.4,0v2.4s-2.4,0-2.4,0c0-.8.02-1.6,0-2.4-.8-.01-1.6-.01-2.4,0-.01.8.01,1.6,0,2.4-.8,0-1.6-.02-2.4,0-.01.8-.01,1.6,0,2.4.8.01,1.6-.01,2.4,0v2.4s-2.4,0-2.4,0c0-.8.02-1.6,0-2.4-.8-.01-1.6-.01-2.4,0-.01.8.01,1.6,0,2.4h-2.4s0-2.4,0-2.4c.8,0,1.6.02,2.4,0,.01-.8.01-1.6,0-2.4-.8-.01-1.6.01-2.4,0,0-.8.02-1.6,0-2.4-.8-.01-1.6-.01-2.4,0-.01.8.01,1.6,0,2.4h-2.4s0-2.4,0-2.4c.8,0,1.6.02,2.4,0,.01-.8,0-1.6,0-2.4.8.01,1.6.01,2.4,0,0,.8-.01,1.6,0,2.4.8.01,1.6-.01,2.4,0,0,.8-.02,1.6,0,2.4.8.01,1.6.01,2.4,0,.01-.8-.01-1.6,0-2.4.8,0,1.6.02,2.4,0,.01-.8.01-1.6,0-2.4Z"/>
      <path class="cls-1" d="M71.94,213.49c0,.8,0,1.6,0,2.4-.8-.01-1.6,0-2.4,0,0-.8,0-1.6,0-2.4.8,0,1.6.01,2.4,0Z"/>
      <path class="cls-1" d="M59.95,215.89c0,.8,0,1.6,0,2.4-.8,0-1.6,0-2.4,0-.01-.8,0-1.6,0-2.4.8,0,1.6,0,2.4,0Z"/>
      <path class="cls-1" d="M55.15,215.89c0,.8.01,1.6,0,2.4-.8,0-1.6,0-2.4,0,0-.8,0-1.6,0-2.4.8,0,1.6,0,2.4,0Z"/>
      <path class="cls-1" d="M45.56,218.29c-.8-.01-1.6.01-2.4,0v-2.4s2.4,0,2.4,0c0,.8-.02,1.6,0,2.4.8.01,1.6,0,2.4,0-.01.8,0,1.6,0,2.4-.8,0-1.6-.01-2.4,0,0-.8.01-1.6,0-2.4Z"/>
      <path class="cls-1" d="M50.36,215.89c0,.8,0,1.6,0,2.4-.8,0-1.6,0-2.4,0,.01-.8-.01-1.6,0-2.4.8,0,1.6.02,2.4,0Z"/>
      <path class="cls-1" d="M62.35,223.09c0,.8,0,1.6,0,2.4-.8.01-1.6,0-2.4,0,0-.8,0-1.6,0-2.4.8-.01,1.6-.01,2.4,0Z"/>
      <path class="cls-1" d="M71.94,223.09c0,.8,0,1.6,0,2.4-.8,0-1.6.01-2.4,0,0-.8,0-1.6,0-2.4.8-.01,1.6,0,2.4,0Z"/>
      <path class="cls-1" d="M76.74,223.09c0,.8,0,1.6,0,2.4-.8-.01-1.6,0-2.4,0,0-.8,0-1.6,0-2.4.8,0,1.6.01,2.4,0Z"/>
      <path class="cls-1" d="M40.77,227.88c-.8-.01-1.6.01-2.4,0v-2.4s2.4,0,2.4,0c0,.8-.02,1.6,0,2.4.8.01,1.6,0,2.4,0-.01.8,0,1.6,0,2.4-.8,0-1.6-.01-2.4,0,0-.8.01-1.6,0-2.4Z"/>
      <path class="cls-1" d="M45.56,225.49c0,.8,0,1.6,0,2.4-.8,0-1.6,0-2.4,0,.01-.8-.01-1.6,0-2.4.8,0,1.6.02,2.4,0Z"/>
      <path class="cls-1" d="M50.36,225.49c0,.8.01,1.6,0,2.4-.8,0-1.6,0-2.4,0,0-.8,0-1.6,0-2.4.8,0,1.6,0,2.4,0Z"/>
      <path class="cls-1" d="M55.15,225.49c.01.8,0,1.6,0,2.4-.8,0-1.6,0-2.4,0-.01-.8,0-1.6,0-2.4.8,0,1.6,0,2.4,0Z"/>
      <path class="cls-1" d="M59.95,225.49c0,.8.01,1.6,0,2.4-.8,0-1.6,0-2.4,0,0-.8-.01-1.6,0-2.4.8,0,1.6,0,2.4,0Z"/>
      <path class="cls-1" d="M74.34,225.49c0,.8,0,1.6,0,2.4-.8,0-1.6,0-2.4,0-.01-.8,0-1.6,0-2.4.8,0,1.6,0,2.4,0Z"/>
      <path class="cls-1" d="M76.74,225.49c.8.01,1.6-.01,2.4,0,0,.8-.02,1.6,0,2.4-.8,0-1.6,0-2.4,0,0-.8,0-1.6,0-2.4Z"/>
      <path class="cls-1" d="M81.53,227.88c.01-.8-.01-1.6,0-2.4h2.4s0,2.4,0,2.4c-.8,0-1.6-.02-2.4,0-.01.8,0,1.6,0,2.4-.8-.01-1.6,0-2.4,0,0-.8.01-1.6,0-2.4.8,0,1.6.01,2.4,0Z"/>
      <path class="cls-1" d="M47.96,227.88c0,.8-.01,1.6,0,2.4-.8.01-1.6,0-2.4,0,.01-.8,0-1.6,0-2.4.8,0,1.6,0,2.4,0Z"/>
      <path class="cls-1" d="M52.76,227.88c.01.8-.01,1.6,0,2.4.8,0,1.6-.02,2.4,0,0,.8,0,1.6,0,2.4-.8.01-1.6-.01-2.4,0,0,.8.02,1.6,0,2.4-.8,0-1.6-.01-2.4,0,0-.39.09-2.32,0-2.4-.11-.11-2.29.11-2.4,0-.08-.08,0-2.01,0-2.4.8-.01,1.6.01,2.4,0,0-.8-.02-1.6,0-2.4.8,0,1.6,0,2.4,0Z"/>
      <path class="cls-1" d="M57.55,227.88c0,.8,0,1.6,0,2.4-.8.01-1.6.01-2.4,0,0-.8,0-1.6,0-2.4.8,0,1.6,0,2.4,0Z"/>
      <path class="cls-1" d="M62.35,227.88c.01.8-.01,1.6,0,2.4.8,0,1.6-.02,2.4,0,.01.8,0,1.6,0,2.4-.42,0-2.36-.12-2.4.14v2.26c.8,0,1.61-.02,2.4,0,0,.8.01,1.6,0,2.4-.8.01-1.6-.01-2.4,0,0,.8.02,1.6,0,2.4-.8.01-1.6.01-2.4,0-.01-.8.01-1.6,0-2.4-.8,0-1.6.02-2.4,0-.01-.8,0-1.6,0-2.4.42,0,2.36.12,2.4-.14v-2.26c-.8,0-1.61.02-2.4,0,0-.8,0-1.6,0-2.4.8-.01,1.6.01,2.4,0,0-.8-.02-1.6,0-2.4.8,0,1.6-.01,2.4,0Z"/>
      <path class="cls-1" d="M71.94,227.88c.01.8-.01,1.6,0,2.4.8,0,1.6-.02,2.4,0,0,.8,0,1.6,0,2.4-.8.01-1.6-.01-2.4,0v2.26c.04.26,1.98.13,2.4.14,0,.8.01,1.6,0,2.4-.8.01-1.6-.01-2.4,0v2.4s2.4,0,2.4,0c0-.8-.02-1.6,0-2.4.8-.01,1.6,0,2.4,0,.01.8-.01,1.6,0,2.4.8,0,1.6-.02,2.4,0,0,.8,0,1.6,0,2.4-.42,0-2.36-.12-2.4.14v2.26c.8,0,1.61-.02,2.4,0,0,.8.01,1.6,0,2.4-.8.01-1.6-.01-2.4,0,0,.8.02,1.6,0,2.4-.8.01-1.6.01-2.4,0-.01-.8.01-1.6,0-2.4-.8,0-1.6.02-2.4,0-.01-.8-.01-1.6,0-2.4.8-.01,1.6.01,2.4,0v-2.4s-2.4,0-2.4,0c0,.8.02,1.6,0,2.4-.8.01-1.6,0-2.4,0,0-.42.12-2.36-.14-2.4h-2.26c0,.8.02,1.61,0,2.4-.8,0-1.6,0-2.4,0-.01-.8.01-1.6,0-2.4-.8,0-1.6.02-2.4,0,0-.8-.01-1.6,0-2.4.8-.01,1.6.01,2.4,0,0-.8-.02-1.6,0-2.4.8-.01,1.6-.01,2.4,0,.01.8-.01,1.6,0,2.4h2.4s0-2.4,0-2.4c-.8,0-1.6.02-2.4,0-.01-.8,0-1.6,0-2.4.42,0,2.36.12,2.4-.14v-2.26c-.8,0-1.61.02-2.4,0,0-.8-.01-1.6,0-2.4.8-.01,1.6.01,2.4,0,0-.8-.02-1.6,0-2.4.8-.01,1.6,0,2.4,0Z"/>
      <path class="cls-1" d="M76.74,227.88c0,.8,0,1.6,0,2.4-.8,0-1.6.01-2.4,0,0-.8,0-1.6,0-2.4.8,0,1.6,0,2.4,0Z"/>
      <path class="cls-1" d="M40.77,230.28c0,.8,0,1.6,0,2.4-.8-.01-1.6.01-2.4,0v-2.26c.04-.26,1.98-.13,2.4-.14Z"/>
      <path class="cls-1" d="M45.56,230.28c-.01.8.01,1.6,0,2.4-.8,0-1.6-.02-2.4,0,0-.8,0-1.6,0-2.4.8,0,1.6,0,2.4,0Z"/>
      <path class="cls-1" d="M79.13,230.28c0,.8,0,1.6,0,2.4-.8,0-1.6,0-2.4,0,0-.8,0-1.6,0-2.4.8,0,1.6,0,2.4,0Z"/>
      <path class="cls-1" d="M98.32,273.46c0,.8,0,1.6,0,2.4-.8,0-1.6,0-2.4,0,0-.8,0-1.6,0-2.4.8,0,1.6,0,2.4,0Z"/>
      <path class="cls-1" d="M43.16,232.68c0,.8-.01,1.6,0,2.4-.8-.01-1.6-.01-2.4,0-.01.8.01,1.6,0,2.4h-2.4s0-2.4,0-2.4c.8,0,1.6.02,2.4,0,.01-.8,0-1.6,0-2.4.8.01,1.6.01,2.4,0Z"/>
      <path class="cls-1" d="M57.55,232.68c0,.8,0,1.6,0,2.4-.8.01-1.6,0-2.4,0,0-.8,0-1.6,0-2.4.8-.01,1.6-.01,2.4,0Z"/>
      <path class="cls-1" d="M67.14,232.68c0,.8,0,1.6,0,2.4-.8.01-1.6.01-2.4,0,0-.8,0-1.6,0-2.4.8-.01,1.6-.01,2.4,0Z"/>
      <path class="cls-1" d="M76.74,232.68c0,.8,0,1.6,0,2.4-.8,0-1.6.01-2.4,0,0-.8,0-1.6,0-2.4.8-.01,1.6,0,2.4,0Z"/>
      <path class="cls-1" d="M81.53,232.68c0,.8,0,1.6,0,2.4-.8-.01-1.6,0-2.4,0,0-.8,0-1.6,0-2.4.8,0,1.6.01,2.4,0Z"/>
      <path class="cls-1" d="M43.16,235.08c.8.01,1.6-.01,2.4,0,0,.8-.02,1.6,0,2.4-.8-.01-1.6.01-2.4,0,0-.8.02-1.6,0-2.4Z"/>
      <path class="cls-1" d="M50.36,235.08c.01.8,0,1.6,0,2.4-.8,0-1.6,0-2.4,0,.01-.8-.01-1.6,0-2.4.8,0,1.6.02,2.4,0Z"/>
      <path class="cls-1" d="M55.15,235.08c0,.8.01,1.6,0,2.4-.8,0-1.6,0-2.4,0,0-.8-.01-1.6,0-2.4.8,0,1.6,0,2.4,0Z"/>
      <path class="cls-1" d="M79.13,235.08c0,.8,0,1.6,0,2.4-.8,0-1.6,0-2.4,0-.01-.8,0-1.6,0-2.4.8,0,1.6,0,2.4,0Z"/>
      <path class="cls-1" d="M81.53,235.08c.8.01,1.6-.01,2.4,0,0,.8-.02,1.6,0,2.4-.8,0-1.6,0-2.4,0,0-.8,0-1.6,0-2.4Z"/>
      <path class="cls-1" d="M86.33,237.48c.01-.8-.01-1.6,0-2.4h2.4s0,2.4,0,2.4c-.8,0-1.6-.02-2.4,0-.01.8,0,1.6,0,2.4-.8-.01-1.6,0-2.4,0,0-.8.01-1.6,0-2.4.8,0,1.6.01,2.4,0Z"/>
      <path class="cls-1" d="M47.96,237.48c-.01.8-.01,1.6,0,2.4-.8,0-1.6-.01-2.4,0-.01.8.01,1.6,0,2.4h-2.4s0-2.4,0-2.4c.8,0,1.6.02,2.4,0,.01-.8.01-1.6,0-2.4.8.01,1.6,0,2.4,0Z"/>
      <path class="cls-1" d="M52.76,237.48c0,.8-.01,1.6,0,2.4-.8.01-1.6,0-2.4,0,.01-.8,0-1.6,0-2.4.8,0,1.6,0,2.4,0Z"/>
      <path class="cls-1" d="M57.55,237.48c.01.8-.01,1.6,0,2.4.8,0,1.6-.02,2.4,0,.01.8,0,1.6,0,2.4-.8.01-1.6-.01-2.4,0,0,.8.02,1.6,0,2.4-.8,0-1.6-.01-2.4,0,0-.39.09-2.32,0-2.4-.11-.11-2.29.11-2.4,0-.08-.08,0-2.01,0-2.4.8-.01,1.6.01,2.4,0,0-.8-.02-1.6,0-2.4.8,0,1.6-.01,2.4,0Z"/>
      <path class="cls-1" d="M81.53,237.48c0,.8,0,1.6,0,2.4-.8,0-1.6.01-2.4,0,0-.8,0-1.6,0-2.4.8,0,1.6,0,2.4,0Z"/>
      <path class="cls-1" d="M50.36,239.88c0,.42.12,2.36-.14,2.4h-2.26c0-.8.02-1.61,0-2.4.8,0,1.6,0,2.4,0Z"/>
      <path class="cls-1" d="M83.93,239.88c0,.8,0,1.6,0,2.4-.8,0-1.6,0-2.4,0,0-.8,0-1.6,0-2.4.8,0,1.6,0,2.4,0Z"/>
      <path class="cls-1" d="M86.33,239.88c.42,0,2.36-.12,2.4.14v2.26c-.8,0-1.61-.02-2.4,0,0-.8,0-1.6,0-2.4Z"/>
      <path class="cls-1" d="M62.35,242.28c0,.8,0,1.6,0,2.4-.8,0-1.6,0-2.4,0,0-.8,0-1.6,0-2.4.8-.01,1.6-.01,2.4,0Z"/>
      <path class="cls-1" d="M81.53,242.28c0,.8,0,1.6,0,2.4-.8,0-1.6.01-2.4,0,0-.8,0-1.6,0-2.4.8-.01,1.6,0,2.4,0Z"/>
      <path class="cls-1" d="M86.33,242.28c0,.8,0,1.6,0,2.4-.8-.01-1.6,0-2.4,0,0-.8,0-1.6,0-2.4.8,0,1.6.01,2.4,0Z"/>
      <path class="cls-1" d="M50.36,247.07c-.8-.01-1.6.01-2.4,0v-2.4s2.4,0,2.4,0c0,.8-.02,1.6,0,2.4.8.01,1.6,0,2.4,0-.01.8-.01,1.6,0,2.4-.8,0-1.6-.01-2.4,0-.01.8.01,1.6,0,2.4h-2.4s0-2.4,0-2.4c.8,0,1.6.02,2.4,0,.01-.8.01-1.6,0-2.4Z"/>
      <path class="cls-1" d="M55.15,244.68c.01.8,0,1.6,0,2.4-.8,0-1.6,0-2.4,0,.01-.8-.01-1.6,0-2.4.8,0,1.6.02,2.4,0Z"/>
      <path class="cls-1" d="M59.95,244.68c0,.8,0,1.6,0,2.4-.8,0-1.6,0-2.4,0,0-.8-.01-1.6,0-2.4.8,0,1.6,0,2.4,0Z"/>
      <path class="cls-1" d="M64.75,244.68c.01.8,0,1.6,0,2.4-.8,0-1.6,0-2.4,0,0-.8,0-1.6,0-2.4.8,0,1.6,0,2.4,0Z"/>
      <path class="cls-1" d="M69.54,244.68c.01.8.01,1.6,0,2.4-.8,0-1.6,0-2.4,0,0-.8-.01-1.6,0-2.4.8,0,1.6,0,2.4,0Z"/>
      <path class="cls-1" d="M83.93,244.68c0,.8,0,1.6,0,2.4-.8,0-1.6,0-2.4,0-.01-.8,0-1.6,0-2.4.8,0,1.6,0,2.4,0Z"/>
      <path class="cls-1" d="M86.33,244.68c.8.01,1.6-.01,2.4,0,0,.8-.02,1.6,0,2.4-.8,0-1.6,0-2.4,0,0-.8,0-1.6,0-2.4Z"/>
      <path class="cls-1" d="M91.12,247.07c.01-.8-.01-1.6,0-2.4h2.4s0,2.4,0,2.4c-.8,0-1.6-.02-2.4,0-.01.8,0,1.6,0,2.4-.8-.01-1.6,0-2.4,0,0-.8.01-1.6,0-2.4.8,0,1.6.01,2.4,0Z"/>
      <path class="cls-1" d="M57.55,247.07c0,.8-.01,1.6,0,2.4-.8,0-1.6,0-2.4,0,.01-.8,0-1.6,0-2.4.8,0,1.6,0,2.4,0Z"/>
      <path class="cls-1" d="M62.35,247.07c0,.8,0,1.6,0,2.4-.8,0-1.6,0-2.4,0,0-.8,0-1.6,0-2.4.8,0,1.6,0,2.4,0Z"/>
      <path class="cls-1" d="M67.14,247.07c0,.8,0,1.6,0,2.4-.8.01-1.6,0-2.4,0,0-.8,0-1.6,0-2.4.8,0,1.6,0,2.4,0Z"/>
      <path class="cls-1" d="M71.94,247.07c.01.8-.01,1.6,0,2.4.8,0,1.6-.02,2.4,0,.01.8,0,1.6,0,2.4-.8.01-1.6-.01-2.4,0,0,.8.02,1.6,0,2.4-.8,0-1.6,0-2.4,0-.01-.8.01-1.6,0-2.4-.8,0-1.6.02-2.4,0,0-.8,0-1.6,0-2.4.8-.01,1.6.01,2.4,0,0-.8-.02-1.6,0-2.4.8,0,1.6-.01,2.4,0Z"/>
      <path class="cls-1" d="M81.53,247.07c.01.8-.01,1.6,0,2.4.8,0,1.6-.02,2.4,0,0,.8,0,1.6,0,2.4-.8.01-1.6-.01-2.4,0v2.26c.04.26,1.98.13,2.4.14,0,.8.01,1.6,0,2.4-.8.01-1.6-.01-2.4,0,0,.8.02,1.6,0,2.4-.8.01-1.6.01-2.4,0-.01-.8.01-1.6,0-2.4-.8,0-1.6.02-2.4,0-.01-.8,0-1.6,0-2.4.42,0,2.36.12,2.4-.14v-2.26c-.8,0-1.61.02-2.4,0,0-.8-.01-1.6,0-2.4.8-.01,1.6.01,2.4,0,0-.8-.02-1.6,0-2.4.8-.01,1.6,0,2.4,0Z"/>
      <path class="cls-1" d="M86.33,247.07c0,.8,0,1.6,0,2.4-.8,0-1.6.01-2.4,0,0-.8,0-1.6,0-2.4.8,0,1.6,0,2.4,0Z"/>
      <path class="cls-1" d="M55.15,249.47c0,.42.12,2.36-.14,2.4h-2.26c0-.8.02-1.61,0-2.4.8,0,1.6,0,2.4,0Z"/>
      <path class="cls-1" d="M59.95,249.47c0,.8,0,1.6,0,2.4-.8-.01-1.6.01-2.4,0,0-.8.02-1.6,0-2.4.8,0,1.6,0,2.4,0Z"/>
      <path class="cls-1" d="M64.75,249.47c0,.8,0,1.6,0,2.4-.8,0-1.6,0-2.4,0,0-.8,0-1.6,0-2.4.8,0,1.6,0,2.4,0Z"/>
      <path class="cls-1" d="M88.72,249.47c0,.8,0,1.6,0,2.4-.8,0-1.6,0-2.4,0,0-.8,0-1.6,0-2.4.8,0,1.6,0,2.4,0Z"/>
      <path class="cls-1" d="M91.12,249.47c.8.01,1.6-.01,2.4,0v2.26c-.04.26-1.98.13-2.4.14,0-.8,0-1.6,0-2.4Z"/>
      <path class="cls-1" d="M81.53,271.06c0,.8-.01,1.6,0,2.4-.8,0-1.6-.01-2.4,0-.01.8.01,1.6,0,2.4h-2.4s0-2.4,0-2.4c.8,0,1.6.02,2.4,0,.01-.8,0-1.6,0-2.4.8.01,1.6,0,2.4,0Z"/>
      <path class="cls-1" d="M62.35,251.87c0,.8-.01,1.6,0,2.4-.8,0-1.6-.01-2.4,0-.01.8.01,1.6,0,2.4-.8,0-1.6-.02-2.4,0-.01.8-.01,1.6,0,2.4.8.01,1.6-.01,2.4,0v2.4s-2.4,0-2.4,0c0-.8.02-1.6,0-2.4-.8-.01-1.6-.01-2.4,0-.01.8.01,1.6,0,2.4h-2.4s0-2.4,0-2.4c.8,0,1.6.02,2.4,0,.01-.8.01-1.6,0-2.4-.8-.01-1.6.01-2.4,0v-2.4s2.4,0,2.4,0c0,.8-.02,1.6,0,2.4.8.01,1.6.01,2.4,0,.01-.8-.01-1.6,0-2.4.8,0,1.6.02,2.4,0,.01-.8,0-1.6,0-2.4.8.01,1.6,0,2.4,0Z"/>
      <path class="cls-1" d="M67.14,251.87c0,.8,0,1.6,0,2.4-.8,0-1.6,0-2.4,0,0-.8,0-1.6,0-2.4.8,0,1.6-.01,2.4,0Z"/>
      <path class="cls-1" d="M76.74,251.87c0,.8,0,1.6,0,2.4-.8.01-1.6,0-2.4,0,0-.8,0-1.6,0-2.4.8-.01,1.6-.01,2.4,0Z"/>
      <path class="cls-1" d="M86.33,251.87c0,.8,0,1.6,0,2.4-.8,0-1.6.01-2.4,0,0-.8,0-1.6,0-2.4.8-.01,1.6,0,2.4,0Z"/>
      <path class="cls-1" d="M91.12,251.87c0,.8,0,1.6,0,2.4-.8-.01-1.6,0-2.4,0,0-.8,0-1.6,0-2.4.8,0,1.6.01,2.4,0Z"/>
      <rect class="cls-1" x="124.69" y="14.39" width="2.4" height="2.4"/>
      <rect class="cls-1" x="134.28" y="14.39" width="2.4" height="2.4"/>
      <rect class="cls-1" x="91.12" y="19.19" width="2.4" height="2.4"/>
      <rect class="cls-1" x="100.71" y="19.19" width="2.4" height="2.4"/>
      <rect class="cls-1" x="124.69" y="19.19" width="2.4" height="2.4"/>
      <rect class="cls-1" x="129.49" y="19.19" width="2.4" height="2.4"/>
      <rect class="cls-1" x="91.12" y="23.99" width="2.4" height="2.4"/>
      <rect class="cls-1" x="124.69" y="23.99" width="2.4" height="2.4"/>
      <rect class="cls-1" x="129.49" y="23.99" width="2.4" height="2.4"/>
      <rect class="cls-1" x="76.73" y="28.79" width="2.4" height="2.4"/>
      <rect class="cls-1" x="86.33" y="28.79" width="2.4" height="2.4"/>
      <rect class="cls-1" x="91.12" y="28.79" width="2.4" height="2.4"/>
      <rect class="cls-1" x="95.92" y="28.79" width="2.4" height="2.4"/>
      <rect class="cls-1" x="119.9" y="28.79" width="2.4" height="2.4"/>
      <rect class="cls-1" x="124.69" y="28.79" width="2.4" height="2.4"/>
      <rect class="cls-1" x="134.28" y="28.79" width="2.4" height="2.4"/>
      <rect class="cls-1" x="76.73" y="33.58" width="2.4" height="2.4"/>
      <rect class="cls-1" x="119.9" y="33.58" width="2.4" height="2.4"/>
      <rect class="cls-1" x="124.69" y="33.58" width="2.4" height="2.4"/>
      <rect class="cls-1" x="71.94" y="38.38" width="2.4" height="2.4"/>
      <rect class="cls-1" x="115.1" y="38.38" width="2.4" height="2.4"/>
      <rect class="cls-1" x="119.9" y="38.38" width="2.4" height="2.4"/>
      <rect class="cls-1" x="62.35" y="43.18" width="2.4" height="2.4"/>
      <rect class="cls-1" x="119.9" y="43.18" width="2.4" height="2.4"/>
      <rect class="cls-1" x="57.55" y="47.98" width="2.4" height="2.4"/>
      <rect class="cls-1" x="62.35" y="47.98" width="2.4" height="2.4"/>
      <rect class="cls-1" x="67.14" y="47.98" width="2.4" height="2.4"/>
      <rect class="cls-1" x="110.3" y="47.98" width="2.4" height="2.4"/>
      <rect class="cls-1" x="115.1" y="47.98" width="2.4" height="2.4"/>
      <rect class="cls-1" x="124.69" y="47.98" width="2.4" height="2.4"/>
      <rect class="cls-1" x="57.55" y="52.77" width="2.4" height="2.4"/>
      <rect class="cls-1" x="62.35" y="52.77" width="2.4" height="2.4"/>
      <rect class="cls-1" x="105.51" y="52.77" width="2.4" height="2.4"/>
      <rect class="cls-1" x="52.75" y="57.57" width="2.4" height="2.4"/>
      <rect class="cls-1" x="105.51" y="57.57" width="2.4" height="2.4"/>
      <rect class="cls-1" x="110.3" y="57.57" width="2.4" height="2.4"/>
      <rect class="cls-1" x="38.37" y="67.17" width="2.4" height="2.4"/>
      <rect class="cls-1" x="43.16" y="67.17" width="2.4" height="2.4"/>
      <rect class="cls-1" x="47.96" y="67.17" width="2.4" height="2.4"/>
      <rect class="cls-1" x="100.71" y="67.17" width="2.4" height="2.4"/>
      <rect class="cls-1" x="105.51" y="67.17" width="2.4" height="2.4"/>
      <rect class="cls-1" x="38.37" y="71.96" width="2.4" height="2.4"/>
      <rect class="cls-1" x="95.92" y="71.96" width="2.4" height="2.4"/>
      <rect class="cls-1" x="33.57" y="76.76" width="2.4" height="2.4"/>
      <rect class="cls-1" x="100.71" y="76.76" width="2.4" height="2.4"/>
      <rect class="cls-1" x="33.57" y="81.56" width="2.4" height="2.4"/>
      <rect class="cls-1" x="91.12" y="81.56" width="2.4" height="2.4"/>
      <rect class="cls-1" x="19.18" y="86.36" width="2.4" height="2.4"/>
      <rect class="cls-1" x="28.78" y="86.36" width="2.4" height="2.4"/>
      <rect class="cls-1" x="33.57" y="86.36" width="2.4" height="2.4"/>
      <rect class="cls-1" x="91.12" y="86.36" width="2.4" height="2.4"/>
      <rect class="cls-1" x="95.92" y="86.36" width="2.4" height="2.4"/>
      <rect class="cls-1" x="23.98" y="95.95" width="2.4" height="2.4"/>
      <rect class="cls-1" x="86.33" y="95.95" width="2.4" height="2.4"/>
      <rect class="cls-1" x="91.12" y="95.95" width="2.4" height="2.4"/>
      <rect class="cls-1" x="91.12" y="100.75" width="2.4" height="2.4"/>
      <rect class="cls-1" x="9.59" y="105.55" width="2.4" height="2.4"/>
      <rect class="cls-1" x="19.18" y="105.55" width="2.4" height="2.4"/>
      <rect class="cls-1" x="81.53" y="105.55" width="2.4" height="2.4"/>
      <rect class="cls-1" x="86.33" y="105.55" width="2.4" height="2.4"/>
      <rect class="cls-1" x="95.92" y="105.55" width="2.4" height="2.4"/>
      <rect class="cls-1" x="19.18" y="110.34" width="2.4" height="2.4"/>
      <rect class="cls-1" x="23.98" y="110.34" width="2.4" height="2.4"/>
      <rect class="cls-1" x="14.39" y="115.14" width="2.4" height="2.4"/>
      <rect class="cls-1" x="19.18" y="115.14" width="2.4" height="2.4"/>
      <rect class="cls-1" x="23.98" y="115.14" width="2.4" height="2.4"/>
      <rect class="cls-1" x="76.73" y="115.14" width="2.4" height="2.4"/>
      <rect class="cls-1" x="81.53" y="115.14" width="2.4" height="2.4"/>
      <rect class="cls-1" x="14.39" y="119.94" width="2.4" height="2.4"/>
      <rect class="cls-1" x="19.18" y="119.94" width="2.4" height="2.4"/>
      <rect class="cls-1" x="81.53" y="119.94" width="2.4" height="2.4"/>
      <rect class="cls-1" x="9.59" y="124.74" width="2.4" height="2.4"/>
      <rect class="cls-1" x="14.39" y="124.74" width="2.4" height="2.4"/>
      <rect class="cls-1" x="19.18" y="124.74" width="2.4" height="2.4"/>
      <rect class="cls-1" x="71.94" y="124.74" width="2.4" height="2.4"/>
      <rect class="cls-1" x="76.73" y="124.74" width="2.4" height="2.4"/>
      <rect class="cls-1" x="19.18" y="129.53" width="2.4" height="2.4"/>
      <rect class="cls-1" x="23.98" y="129.53" width="2.4" height="2.4"/>
      <rect class="cls-1" x="67.14" y="129.53" width="2.4" height="2.4"/>
      <rect class="cls-1" x="4.8" y="134.33" width="2.4" height="2.4"/>
      <rect class="cls-1" x="14.39" y="134.33" width="2.4" height="2.4"/>
      <rect class="cls-1" x="19.18" y="134.33" width="2.4" height="2.4"/>
      <rect class="cls-1" x="23.98" y="134.33" width="2.4" height="2.4"/>
      <rect class="cls-1" x="67.14" y="134.33" width="2.4" height="2.4"/>
      <rect class="cls-1" x="71.94" y="134.33" width="2.4" height="2.4"/>
      <rect class="cls-1" x="14.39" y="139.13" width="2.4" height="2.4"/>
      <rect class="cls-1" x="19.18" y="139.13" width="2.4" height="2.4"/>
      <rect class="cls-1" x="23.98" y="139.13" width="2.4" height="2.4"/>
      <rect class="cls-1" x="28.78" y="139.13" width="2.4" height="2.4"/>
      <path class="cls-1" d="M35.97,141.53c-.8-.01-1.6.01-2.4,0v-2.4s2.4,0,2.4,0c0,.8-.02,1.6,0,2.4.8.01,1.6.01,2.4,0,.01-.8-.01-1.6,0-2.4h2.4s0,2.4,0,2.4c-.8,0-1.6-.02-2.4,0-.01.8-.01,1.6,0,2.4.8.01,1.6-.01,2.4,0v2.4s-2.4,0-2.4,0c0-.8.02-1.6,0-2.4-.8-.01-1.6-.01-2.4,0-.01.8.01,1.6,0,2.4h-2.4s0-2.4,0-2.4c.8,0,1.6.02,2.4,0,.01-.8.01-1.6,0-2.4Z"/>
      <rect class="cls-1" x="67.14" y="139.13" width="2.4" height="2.4"/>
      <rect class="cls-1" x="71.94" y="139.13" width="2.4" height="2.4"/>
      <rect class="cls-1" y="143.93" width="2.4" height="2.4"/>
      <rect class="cls-1" x="9.59" y="143.93" width="2.4" height="2.4"/>
      <rect class="cls-1" x="14.39" y="143.93" width="2.4" height="2.4"/>
      <rect class="cls-1" x="19.18" y="143.93" width="2.4" height="2.4"/>
      <rect class="cls-1" x="23.98" y="143.93" width="2.4" height="2.4"/>
      <rect class="cls-1" x="28.78" y="143.93" width="2.4" height="2.4"/>
      <rect class="cls-1" x="62.35" y="143.93" width="2.4" height="2.4"/>
      <rect class="cls-1" x="67.14" y="143.93" width="2.4" height="2.4"/>
      <rect class="cls-1" x="76.73" y="143.93" width="2.4" height="2.4"/>
      <rect class="cls-1" x="19.18" y="148.72" width="2.4" height="2.4"/>
      <rect class="cls-1" x="28.78" y="148.72" width="2.4" height="2.4"/>
      <rect class="cls-1" x="38.37" y="148.72" width="2.4" height="2.4"/>
      <rect class="cls-1" x="43.16" y="148.72" width="2.4" height="2.4"/>
      <rect class="cls-1" x="47.96" y="148.72" width="2.4" height="2.4"/>
      <rect class="cls-1" x="52.75" y="148.72" width="2.4" height="2.4"/>
      <rect class="cls-1" x="57.55" y="148.72" width="2.4" height="2.4"/>
      <rect class="cls-1" x="67.14" y="148.72" width="2.4" height="2.4"/>
      <rect class="cls-1" x="4.8" y="153.52" width="2.4" height="2.4"/>
      <rect class="cls-1" x="14.39" y="153.52" width="2.4" height="2.4"/>
      <rect class="cls-1" x="23.98" y="153.52" width="2.4" height="2.4"/>
      <rect class="cls-1" x="28.78" y="153.52" width="2.4" height="2.4"/>
      <rect class="cls-1" x="33.57" y="153.52" width="2.4" height="2.4"/>
      <rect class="cls-1" x="38.37" y="153.52" width="2.4" height="2.4"/>
      <rect class="cls-1" x="43.16" y="153.52" width="2.4" height="2.4"/>
      <rect class="cls-1" x="47.96" y="153.52" width="2.4" height="2.4"/>
      <rect class="cls-1" x="52.75" y="153.52" width="2.4" height="2.4"/>
      <rect class="cls-1" x="57.55" y="153.52" width="2.4" height="2.4"/>
      <rect class="cls-1" x="62.35" y="153.52" width="2.4" height="2.4"/>
      <rect class="cls-1" x="71.94" y="153.52" width="2.4" height="2.4"/>
      <rect class="cls-1" x="14.39" y="158.32" width="2.4" height="2.4"/>
      <rect class="cls-1" x="23.98" y="158.32" width="2.4" height="2.4"/>
      <rect class="cls-1" x="33.57" y="158.32" width="2.4" height="2.4"/>
      <rect class="cls-1" x="38.37" y="158.32" width="2.4" height="2.4"/>
      <rect class="cls-1" x="43.16" y="158.32" width="2.4" height="2.4"/>
      <rect class="cls-1" x="47.96" y="158.32" width="2.4" height="2.4"/>
      <rect class="cls-1" x="52.75" y="158.32" width="2.4" height="2.4"/>
      <rect class="cls-1" x="57.55" y="158.32" width="2.4" height="2.4"/>
      <rect class="cls-1" x="62.35" y="158.32" width="2.4" height="2.4"/>
      <rect class="cls-1" x="71.94" y="158.32" width="2.4" height="2.4"/>
      <rect class="cls-1" x="9.59" y="163.12" width="2.4" height="2.4"/>
      <rect class="cls-1" x="19.18" y="163.12" width="2.4" height="2.4"/>
      <rect class="cls-1" x="28.78" y="163.12" width="2.4" height="2.4"/>
      <rect class="cls-1" x="33.57" y="163.12" width="2.4" height="2.4"/>
      <rect class="cls-1" x="38.37" y="163.12" width="2.4" height="2.4"/>
      <rect class="cls-1" x="43.16" y="163.12" width="2.4" height="2.4"/>
      <rect class="cls-1" x="47.96" y="163.12" width="2.4" height="2.4"/>
      <rect class="cls-1" x="52.75" y="163.12" width="2.4" height="2.4"/>
      <rect class="cls-1" x="57.55" y="163.12" width="2.4" height="2.4"/>
      <rect class="cls-1" x="62.35" y="163.12" width="2.4" height="2.4"/>
      <rect class="cls-1" x="67.14" y="163.12" width="2.4" height="2.4"/>
      <rect class="cls-1" x="76.73" y="163.12" width="2.4" height="2.4"/>
      <rect class="cls-1" x="28.78" y="167.91" width="2.4" height="2.4"/>
      <rect class="cls-1" x="38.37" y="167.91" width="2.4" height="2.4"/>
      <rect class="cls-1" x="47.96" y="167.91" width="2.4" height="2.4"/>
      <rect class="cls-1" x="57.55" y="167.91" width="2.4" height="2.4"/>
      <rect class="cls-1" x="67.14" y="167.91" width="2.4" height="2.4"/>
      <rect class="cls-1" x="14.39" y="172.71" width="2.4" height="2.4"/>
      <rect class="cls-1" x="23.98" y="172.71" width="2.4" height="2.4"/>
      <rect class="cls-1" x="33.57" y="172.71" width="2.4" height="2.4"/>
      <rect class="cls-1" x="43.16" y="172.71" width="2.4" height="2.4"/>
      <rect class="cls-1" x="47.96" y="172.71" width="2.4" height="2.4"/>
      <rect class="cls-1" x="52.75" y="172.71" width="2.4" height="2.4"/>
      <rect class="cls-1" x="57.55" y="172.71" width="2.4" height="2.4"/>
      <rect class="cls-1" x="62.35" y="172.71" width="2.4" height="2.4"/>
      <rect class="cls-1" x="67.14" y="172.71" width="2.4" height="2.4"/>
      <rect class="cls-1" x="71.94" y="172.71" width="2.4" height="2.4"/>
      <rect class="cls-1" x="33.57" y="177.51" width="2.4" height="2.4"/>
      <rect class="cls-1" x="43.16" y="177.51" width="2.4" height="2.4"/>
      <rect class="cls-1" x="52.75" y="177.51" width="2.4" height="2.4"/>
      <rect class="cls-1" x="57.55" y="177.51" width="2.4" height="2.4"/>
      <rect class="cls-1" x="62.35" y="177.51" width="2.4" height="2.4"/>
      <rect class="cls-1" x="71.94" y="177.51" width="2.4" height="2.4"/>
      <rect class="cls-1" x="9.59" y="182.31" width="2.4" height="2.4"/>
      <rect class="cls-1" x="19.18" y="182.31" width="2.4" height="2.4"/>
      <rect class="cls-1" x="28.78" y="182.31" width="2.4" height="2.4"/>
      <rect class="cls-1" x="38.37" y="182.31" width="2.4" height="2.4"/>
      <rect class="cls-1" x="43.16" y="182.31" width="2.4" height="2.4"/>
      <rect class="cls-1" x="47.96" y="182.31" width="2.4" height="2.4"/>
      <rect class="cls-1" x="52.75" y="182.31" width="2.4" height="2.4"/>
      <rect class="cls-1" x="57.55" y="182.31" width="2.4" height="2.4"/>
      <rect class="cls-1" x="62.35" y="182.31" width="2.4" height="2.4"/>
      <rect class="cls-1" x="67.14" y="182.31" width="2.4" height="2.4"/>
      <rect class="cls-1" x="71.94" y="182.31" width="2.4" height="2.4"/>
      <rect class="cls-1" x="76.73" y="182.31" width="2.4" height="2.4"/>
      <rect class="cls-1" x="38.37" y="187.1" width="2.4" height="2.4"/>
      <rect class="cls-1" x="47.96" y="187.1" width="2.4" height="2.4"/>
      <rect class="cls-1" x="52.75" y="187.1" width="2.4" height="2.4"/>
      <rect class="cls-1" x="57.55" y="187.1" width="2.4" height="2.4"/>
      <rect class="cls-1" x="62.35" y="187.1" width="2.4" height="2.4"/>
      <rect class="cls-1" x="67.14" y="187.1" width="2.4" height="2.4"/>
      <rect class="cls-1" x="33.57" y="191.9" width="2.4" height="2.4"/>
      <rect class="cls-1" x="43.16" y="191.9" width="2.4" height="2.4"/>
      <rect class="cls-1" x="47.96" y="191.9" width="2.4" height="2.4"/>
      <rect class="cls-1" x="52.75" y="191.9" width="2.4" height="2.4"/>
      <rect class="cls-1" x="57.55" y="191.9" width="2.4" height="2.4"/>
      <rect class="cls-1" x="62.35" y="191.9" width="2.4" height="2.4"/>
      <rect class="cls-1" x="67.14" y="191.9" width="2.4" height="2.4"/>
      <rect class="cls-1" x="71.94" y="191.9" width="2.4" height="2.4"/>
      <rect class="cls-1" x="81.53" y="191.9" width="2.4" height="2.4"/>
      <rect class="cls-1" x="33.57" y="196.7" width="2.4" height="2.4"/>
      <rect class="cls-1" x="43.16" y="196.7" width="2.4" height="2.4"/>
      <rect class="cls-1" x="47.96" y="196.7" width="2.4" height="2.4"/>
      <rect class="cls-1" x="71.94" y="196.7" width="2.4" height="2.4"/>
      <rect class="cls-1" x="81.53" y="196.7" width="2.4" height="2.4"/>
      <rect class="cls-1" x="28.78" y="201.5" width="2.4" height="2.4"/>
      <rect class="cls-1" x="38.37" y="201.5" width="2.4" height="2.4"/>
      <rect class="cls-1" x="43.16" y="201.5" width="2.4" height="2.4"/>
      <rect class="cls-1" x="47.96" y="201.5" width="2.4" height="2.4"/>
      <rect class="cls-1" x="71.94" y="201.5" width="2.4" height="2.4"/>
      <rect class="cls-1" x="76.73" y="201.5" width="2.4" height="2.4"/>
      <rect class="cls-1" x="86.33" y="201.5" width="2.4" height="2.4"/>
      <rect class="cls-1" x="38.37" y="206.29" width="2.4" height="2.4"/>
      <rect class="cls-1" x="43.16" y="206.29" width="2.4" height="2.4"/>
      <rect class="cls-1" x="76.73" y="206.29" width="2.4" height="2.4"/>
      <rect class="cls-1" x="33.57" y="211.09" width="2.4" height="2.4"/>
      <rect class="cls-1" x="38.37" y="211.09" width="2.4" height="2.4"/>
      <rect class="cls-1" x="43.16" y="211.09" width="2.4" height="2.4"/>
      <rect class="cls-1" x="76.73" y="211.09" width="2.4" height="2.4"/>
      <rect class="cls-1" x="81.53" y="211.09" width="2.4" height="2.4"/>
      <rect class="cls-1" x="33.57" y="215.89" width="2.4" height="2.4"/>
      <rect class="cls-1" x="38.37" y="215.89" width="2.4" height="2.4"/>
      <rect class="cls-1" x="81.53" y="215.89" width="2.4" height="2.4"/>
      <rect class="cls-1" x="129.49" width="2.4" height="2.4"/>
      <rect class="cls-1" x="139.08" width="2.4" height="2.4"/>
      <rect class="cls-1" x="19.18" y="220.69" width="2.4" height="2.4"/>
      <rect class="cls-1" x="28.78" y="220.69" width="2.4" height="2.4"/>
      <rect class="cls-1" x="33.57" y="220.69" width="2.4" height="2.4"/>
      <rect class="cls-1" x="38.37" y="220.69" width="2.4" height="2.4"/>
      <rect class="cls-1" x="81.53" y="220.69" width="2.4" height="2.4"/>
      <rect class="cls-1" x="86.33" y="220.69" width="2.4" height="2.4"/>
      <rect class="cls-1" x="95.92" y="220.69" width="2.4" height="2.4"/>
      <rect class="cls-1" x="28.78" y="225.48" width="2.4" height="2.4"/>
      <rect class="cls-1" x="86.33" y="225.48" width="2.4" height="2.4"/>
      <rect class="cls-1" x="119.9" y="4.8" width="2.4" height="2.4"/>
      <rect class="cls-1" x="129.49" y="4.8" width="2.4" height="2.4"/>
      <rect class="cls-1" x="33.57" y="230.28" width="2.4" height="2.4"/>
      <rect class="cls-1" x="139.08" y="4.8" width="2.4" height="2.4"/>
      <rect class="cls-1" x="86.33" y="230.28" width="2.4" height="2.4"/>
      <rect class="cls-1" x="91.12" y="230.28" width="2.4" height="2.4"/>
      <rect class="cls-1" x="33.57" y="235.08" width="2.4" height="2.4"/>
      <rect class="cls-1" x="91.12" y="235.08" width="2.4" height="2.4"/>
      <rect class="cls-1" x="105.51" y="9.6" width="2.4" height="2.4"/>
      <rect class="cls-1" x="115.1" y="9.6" width="2.4" height="2.4"/>
      <rect class="cls-1" x="28.78" y="239.88" width="2.4" height="2.4"/>
      <rect class="cls-1" x="38.37" y="239.88" width="2.4" height="2.4"/>
      <rect class="cls-1" x="91.12" y="239.88" width="2.4" height="2.4"/>
      <rect class="cls-1" x="95.92" y="239.88" width="2.4" height="2.4"/>
      <rect class="cls-1" x="105.51" y="239.88" width="2.4" height="2.4"/>
      <rect class="cls-1" x="38.37" y="244.67" width="2.4" height="2.4"/>
      <rect class="cls-1" x="95.92" y="244.67" width="2.4" height="2.4"/>
      <rect class="cls-1" x="119.9" y="9.6" width="2.4" height="2.4"/>
      <rect class="cls-1" x="124.69" y="9.6" width="2.4" height="2.4"/>
      <rect class="cls-1" x="43.16" y="249.47" width="2.4" height="2.4"/>
      <rect class="cls-1" x="95.92" y="249.47" width="2.4" height="2.4"/>
      <rect class="cls-1" x="100.71" y="249.47" width="2.4" height="2.4"/>
      <rect class="cls-1" x="43.16" y="254.27" width="2.4" height="2.4"/>
      <rect class="cls-1" x="100.71" y="254.27" width="2.4" height="2.4"/>
      <rect class="cls-1" x="129.49" y="9.6" width="2.4" height="2.4"/>
      <rect class="cls-1" x="134.28" y="9.6" width="2.4" height="2.4"/>
      <rect class="cls-1" x="38.37" y="259.07" width="2.4" height="2.4"/>
      <rect class="cls-1" x="47.96" y="259.07" width="2.4" height="2.4"/>
      <rect class="cls-1" x="100.71" y="259.07" width="2.4" height="2.4"/>
      <rect class="cls-1" x="105.51" y="259.07" width="2.4" height="2.4"/>
      <rect class="cls-1" x="115.1" y="259.07" width="2.4" height="2.4"/>
      <rect class="cls-1" x="57.55" y="263.86" width="2.4" height="2.4"/>
      <rect class="cls-1" x="62.35" y="263.86" width="2.4" height="2.4"/>
      <rect class="cls-1" x="105.51" y="263.86" width="2.4" height="2.4"/>
      <rect class="cls-1" x="143.88" y="9.6" width="2.4" height="2.4"/>
      <rect class="cls-1" x="52.75" y="268.66" width="2.4" height="2.4"/>
      <rect class="cls-1" x="62.35" y="268.66" width="2.4" height="2.4"/>
      <rect class="cls-1" x="105.51" y="268.66" width="2.4" height="2.4"/>
      <rect class="cls-1" x="110.3" y="268.66" width="2.4" height="2.4"/>
      <rect class="cls-1" x="71.94" y="273.46" width="2.4" height="2.4"/>
      <rect class="cls-1" x="110.3" y="273.46" width="2.4" height="2.4"/>
      <rect class="cls-1" x="57.55" y="278.26" width="2.4" height="2.4"/>
      <rect class="cls-1" x="67.14" y="278.26" width="2.4" height="2.4"/>
      <rect class="cls-1" x="76.73" y="278.26" width="2.4" height="2.4"/>
      <rect class="cls-1" x="105.51" y="14.39" width="2.4" height="2.4"/>
      <rect class="cls-1" x="110.3" y="278.26" width="2.4" height="2.4"/>
      <rect class="cls-1" x="115.1" y="278.26" width="2.4" height="2.4"/>
      <rect class="cls-1" x="124.69" y="278.26" width="2.4" height="2.4"/>
      <rect class="cls-1" x="76.73" y="283.05" width="2.4" height="2.4"/>
      <rect class="cls-1" x="86.33" y="283.05" width="2.4" height="2.4"/>
      <rect class="cls-1" x="115.1" y="283.05" width="2.4" height="2.4"/>
      <rect class="cls-1" x="81.53" y="287.85" width="2.4" height="2.4"/>
      <rect class="cls-1" x="91.12" y="287.85" width="2.4" height="2.4"/>
      <rect class="cls-1" x="129.49" y="287.85" width="2.4" height="2.4"/>
      <rect class="cls-1" x="91.12" y="292.65" width="2.4" height="2.4"/>
      <rect class="cls-1" x="100.71" y="292.65" width="2.4" height="2.4"/>
      <rect class="cls-1" x="124.69" y="292.65" width="2.4" height="2.4"/>
      <rect class="cls-1" x="129.49" y="292.65" width="2.4" height="2.4"/>
      <rect class="cls-1" x="86.33" y="297.45" width="2.4" height="2.4"/>
      <rect class="cls-1" x="95.92" y="297.45" width="2.4" height="2.4"/>
      <rect class="cls-1" x="100.71" y="297.45" width="2.4" height="2.4"/>
      <rect class="cls-1" x="105.51" y="297.45" width="2.4" height="2.4"/>
      <rect class="cls-1" x="119.9" y="297.45" width="2.4" height="2.4"/>
      <rect class="cls-1" x="124.69" y="297.45" width="2.4" height="2.4"/>
      <rect class="cls-1" x="129.49" y="297.45" width="2.4" height="2.4"/>
      <rect class="cls-1" x="134.28" y="297.45" width="2.4" height="2.4"/>
      <rect class="cls-1" x="143.88" y="297.45" width="2.4" height="2.4"/>
      <rect class="cls-1" x="105.51" y="302.24" width="2.4" height="2.4"/>
      <rect class="cls-1" x="110.3" y="302.24" width="2.4" height="2.4"/>
      <rect class="cls-1" x="115.1" y="302.24" width="2.4" height="2.4"/>
      <rect class="cls-1" x="119.9" y="302.24" width="2.4" height="2.4"/>
      <rect class="cls-1" x="124.69" y="302.24" width="2.4" height="2.4"/>
      <rect class="cls-1" x="134.28" y="302.24" width="2.4" height="2.4"/>
      <rect class="cls-1" x="100.71" y="307.04" width="2.4" height="2.4"/>
      <rect class="cls-1" x="110.3" y="307.04" width="2.4" height="2.4"/>
      <rect class="cls-1" x="119.9" y="307.04" width="2.4" height="2.4"/>
      <rect class="cls-1" x="129.49" y="307.04" width="2.4" height="2.4"/>
      <rect class="cls-1" x="139.08" y="307.04" width="2.4" height="2.4"/>
      <rect class="cls-1" x="119.9" y="311.84" width="2.4" height="2.4"/>
      <rect class="cls-1" x="129.49" y="311.84" width="2.4" height="2.4"/>
      <rect class="cls-1" x="139.08" y="311.84" width="2.4" height="2.4"/>
      <rect class="cls-1" x="115.1" y="316.64" width="2.4" height="2.4"/>
      <rect class="cls-1" x="124.69" y="316.64" width="2.4" height="2.4"/>
      <rect class="cls-1" x="134.28" y="316.64" width="2.4" height="2.4"/>
      <rect class="cls-1" x="143.88" y="316.64" width="2.4" height="2.4"/>
    </g>
  </g>
</svg>