<?xml version="1.0" encoding="UTF-8"?>
<svg id="Capa_2" data-name="Capa 2" xmlns="http://www.w3.org/2000/svg" viewBox="0 0 760.13 648.83">
  <defs>
    <style>
      .cls-1 {
        fill: #fff;
      }
    </style>
  </defs>
  <g id="Capa_2-2" data-name="Capa 2">
    <g>
      <path class="cls-1" d="M413.07,195.47c-.09-11.56-.18-23.11-.27-34.67.18-17.78.36-35.56.53-53.33.62-11.38,1.24-22.76,1.87-34.13.61-7.05,2.1-15.47,5.33-24.53.71-2.01,3.97-10.92,10.67-21.33,5.47-8.5,10.78-14.18,12.8-16.27,3.49-3.62,6.75-6.45,9.33-8.53-2.32-.14-5.55-.13-9.33.53-3.08.54-6.85,1.58-12.27,4.27-6.39,3.17-7.34,4.81-17.33,11.47-7.08,4.72-10.7,7.11-14.4,8.27-7.59,2.38-14.17,1.46-16.8,1.07-10.13-1.53-13.76-5.99-24.53-11.47,0,0-12.19-6.2-27.2-9.07-9.48-1.81-22.79-4.36-37.87.8-14.43,4.94-23.03,14.38-29.6,21.6-3.86,4.24-11.28,12.54-16.53,25.6-5.66,14.09-6,26.73-6.13,34.13-.07,4.1.1,7.51.27,9.87,1.15-3.88,3.09-9.26,6.4-15.2,3.13-5.62,6.99-12.54,14.4-18.13,9.43-7.12,19.41-8.17,25.33-8.8,12.41-1.31,22.54,1.49,28.53,3.73-6.58,6.55-15.94,16.87-24.84,31.09-10.59,16.93-15.32,31.23-24.76,59.84,0,0-7.91,24.13-14.93,52.53-3.42,13.83-6.97,29.87-7.73,33.33-2.13,9.66-3.84,17.79-5.07,23.73-2.93-10.13-5.87-20.27-8.8-30.4l-15.2-59.73c-5.24-17.14-10.48-34.27-15.72-51.41-.72-2.35-1.33-4.73-1.84-7.13-1.32-6.31-2.65-12.61-3.97-18.92-.69-3.29-1.17-6.62-1.4-9.97-.62-9.15-.14-16.89.53-22.7.81-6.96,1.73-14.83,5.6-24.53,4.27-10.7,9.95-18.19,13.6-22.93,3.46-4.5,6.69-7.99,9.07-10.4-3.91,1.78-7.82,3.56-11.73,5.33-3.04,2.06-7.49,4.93-13.07,8-9.54,5.26-15.6,8.6-24.27,10.4-3.44.71-11.18,2.25-20.53.53-8.35-1.53-12.12-4.56-21.33-9.33-6.07-3.14-19.41-10.04-33.87-13.07-7.03-1.47-19.88-4.01-34.93.27-15.59,4.43-25.11,13.77-32,20.53-2.99,2.93-14.71,14.82-22.4,34.13C1.39,73.78.45,84.4.27,86.67c-.64,8.04-.02,14.86.77,19.82.56-3.73,4.14-25.23,23.9-38.75,2.23-1.53,18.04-12.01,38.8-9.2,6.59.89,17.91,2.43,26,12,5.91,6.99,7.23,14.9,7.6,18.8v36c.13,20.27.27,40.53.4,60.8-.27,17.47-.53,34.93-.8,52.4-.02,4.21-.54,10.81-3.33,18.27-3.08,8.21-7.44,13.51-10.53,17.2-1.11,1.32-6.33,7.46-15.07,13.47-6.04,4.16-11.68,6.82-16,8.53,3.46.9,8.12,2.39,13.33,4.93,2.96,1.44,6.97,3.43,11.33,6.93,1.46,1.17,7.16,5.89,12,14,5.57,9.33,7.12,18.32,7.6,23.73.09,12.09.18,24.18.27,36.27.09,17.78.18,35.56.27,53.33.09,17.33.18,34.67.27,52-.04,7.38-.09,14.76-.13,22.13.05,5.25-.41,12.68-2.8,21.2-1.61,5.73-4.87,14.76-11.6,24-4.22,5.8-5.28,5.45-20.6,20.2-9.7,9.34-14.64,14.12-19,19.8-6.96,9.06-10.82,16.88-12.2,19.8-4.7,9.94-6.7,18.22-7.4,21.4-.83,3.78-1.31,7.01-1.6,9.4,2.2-3.4,4.4-6.8,6.6-10.2,2.75-3.94,6.92-9.27,12.8-14.8,9.8-9.21,19.13-14.02,25.4-17.2,5.79-2.94,12.8-6.43,22.8-8.8,6.08-1.44,14.02-3.25,24.4-2.2,10.84,1.1,18.67,4.74,23.4,7,2.03.97,8.9,4.35,16.6,10.6,4.44,3.61,9.68,7.93,14.4,15.2,2.85,4.38,4.57,8.39,5.6,11.2.93-4.13,1.87-8.27,2.8-12.4,1.34-2.97,3.62-7.54,7.2-12.6,4.48-6.33,7.08-7.9,15-16.4,2.46-2.63.86-1.04,15.4-18,7.93-9.25,9.7-11.24,12.5-15.2,4.06-5.75,6.86-10.81,8.6-14.2-2.83,2.4-5.67,4.8-8.5,7.2-3.18,2.29-7.7,5.14-13.5,7.6-3.96,1.68-12.15,5.07-23,5.4-5.51.17-19.48.6-32.1-8.7-8.13-5.99-12.07-13.34-14.13-17.3-4.46-8.54-5.73-16.41-6.13-21.2.04-12.93.09-25.87.13-38.8.04-23.38.09-46.76.13-70.13l-.27-67.47c-.09-32.18-.18-64.36-.27-96.53.18-20.27.36-40.53.53-60.8.36-12.8.71-25.6,1.07-38.4.44-6.58.89-13.16,1.33-19.73,6.49,18.31,12.98,36.62,19.47,54.93,6.4,19.02,12.8,38.04,19.2,57.07,5.24,15.38,10.49,30.76,15.73,46.13,4.62,14.04,9.24,28.09,13.87,42.13,2.04,6.67,4.09,13.33,6.13,20,1.4,4.49,3.15,11.18,4,19.47,1.01,9.85,1.99,19.47-2.4,30.4-3.82,9.49-9.79,15.25-11.47,16.8-5.07,4.69-9.4,6.76-10.4,7.2-3.13,1.39-5.95,2.05-8,2.4,2.77.91,6.81,2.51,11.2,5.33,4.86,3.13,7.89,6.31,12,10.67,3.25,3.45,7.25,7.7,11.2,13.6,5.11,7.63,7.27,13.74,11.47,25.6,4.69,13.26,6.67,23.13,7.2,25.87,1.1,5.68,1.74,10.6,2.13,14.4.93-7.77,2.35-14.9,4-21.33,1.22-4.76,3.36-12.21,6.93-21.07,2.97-7.35,5.87-14.53,11.47-22.93,5.47-8.21,10.75-13.46,13.87-16.53,6.9-6.8,11.21-9.28,13.33-10.4,3.38-1.78,6.39-2.83,8.53-3.47-2.33-.13-5.87-.62-9.73-2.4-4.54-2.09-7.23-4.91-9.87-7.73-6.49-6.95-9.43-13.93-10-15.33-3.1-7.58-3.55-14.32-3.6-21.6-.12-18.71,2.5-33.84,4-42,2.59-14.11,4.03-19.34,8.27-38.8,5.64-25.92,5.02-25.48,8.93-43.07,1.25-5.6,2.45-10.75,3.64-15.66.2-.84.52-2.16.94-3.87,4.38-17.79,9.55-35.94,9.55-35.94,9.55-33.53,14.41-50.5,19.03-59.98,5.41-11.11,11.78-21.35,23.01-29.42,4.3-3.09,8.26-5.1,11.03-6.34.82,10.62,1.41,22.07,1.74,34.28.22,7.92.07,8.39.12,38.52.05,28.21.08,36.39-.27,49.73-.21,8.05-.52,16.29-.53,16.67-.31,8.15-.57,13.3-1.33,29.6-.23,4.8-.57,12.23-.8,17.13-1.36,1.48-3.34,3.44-6,5.4-5.7,4.21-10.99,5.88-14,6.8-10.75,3.29-20.7,2.45-26.2,1.6,2.41,1.85,5.75,4.18,10,6.4,3.12,1.63,8.06,4.22,14.6,5.6,3.38.71,13.84,2.93,24.4-1.6,3.66-1.57,6.11-3.42,13-9.8,12.93-11.97,15.81-16.11,23.8-23.6,7.17-6.72,14.42-13.51,25.87-19.67,10.55-5.67,20.02-8.3,24.8-9.6,6.17-1.68,11.55-3.14,18.93-3.6,4.39-.28,17.33-.69,32.27,5.07,6.14,2.37,11.25,5.58,21.47,12,7.46,4.69,12.22,7.68,18.13,12.67,5.23,4.41,9.4,8.72,17.6,17.2,4.39,4.53,7.09,7.76,12.27,11.47,5.66,4.05,9.53,5.39,11.47,5.97,1.04.31,4.48,1.27,11,1.3,3.98.02,13.79-.28,25.8-4.7,3.34-1.23,7.97-3.19,13.2-6.3-3.13.83-7.47,1.66-12.67,1.73-1.72.02-10.28-.18-19.47-3.47-8.94-3.2-13.61-8.39-23.6-18.53-2.64-2.68-15.94-16.19-26-25.47-14.82-13.66-23.66-21.67-37.87-27.67-11.38-4.81-21.04-6.15-26-6.8-6.21-.82-20.54-2.15-38.2,1.8-12.66,2.83-22.83,7.43-30.24,11.59.25-7.23.5-14.46.74-21.69-.06-5.66-.11-11.31-.17-16.97Z"/>
      <path class="cls-1" d="M355.73,352.53c10.37,15.75,20.19,26.8,27.47,34.13,2.72,2.74,9.43,9.36,17.07,19.2,5.19,6.69,9.31,12.95,12,21.33,1.43,4.46,2.1,8.81,2.13,9.07.51,3.54.6,6.63.53,9.07.09,7.78.18,15.56.27,23.33-.09,8.44-.18,16.89-.27,25.33-.41,11.45-.19,20.81.13,27.6.29,6.16.64,9.63,1.2,13.2.86,5.49,1.8,11.29,4.8,18.27,3.1,7.22,6.82,12.02,7.87,13.33,4.4,5.53,8.82,8.9,12.53,11.73,3.5,2.67,6.63,4.64,8.93,6-2.19.82-5.24,2.17-8.53,4.4-4.74,3.21-7.52,6.57-10.53,10.27-5.73,7.04-8.87,13.38-9.87,15.47-3.19,6.69-4.91,12.86-5.87,17.73-.59-2.64-1.73-6.55-4.13-10.8-2.28-4.02-4.79-6.6-9.73-11.6-5.72-5.78-8.58-8.68-12.67-10.8-4.17-2.17-7.62-2.81-12.53-3.73-4.41-.83-10.84-1.98-18.93-1.07-7.57.86-12.81,3.1-20.53,6.4-7.35,3.14-12.64,6.34-15.07,7.87-6.4,4.03-10.79,7.77-12.13,8.93-5.21,4.51-8.63,8.46-11.2,11.47-2.84,3.31-6,7.34-9.2,12.13.39-2.76,1.11-6.82,2.53-11.6.74-2.48,3.84-12.49,13.2-26.4,3.92-5.83,7.28-9.79,13.83-17.47,8.71-10.2,11.52-11.68,19.1-21.1,4.99-6.2,7.84-9.73,10.7-15.2,4.54-8.67,6.27-16.73,7-22.2.23-17.57.47-35.13.7-52.7-.18-15.82-.36-31.64-.53-47.47v-29.07c-.09-15.02-.18-30.04-.27-45.07Z"/>
      <path class="cls-1" d="M516.03,390.51c-6.93,4.6-10.05,6.97-26.3,10.83-17.74,4.21-32.52,1.54-39.2.27-12.71-2.43-21.74-6.7-26.67-9.07-16.3-7.84-26.98-17.58-35.07-25.07-9.79-9.06-9.93-11.16-24.4-24.8-3.9-3.68-9.87-9.16-18-15.47-3.82-2.96-7.13-5.35-9.6-7.07,2.32.89,7.97,2.69,15,1.27,5.84-1.18,9.82-4.03,11.73-5.6,3.48,2.93,8.83,7.59,15,13.73,9.57,9.52,11.5,13.02,18.8,19.6,8.18,7.37,15.45,11.72,21,15,10.15,6,18.46,10.91,30.6,13.6,2.94.65,16.41,3.46,33.6.2,16.25-3.08,27.26-9.96,35-14.8,4.28-2.67,14.72-9.29,25-20.2,3.27-3.47,5.91-6.56,12.93-13.87,5.21-5.42,9.6-9.76,12.53-12.6.79.78,2.62,1.56,4.33,2.46,2.14,1.13,6.18,2.42,10.1,2.5,4.41.09,7-.58,10.9-1.6,9.55-2.5,9-2.65,12.5-4.1-3.65,4-4.69,5.56-10.1,9.34-.35.24-1.81,1.29-2.15,1.52-6.35,4.3-9.14,10.58-9.44,18.24,0,.06,0,.12,0,.17-.23,6.04,0,10.29,0,14.2-.03,12.02-.13,23.72-.13,24.13-.08,9.69.02,27.46.8,62.8-.18,24.27-.36,48.53-.53,72.8-.29,6-1.56,10.78-2.67,14-1.39,4.04-3.43,9.79-8.67,14.93-1.15,1.13-2.19,1.97-2.93,2.53,1.88.2,4.65.49,8,.8,19.68,1.82,29.51,2.73,38.13,1.47,7.91-1.16,17.51-2.56,26-10,8.77-7.68,12.09-18.06,13.87-23.6,1.99-6.22,2.68-11.63,2.93-15.33-.09-6.92-.18-17.12-.1-29.5.12-17.68.18-26.52.9-34.5,1.02-11.36,2.28-25.22,8-41.6,2.96-8.47,3.39-6.96,15.2-33.33,6.3-14.07,9.47-21.19,10.67-25.87,3.85-15.02,2.78-27.49,1.87-38.13-1.15-13.4-3.89-23.83-5.87-31.2-2.11-7.88-4.35-14.41-6.13-19.2,2.96,3.94,7.03,9.64,11.47,16.8,1.95,3.14,7.69,12.6,14.13,26.4,6.19,13.27,5.47,14.38,10.93,24.8,4.65,8.88,8.84,15.08,11.47,18.93,5.94,8.72,9.17,13.4,14.87,18.4,5.25,4.61,10.31,7.48,13.8,9.2-3.29-.05-8.73.32-14.6,3-9.15,4.18-13.74,11.42-16.2,15.4-3.94,6.39-5.45,12.22-7,19.8-4.48,21.92-5.2,37.6-5.2,37.6-.9,19.4.17,33.51,2,56.8,1.95,24.72,3.75,34.58,4.4,38,4.53,23.84,9.85,33.62,13.67,39.4,4.78,7.25,9.95,12.41,13.73,15.73-3.65-.28-9.13-.29-15.47,1.33-6.62,1.7-11.13,4.39-14,6.13-4.92,2.99-16,9.92-22.53,23.6-.84,1.76-3.84,8.3-4.9,17.4-.45,3.89-.43,7.21-.3,9.7-1.3-3.4-3.6-8.31-7.7-13.3-.72-.87-2.95-3.53-9.1-8.6-3.71-3.06-8.89-7.3-16.2-11.7-1.84-1.11-8.22-4.87-23.8-10.9-7.99-3.09-16.4-6.34-27.7-9.4-10.5-2.84-24.75-6.69-43.7-7.2-9.86-.26-24.78-.54-43.2,5-17.44,5.25-29.6,13.17-35,17-5.33,3.77-13.75,10.41-22.2,20.4-3.63,4.29-6.41,8.19-8.4,11.2.29-2.65.88-6.43,2.2-10.8,3.13-10.4,8.28-17.27,12.8-23.2,12.19-15.96,15.04-18.82,22-28,10.06-13.27,15.18-20.11,19.2-30.2,4.1-10.29,5.36-19.45,5.8-25.4.73-9.96.77-15.9,0-32.6-1.92-41.44-1.13-49.8-1.13-59.93"/>
      <path class="cls-1" d="M478.93,3.2c3.46,2.86,7.91,6.91,12.53,12.27,9.33,10.8,13.99,20.63,14.93,22.67,4.48,9.66,6.22,17.88,7.47,24,.99,4.85,1.54,8.99,1.87,12,.62,10.13,1.24,20.27,1.87,30.4.18,13.51.36,27.02.53,40.53l-.27,36c-.23,3.96-.13,10.04,1.87,17.07.61,2.15,2.63,8.71,7.73,16,4.42,6.31,7.42,7.84,13.87,14.13,6.85,6.68,4.67,6.13,17.07,20.53,9.07,10.54,12.77,13.77,20,23.47,2.55,3.42,4.55,6.31,5.87,8.27-.09-6.4-.18-12.8-.27-19.2v-108.27c.36-19.64.71-39.29,1.07-58.93.27-8.36.53-16.71.8-25.07.64-4.22,1.69-10.12,3.47-17.07,1.83-7.13,3.55-13.88,7.47-22.13,2.24-4.72,5.28-11.03,11.2-17.87,4.95-5.72,9.97-9.58,13.6-12-3.73,1.14-8.66,2.73-14.4,4.8-1.61.58-7.41,2.68-15.73,6.13-12.35,5.12-12.38,5.79-17.87,7.73-9.45,3.35-17.3,4.16-21.07,4.53-16.32,1.6-28.88-1.57-32-2.4-4.75-1.27-11.7-4.31-25.6-10.4-6.67-2.92-12.18-5.43-16-7.2Z"/>
      <path class="cls-1" d="M483.96,302.27c-1.53-10.53-5.14-18.05-7.6-23.07-3.31-6.75-6.92-11.97-9.73-15.6-2.55,2.72-5.75,6.57-8.8,11.6-5.19,8.55-7.27,16.13-8,19.07-2.81,11.36-1.87,20.5-1.33,25.33,1.07,9.56,3.64,16.58,4.67,19.2,1.06,2.72,3.81,9.24,9.07,16.53,1.83,2.54,3.52,4.56,4.8,6,1.57-2.24,3.62-5.35,5.8-9.2,2.74-4.85,6.73-11.9,9.27-21.2,3.78-13.85,2.34-25.39,1.87-28.67ZM469.43,320.13c-.2,4.58-.44,9.49-1.3,16-.52,3.95-1.12,7.27-1.6,9.7-1.3-4.41-2.65-9.91-3.6-16.3-1.25-8.41-1.36-15.27-1.3-19.4.14-8.78,1.22-15.58,1.8-18.8.83-4.58,1.82-8.46,2.7-11.5.61,2.07,1.36,4.94,2,8.4.31,1.66,1.03,5.85,1.4,13.4.37,7.6.13,13.36-.1,18.5Z"/>
      <path class="cls-1" d="M371.47,312.47c23.13-3.4,34.47-36.93,77.27-51.8-14.6,26.53-25.64,57.81,6.87,106.4-48.09-6.93-55.2-48.4-84.13-54.6Z"/>
      <path class="cls-1" d="M561.07,312.47c-23.13-3.4-34.47-36.93-77.27-51.8,14.6,26.53,25.64,57.81-6.87,106.4,48.09-6.93,55.2-48.4,84.13-54.6Z"/>
    </g>
    <g>
      <path class="cls-1" d="M413.07,195.47c-.09-11.56-.18-23.11-.27-34.67.18-17.78.36-35.56.53-53.33.62-11.38,1.24-22.76,1.87-34.13.61-7.05,2.1-15.47,5.33-24.53.71-2.01,3.97-10.92,10.67-21.33,5.47-8.5,10.78-14.18,12.8-16.27,3.49-3.62,6.75-6.45,9.33-8.53-2.32-.14-5.55-.13-9.33.53-3.08.54-6.85,1.58-12.27,4.27-6.39,3.17-7.34,4.81-17.33,11.47-7.08,4.72-10.7,7.11-14.4,8.27-7.59,2.38-14.17,1.46-16.8,1.07-10.13-1.53-13.76-5.99-24.53-11.47,0,0-12.19-6.2-27.2-9.07-9.48-1.81-22.79-4.36-37.87.8-14.43,4.94-23.03,14.38-29.6,21.6-3.86,4.24-11.28,12.54-16.53,25.6-5.66,14.09-6,26.73-6.13,34.13-.07,4.1.1,7.51.27,9.87,1.15-3.88,3.09-9.26,6.4-15.2,3.13-5.62,6.99-12.54,14.4-18.13,9.43-7.12,19.41-8.17,25.33-8.8,12.41-1.31,22.54,1.49,28.53,3.73-6.58,6.55-15.94,16.87-24.84,31.09-10.59,16.93-15.32,31.23-24.76,59.84,0,0-7.91,24.13-14.93,52.53-3.42,13.83-6.97,29.87-7.73,33.33-2.13,9.66-3.84,17.79-5.07,23.73-2.93-10.13-5.87-20.27-8.8-30.4l-15.2-59.73c-5.24-17.14-10.48-34.27-15.72-51.41-.72-2.35-1.33-4.73-1.84-7.13-1.32-6.31-2.65-12.61-3.97-18.92-.69-3.29-1.17-6.62-1.4-9.97-.62-9.15-.14-16.89.53-22.7.81-6.96,1.73-14.83,5.6-24.53,4.27-10.7,9.95-18.19,13.6-22.93,3.46-4.5,6.69-7.99,9.07-10.4-3.91,1.78-7.82,3.56-11.73,5.33-3.04,2.06-7.49,4.93-13.07,8-9.54,5.26-15.6,8.6-24.27,10.4-3.44.71-11.18,2.25-20.53.53-8.35-1.53-12.12-4.56-21.33-9.33-6.07-3.14-19.41-10.04-33.87-13.07-7.03-1.47-19.88-4.01-34.93.27-15.59,4.43-25.11,13.77-32,20.53-2.99,2.93-14.71,14.82-22.4,34.13C1.39,73.78.45,84.4.27,86.67c-.64,8.04-.02,14.86.77,19.82.56-3.73,4.14-25.23,23.9-38.75,2.23-1.53,18.04-12.01,38.8-9.2,6.59.89,17.91,2.43,26,12,5.91,6.99,7.23,14.9,7.6,18.8v36c.13,20.27.27,40.53.4,60.8-.27,17.47-.53,34.93-.8,52.4-.02,4.21-.54,10.81-3.33,18.27-3.08,8.21-7.44,13.51-10.53,17.2-1.11,1.32-6.33,7.46-15.07,13.47-6.04,4.16-11.68,6.82-16,8.53,3.46.9,8.12,2.39,13.33,4.93,2.96,1.44,6.97,3.43,11.33,6.93,1.46,1.17,7.16,5.89,12,14,5.57,9.33,7.12,18.32,7.6,23.73.09,12.09.18,24.18.27,36.27.09,17.78.18,35.56.27,53.33.09,17.33.18,34.67.27,52-.04,7.38-.09,14.76-.13,22.13.05,5.25-.41,12.68-2.8,21.2-1.61,5.73-4.87,14.76-11.6,24-4.22,5.8-5.28,5.45-20.6,20.2-9.7,9.34-14.64,14.12-19,19.8-6.96,9.06-10.82,16.88-12.2,19.8-4.7,9.94-6.7,18.22-7.4,21.4-.83,3.78-1.31,7.01-1.6,9.4,2.2-3.4,4.4-6.8,6.6-10.2,2.75-3.94,6.92-9.27,12.8-14.8,9.8-9.21,19.13-14.02,25.4-17.2,5.79-2.94,12.8-6.43,22.8-8.8,6.08-1.44,14.02-3.25,24.4-2.2,10.84,1.1,18.67,4.74,23.4,7,2.03.97,8.9,4.35,16.6,10.6,4.44,3.61,9.68,7.93,14.4,15.2,2.85,4.38,4.57,8.39,5.6,11.2.93-4.13,1.87-8.27,2.8-12.4,1.34-2.97,3.62-7.54,7.2-12.6,4.48-6.33,7.08-7.9,15-16.4,2.46-2.63.86-1.04,15.4-18,7.93-9.25,9.7-11.24,12.5-15.2,4.06-5.75,6.86-10.81,8.6-14.2-2.83,2.4-5.67,4.8-8.5,7.2-3.18,2.29-7.7,5.14-13.5,7.6-3.96,1.68-12.15,5.07-23,5.4-5.51.17-19.48.6-32.1-8.7-8.13-5.99-12.07-13.34-14.13-17.3-4.46-8.54-5.73-16.41-6.13-21.2.04-12.93.09-25.87.13-38.8.04-23.38.09-46.76.13-70.13l-.27-67.47c-.09-32.18-.18-64.36-.27-96.53.18-20.27.36-40.53.53-60.8.36-12.8.71-25.6,1.07-38.4.44-6.58.89-13.16,1.33-19.73,6.49,18.31,12.98,36.62,19.47,54.93,6.4,19.02,12.8,38.04,19.2,57.07,5.24,15.38,10.49,30.76,15.73,46.13,4.62,14.04,9.24,28.09,13.87,42.13,2.04,6.67,4.09,13.33,6.13,20,1.4,4.49,3.15,11.18,4,19.47,1.01,9.85,1.99,19.47-2.4,30.4-3.82,9.49-9.79,15.25-11.47,16.8-5.07,4.69-9.4,6.76-10.4,7.2-3.13,1.39-5.95,2.05-8,2.4,2.77.91,6.81,2.51,11.2,5.33,4.86,3.13,7.89,6.31,12,10.67,3.25,3.45,7.25,7.7,11.2,13.6,5.11,7.63,7.27,13.74,11.47,25.6,4.69,13.26,6.67,23.13,7.2,25.87,1.1,5.68,1.74,10.6,2.13,14.4.93-7.77,2.35-14.9,4-21.33,1.22-4.76,3.36-12.21,6.93-21.07,2.97-7.35,5.87-14.53,11.47-22.93,5.47-8.21,10.75-13.46,13.87-16.53,6.9-6.8,11.21-9.28,13.33-10.4,3.38-1.78,6.39-2.83,8.53-3.47-2.33-.13-5.87-.62-9.73-2.4-4.54-2.09-7.23-4.91-9.87-7.73-6.49-6.95-9.43-13.93-10-15.33-3.1-7.58-3.55-14.32-3.6-21.6-.12-18.71,2.5-33.84,4-42,2.59-14.11,4.03-19.34,8.27-38.8,5.64-25.92,5.02-25.48,8.93-43.07,1.25-5.6,2.45-10.75,3.64-15.66.2-.84.52-2.16.94-3.87,4.38-17.79,9.55-35.94,9.55-35.94,9.55-33.53,14.41-50.5,19.03-59.98,5.41-11.11,11.78-21.35,23.01-29.42,4.3-3.09,8.26-5.1,11.03-6.34.82,10.62,1.41,22.07,1.74,34.28.22,7.92.07,8.39.12,38.52.05,28.21.08,36.39-.27,49.73-.21,8.05-.52,16.29-.53,16.67-.31,8.15-.57,13.3-1.33,29.6-.23,4.8-.57,12.23-.8,17.13-1.36,1.48-3.34,3.44-6,5.4-5.7,4.21-10.99,5.88-14,6.8-10.75,3.29-20.7,2.45-26.2,1.6,2.41,1.85,5.75,4.18,10,6.4,3.12,1.63,8.06,4.22,14.6,5.6,3.38.71,13.84,2.93,24.4-1.6,3.66-1.57,6.11-3.42,13-9.8,12.93-11.97,15.81-16.11,23.8-23.6,7.17-6.72,14.42-13.51,25.87-19.67,10.55-5.67,20.02-8.3,24.8-9.6,6.17-1.68,11.55-3.14,18.93-3.6,4.39-.28,17.33-.69,32.27,5.07,6.14,2.37,11.25,5.58,21.47,12,7.46,4.69,12.22,7.68,18.13,12.67,5.23,4.41,9.4,8.72,17.6,17.2,4.39,4.53,7.09,7.76,12.27,11.47,5.66,4.05,9.53,5.39,11.47,5.97,1.04.31,4.48,1.27,11,1.3,3.98.02,13.79-.28,25.8-4.7,3.34-1.23,7.97-3.19,13.2-6.3-3.13.83-7.47,1.66-12.67,1.73-1.72.02-10.28-.18-19.47-3.47-8.94-3.2-13.61-8.39-23.6-18.53-2.64-2.68-15.94-16.19-26-25.47-14.82-13.66-23.66-21.67-37.87-27.67-11.38-4.81-21.04-6.15-26-6.8-6.21-.82-20.54-2.15-38.2,1.8-12.66,2.83-22.83,7.43-30.24,11.59.25-7.23.5-14.46.74-21.69-.06-5.66-.11-11.31-.17-16.97Z"/>
      <path class="cls-1" d="M355.73,352.53c10.37,15.75,20.19,26.8,27.47,34.13,2.72,2.74,9.43,9.36,17.07,19.2,5.19,6.69,9.31,12.95,12,21.33,1.43,4.46,2.1,8.81,2.13,9.07.51,3.54.6,6.63.53,9.07.09,7.78.18,15.56.27,23.33-.09,8.44-.18,16.89-.27,25.33-.41,11.45-.19,20.81.13,27.6.29,6.16.64,9.63,1.2,13.2.86,5.49,1.8,11.29,4.8,18.27,3.1,7.22,6.82,12.02,7.87,13.33,4.4,5.53,8.82,8.9,12.53,11.73,3.5,2.67,6.63,4.64,8.93,6-2.19.82-5.24,2.17-8.53,4.4-4.74,3.21-7.52,6.57-10.53,10.27-5.73,7.04-8.87,13.38-9.87,15.47-3.19,6.69-4.91,12.86-5.87,17.73-.59-2.64-1.73-6.55-4.13-10.8-2.28-4.02-4.79-6.6-9.73-11.6-5.72-5.78-8.58-8.68-12.67-10.8-4.17-2.17-7.62-2.81-12.53-3.73-4.41-.83-10.84-1.98-18.93-1.07-7.57.86-12.81,3.1-20.53,6.4-7.35,3.14-12.64,6.34-15.07,7.87-6.4,4.03-10.79,7.77-12.13,8.93-5.21,4.51-8.63,8.46-11.2,11.47-2.84,3.31-6,7.34-9.2,12.13.39-2.76,1.11-6.82,2.53-11.6.74-2.48,3.84-12.49,13.2-26.4,3.92-5.83,7.28-9.79,13.83-17.47,8.71-10.2,11.52-11.68,19.1-21.1,4.99-6.2,7.84-9.73,10.7-15.2,4.54-8.67,6.27-16.73,7-22.2.23-17.57.47-35.13.7-52.7-.18-15.82-.36-31.64-.53-47.47v-29.07c-.09-15.02-.18-30.04-.27-45.07Z"/>
      <path class="cls-1" d="M516.03,390.51c-6.93,4.6-10.05,6.97-26.3,10.83-17.74,4.21-32.52,1.54-39.2.27-12.71-2.43-21.74-6.7-26.67-9.07-16.3-7.84-26.98-17.58-35.07-25.07-9.79-9.06-9.93-11.16-24.4-24.8-3.9-3.68-9.87-9.16-18-15.47-3.82-2.96-7.13-5.35-9.6-7.07,2.32.89,7.97,2.69,15,1.27,5.84-1.18,9.82-4.03,11.73-5.6,3.48,2.93,8.83,7.59,15,13.73,9.57,9.52,11.5,13.02,18.8,19.6,8.18,7.37,15.45,11.72,21,15,10.15,6,18.46,10.91,30.6,13.6,2.94.65,16.41,3.46,33.6.2,16.25-3.08,27.26-9.96,35-14.8,4.28-2.67,14.72-9.29,25-20.2,3.27-3.47,5.91-6.56,12.93-13.87,5.21-5.42,9.6-9.76,12.53-12.6.79.78,2.62,1.56,4.33,2.46,2.14,1.13,6.18,2.42,10.1,2.5,4.41.09,7-.58,10.9-1.6,9.55-2.5,9-2.65,12.5-4.1-3.65,4-4.69,5.56-10.1,9.34-.35.24-1.81,1.29-2.15,1.52-6.35,4.3-9.14,10.58-9.44,18.24,0,.06,0,.12,0,.17-.23,6.04,0,10.29,0,14.2-.03,12.02-.13,23.72-.13,24.13-.08,9.69.02,27.46.8,62.8-.18,24.27-.36,48.53-.53,72.8-.29,6-1.56,10.78-2.67,14-1.39,4.04-3.43,9.79-8.67,14.93-1.15,1.13-2.19,1.97-2.93,2.53,1.88.2,4.65.49,8,.8,19.68,1.82,29.51,2.73,38.13,1.47,7.91-1.16,17.51-2.56,26-10,8.77-7.68,12.09-18.06,13.87-23.6,1.99-6.22,2.68-11.63,2.93-15.33-.09-6.92-.18-17.12-.1-29.5.12-17.68.18-26.52.9-34.5,1.02-11.36,2.28-25.22,8-41.6,2.96-8.47,3.39-6.96,15.2-33.33,6.3-14.07,9.47-21.19,10.67-25.87,3.85-15.02,2.78-27.49,1.87-38.13-1.15-13.4-3.89-23.83-5.87-31.2-2.11-7.88-4.35-14.41-6.13-19.2,2.96,3.94,7.03,9.64,11.47,16.8,1.95,3.14,7.69,12.6,14.13,26.4,6.19,13.27,5.47,14.38,10.93,24.8,4.65,8.88,8.84,15.08,11.47,18.93,5.94,8.72,9.17,13.4,14.87,18.4,5.25,4.61,10.31,7.48,13.8,9.2-3.29-.05-8.73.32-14.6,3-9.15,4.18-13.74,11.42-16.2,15.4-3.94,6.39-5.45,12.22-7,19.8-4.48,21.92-5.2,37.6-5.2,37.6-.9,19.4.17,33.51,2,56.8,1.95,24.72,3.75,34.58,4.4,38,4.53,23.84,9.85,33.62,13.67,39.4,4.78,7.25,9.95,12.41,13.73,15.73-3.65-.28-9.13-.29-15.47,1.33-6.62,1.7-11.13,4.39-14,6.13-4.92,2.99-16,9.92-22.53,23.6-.84,1.76-3.84,8.3-4.9,17.4-.45,3.89-.43,7.21-.3,9.7-1.3-3.4-3.6-8.31-7.7-13.3-.72-.87-2.95-3.53-9.1-8.6-3.71-3.06-8.89-7.3-16.2-11.7-1.84-1.11-8.22-4.87-23.8-10.9-7.99-3.09-16.4-6.34-27.7-9.4-10.5-2.84-24.75-6.69-43.7-7.2-9.86-.26-24.78-.54-43.2,5-17.44,5.25-29.6,13.17-35,17-5.33,3.77-13.75,10.41-22.2,20.4-3.63,4.29-6.41,8.19-8.4,11.2.29-2.65.88-6.43,2.2-10.8,3.13-10.4,8.28-17.27,12.8-23.2,12.19-15.96,15.04-18.82,22-28,10.06-13.27,15.18-20.11,19.2-30.2,4.1-10.29,5.36-19.45,5.8-25.4.73-9.96.77-15.9,0-32.6-1.92-41.44-1.13-49.8-1.13-59.93"/>
      <path class="cls-1" d="M478.93,3.2c3.46,2.86,7.91,6.91,12.53,12.27,9.33,10.8,13.99,20.63,14.93,22.67,4.48,9.66,6.22,17.88,7.47,24,.99,4.85,1.54,8.99,1.87,12,.62,10.13,1.24,20.27,1.87,30.4.18,13.51.36,27.02.53,40.53l-.27,36c-.23,3.96-.13,10.04,1.87,17.07.61,2.15,2.63,8.71,7.73,16,4.42,6.31,7.42,7.84,13.87,14.13,6.85,6.68,4.67,6.13,17.07,20.53,9.07,10.54,12.77,13.77,20,23.47,2.55,3.42,4.55,6.31,5.87,8.27-.09-6.4-.18-12.8-.27-19.2v-108.27c.36-19.64.71-39.29,1.07-58.93.27-8.36.53-16.71.8-25.07.64-4.22,1.69-10.12,3.47-17.07,1.83-7.13,3.55-13.88,7.47-22.13,2.24-4.72,5.28-11.03,11.2-17.87C612.95,6.28,617.97,2.42,621.6,0c-3.73,1.14-8.66,2.73-14.4,4.8-1.61.58-7.41,2.68-15.73,6.13-12.35,5.12-12.38,5.79-17.87,7.73-9.45,3.35-17.3,4.16-21.07,4.53-16.32,1.6-28.88-1.57-32-2.4-4.75-1.27-11.7-4.31-25.6-10.4-6.67-2.92-12.18-5.43-16-7.2Z"/>
      <path class="cls-1" d="M483.96,302.27c-1.53-10.53-5.14-18.05-7.6-23.07-3.31-6.75-6.92-11.97-9.73-15.6-2.55,2.72-5.75,6.57-8.8,11.6-5.19,8.55-7.27,16.13-8,19.07-2.81,11.36-1.87,20.5-1.33,25.33,1.07,9.56,3.64,16.58,4.67,19.2,1.06,2.72,3.81,9.24,9.07,16.53,1.83,2.54,3.52,4.56,4.8,6,1.57-2.24,3.62-5.35,5.8-9.2,2.74-4.85,6.73-11.9,9.27-21.2,3.78-13.85,2.34-25.39,1.87-28.67ZM469.43,320.13c-.2,4.58-.44,9.49-1.3,16-.52,3.95-1.12,7.27-1.6,9.7-1.3-4.41-2.65-9.91-3.6-16.3-1.25-8.41-1.36-15.27-1.3-19.4.14-8.78,1.22-15.58,1.8-18.8.83-4.58,1.82-8.46,2.7-11.5.61,2.07,1.36,4.94,2,8.4.31,1.66,1.03,5.85,1.4,13.4.37,7.6.13,13.36-.1,18.5Z"/>
      <path class="cls-1" d="M371.47,312.47c23.13-3.4,34.47-36.93,77.27-51.8-14.6,26.53-25.64,57.81,6.87,106.4-48.09-6.93-55.2-48.4-84.13-54.6Z"/>
      <path class="cls-1" d="M561.07,312.47c-23.13-3.4-34.47-36.93-77.27-51.8,14.6,26.53,25.64,57.81-6.87,106.4,48.09-6.93,55.2-48.4,84.13-54.6Z"/>
    </g>
    <g>
      <path d="M413.07,195.47c-.09-11.56-.18-23.11-.27-34.67.18-17.78.36-35.56.53-53.33.62-11.38,1.24-22.76,1.87-34.13.61-7.05,2.1-15.47,5.33-24.53.71-2.01,3.97-10.92,10.67-21.33,5.47-8.5,10.78-14.18,12.8-16.27,3.49-3.62,6.75-6.45,9.33-8.53-2.32-.14-5.55-.13-9.33.53-3.08.54-6.85,1.58-12.27,4.27-6.39,3.17-7.34,4.81-17.33,11.47-7.08,4.72-10.7,7.11-14.4,8.27-7.59,2.38-14.17,1.46-16.8,1.07-10.13-1.53-13.76-5.99-24.53-11.47,0,0-12.19-6.2-27.2-9.07-9.48-1.81-22.79-4.36-37.87.8-14.43,4.94-23.03,14.38-29.6,21.6-3.86,4.24-11.28,12.54-16.53,25.6-5.66,14.09-6,26.73-6.13,34.13-.07,4.1.1,7.51.27,9.87,1.15-3.88,3.09-9.26,6.4-15.2,3.13-5.62,6.99-12.54,14.4-18.13,9.43-7.12,19.41-8.17,25.33-8.8,12.41-1.31,22.54,1.49,28.53,3.73-6.58,6.55-15.94,16.87-24.84,31.09-10.59,16.93-15.32,31.23-24.76,59.84,0,0-7.91,24.13-14.93,52.53-3.42,13.83-6.97,29.87-7.73,33.33-2.13,9.66-3.84,17.79-5.07,23.73-2.93-10.13-5.87-20.27-8.8-30.4l-15.2-59.73c-5.24-17.14-10.48-34.27-15.72-51.41-.72-2.35-1.33-4.73-1.84-7.13-1.32-6.31-2.65-12.61-3.97-18.92-.69-3.29-1.17-6.62-1.4-9.97-.62-9.15-.14-16.89.53-22.7.81-6.96,1.73-14.83,5.6-24.53,4.27-10.7,9.95-18.19,13.6-22.93,3.46-4.5,6.69-7.99,9.07-10.4-3.91,1.78-7.82,3.56-11.73,5.33-3.04,2.06-7.49,4.93-13.07,8-9.54,5.26-15.6,8.6-24.27,10.4-3.44.71-11.18,2.25-20.53.53-8.35-1.53-12.12-4.56-21.33-9.33-6.07-3.14-19.41-10.04-33.87-13.07-7.03-1.47-19.88-4.01-34.93.27-15.59,4.43-25.11,13.77-32,20.53-2.99,2.93-14.71,14.82-22.4,34.13C1.39,73.78.45,84.4.27,86.67c-.64,8.04-.02,14.86.77,19.82.56-3.73,4.14-25.23,23.9-38.75,2.23-1.53,18.04-12.01,38.8-9.2,6.59.89,17.91,2.43,26,12,5.91,6.99,7.23,14.9,7.6,18.8v36c.13,20.27.27,40.53.4,60.8-.27,17.47-.53,34.93-.8,52.4-.02,4.21-.54,10.81-3.33,18.27-3.08,8.21-7.44,13.51-10.53,17.2-1.11,1.32-6.33,7.46-15.07,13.47-6.04,4.16-11.68,6.82-16,8.53,3.46.9,8.12,2.39,13.33,4.93,2.96,1.44,6.97,3.43,11.33,6.93,1.46,1.17,7.16,5.89,12,14,5.57,9.33,7.12,18.32,7.6,23.73.09,12.09.18,24.18.27,36.27.09,17.78.18,35.56.27,53.33.09,17.33.18,34.67.27,52-.04,7.38-.09,14.76-.13,22.13.05,5.25-.41,12.68-2.8,21.2-1.61,5.73-4.87,14.76-11.6,24-4.22,5.8-5.28,5.45-20.6,20.2-9.7,9.34-14.64,14.12-19,19.8-6.96,9.06-10.82,16.88-12.2,19.8-4.7,9.94-6.7,18.22-7.4,21.4-.83,3.78-1.31,7.01-1.6,9.4,2.2-3.4,4.4-6.8,6.6-10.2,2.75-3.94,6.92-9.27,12.8-14.8,9.8-9.21,19.13-14.02,25.4-17.2,5.79-2.94,12.8-6.43,22.8-8.8,6.08-1.44,14.02-3.25,24.4-2.2,10.84,1.1,18.67,4.74,23.4,7,2.03.97,8.9,4.35,16.6,10.6,4.44,3.61,9.68,7.93,14.4,15.2,2.85,4.38,4.57,8.39,5.6,11.2.93-4.13,1.87-8.27,2.8-12.4,1.34-2.97,3.62-7.54,7.2-12.6,4.48-6.33,7.08-7.9,15-16.4,2.46-2.63.86-1.04,15.4-18,7.93-9.25,9.7-11.24,12.5-15.2,4.06-5.75,6.86-10.81,8.6-14.2-2.83,2.4-5.67,4.8-8.5,7.2-3.18,2.29-7.7,5.14-13.5,7.6-3.96,1.68-12.15,5.07-23,5.4-5.51.17-19.48.6-32.1-8.7-8.13-5.99-12.07-13.34-14.13-17.3-4.46-8.54-5.73-16.41-6.13-21.2.04-12.93.09-25.87.13-38.8.04-23.38.09-46.76.13-70.13l-.27-67.47c-.09-32.18-.18-64.36-.27-96.53.18-20.27.36-40.53.53-60.8.36-12.8.71-25.6,1.07-38.4.44-6.58.89-13.16,1.33-19.73,6.49,18.31,12.98,36.62,19.47,54.93,6.4,19.02,12.8,38.04,19.2,57.07,5.24,15.38,10.49,30.76,15.73,46.13,4.62,14.04,9.24,28.09,13.87,42.13,2.04,6.67,4.09,13.33,6.13,20,1.4,4.49,3.15,11.18,4,19.47,1.01,9.85,1.99,19.47-2.4,30.4-3.82,9.49-9.79,15.25-11.47,16.8-5.07,4.69-9.4,6.76-10.4,7.2-3.13,1.39-5.95,2.05-8,2.4,2.77.91,6.81,2.51,11.2,5.33,4.86,3.13,7.89,6.31,12,10.67,3.25,3.45,7.25,7.7,11.2,13.6,5.11,7.63,7.27,13.74,11.47,25.6,4.69,13.26,6.67,23.13,7.2,25.87,1.1,5.68,1.74,10.6,2.13,14.4.93-7.77,2.35-14.9,4-21.33,1.22-4.76,3.36-12.21,6.93-21.07,2.97-7.35,5.87-14.53,11.47-22.93,5.47-8.21,10.75-13.46,13.87-16.53,6.9-6.8,11.21-9.28,13.33-10.4,3.38-1.78,6.39-2.83,8.53-3.47-2.33-.13-5.87-.62-9.73-2.4-4.54-2.09-7.23-4.91-9.87-7.73-6.49-6.95-9.43-13.93-10-15.33-3.1-7.58-3.55-14.32-3.6-21.6-.12-18.71,2.5-33.84,4-42,2.59-14.11,4.03-19.34,8.27-38.8,5.64-25.92,5.02-25.48,8.93-43.07,1.25-5.6,2.45-10.75,3.64-15.66.2-.84.52-2.16.94-3.87,4.38-17.79,9.55-35.94,9.55-35.94,9.55-33.53,14.41-50.5,19.03-59.98,5.41-11.11,11.78-21.35,23.01-29.42,4.3-3.09,8.26-5.1,11.03-6.34.82,10.62,1.41,22.07,1.74,34.28.22,7.92.07,8.39.12,38.52.05,28.21.08,36.39-.27,49.73-.21,8.05-.52,16.29-.53,16.67-.31,8.15-.57,13.3-1.33,29.6-.23,4.8-.57,12.23-.8,17.13-1.36,1.48-3.34,3.44-6,5.4-5.7,4.21-10.99,5.88-14,6.8-10.75,3.29-20.7,2.45-26.2,1.6,2.41,1.85,5.75,4.18,10,6.4,3.12,1.63,8.06,4.22,14.6,5.6,3.38.71,13.84,2.93,24.4-1.6,3.66-1.57,6.11-3.42,13-9.8,12.93-11.97,15.81-16.11,23.8-23.6,7.17-6.72,14.42-13.51,25.87-19.67,10.55-5.67,20.02-8.3,24.8-9.6,6.17-1.68,11.55-3.14,18.93-3.6,4.39-.28,17.33-.69,32.27,5.07,6.14,2.37,11.25,5.58,21.47,12,7.46,4.69,12.22,7.68,18.13,12.67,5.23,4.41,9.4,8.72,17.6,17.2,4.39,4.53,7.09,7.76,12.27,11.47,5.66,4.05,9.53,5.39,11.47,5.97,1.04.31,4.48,1.27,11,1.3,3.98.02,13.79-.28,25.8-4.7,3.34-1.23,7.97-3.19,13.2-6.3-3.13.83-7.47,1.66-12.67,1.73-1.72.02-10.28-.18-19.47-3.47-8.94-3.2-13.61-8.39-23.6-18.53-2.64-2.68-15.94-16.19-26-25.47-14.82-13.66-23.66-21.67-37.87-27.67-11.38-4.81-21.04-6.15-26-6.8-6.21-.82-20.54-2.15-38.2,1.8-12.66,2.83-22.83,7.43-30.24,11.59.25-7.23.5-14.46.74-21.69-.06-5.66-.11-11.31-.17-16.97Z"/>
      <path d="M355.73,352.53c10.37,15.75,20.19,26.8,27.47,34.13,2.72,2.74,9.43,9.36,17.07,19.2,5.19,6.69,9.31,12.95,12,21.33,1.43,4.46,2.1,8.81,2.13,9.07.51,3.54.6,6.63.53,9.07.09,7.78.18,15.56.27,23.33-.09,8.44-.18,16.89-.27,25.33-.41,11.45-.19,20.81.13,27.6.29,6.16.64,9.63,1.2,13.2.86,5.49,1.8,11.29,4.8,18.27,3.1,7.22,6.82,12.02,7.87,13.33,4.4,5.53,8.82,8.9,12.53,11.73,3.5,2.67,6.63,4.64,8.93,6-2.19.82-5.24,2.17-8.53,4.4-4.74,3.21-7.52,6.57-10.53,10.27-5.73,7.04-8.87,13.38-9.87,15.47-3.19,6.69-4.91,12.86-5.87,17.73-.59-2.64-1.73-6.55-4.13-10.8-2.28-4.02-4.79-6.6-9.73-11.6-5.72-5.78-8.58-8.68-12.67-10.8-4.17-2.17-7.62-2.81-12.53-3.73-4.41-.83-10.84-1.98-18.93-1.07-7.57.86-12.81,3.1-20.53,6.4-7.35,3.14-12.64,6.34-15.07,7.87-6.4,4.03-10.79,7.77-12.13,8.93-5.21,4.51-8.63,8.46-11.2,11.47-2.84,3.31-6,7.34-9.2,12.13.39-2.76,1.11-6.82,2.53-11.6.74-2.48,3.84-12.49,13.2-26.4,3.92-5.83,7.28-9.79,13.83-17.47,8.71-10.2,11.52-11.68,19.1-21.1,4.99-6.2,7.84-9.73,10.7-15.2,4.54-8.67,6.27-16.73,7-22.2.23-17.57.47-35.13.7-52.7-.18-15.82-.36-31.64-.53-47.47v-29.07c-.09-15.02-.18-30.04-.27-45.07Z"/>
      <path d="M516.03,390.51c-6.93,4.6-10.05,6.97-26.3,10.83-17.74,4.21-32.52,1.54-39.2.27-12.71-2.43-21.74-6.7-26.67-9.07-16.3-7.84-26.98-17.58-35.07-25.07-9.79-9.06-9.93-11.16-24.4-24.8-3.9-3.68-9.87-9.16-18-15.47-3.82-2.96-7.13-5.35-9.6-7.07,2.32.89,7.97,2.69,15,1.27,5.84-1.18,9.82-4.03,11.73-5.6,3.48,2.93,8.83,7.59,15,13.73,9.57,9.52,11.5,13.02,18.8,19.6,8.18,7.37,15.45,11.72,21,15,10.15,6,18.46,10.91,30.6,13.6,2.94.65,16.41,3.46,33.6.2,16.25-3.08,27.26-9.96,35-14.8,4.28-2.67,14.72-9.29,25-20.2,3.27-3.47,5.91-6.56,12.93-13.87,5.21-5.42,9.6-9.76,12.53-12.6.79.78,2.62,1.56,4.33,2.46,2.14,1.13,6.18,2.42,10.1,2.5,4.41.09,7-.58,10.9-1.6,9.55-2.5,9-2.65,12.5-4.1-3.65,4-4.69,5.56-10.1,9.34-.35.24-1.81,1.29-2.15,1.52-6.35,4.3-9.14,10.58-9.44,18.24,0,.06,0,.12,0,.17-.23,6.04,0,10.29,0,14.2-.03,12.02-.13,23.72-.13,24.13-.08,9.69.02,27.46.8,62.8-.18,24.27-.36,48.53-.53,72.8-.29,6-1.56,10.78-2.67,14-1.39,4.04-3.43,9.79-8.67,14.93-1.15,1.13-2.19,1.97-2.93,2.53,1.88.2,4.65.49,8,.8,19.68,1.82,29.51,2.73,38.13,1.47,7.91-1.16,17.51-2.56,26-10,8.77-7.68,12.09-18.06,13.87-23.6,1.99-6.22,2.68-11.63,2.93-15.33-.09-6.92-.18-17.12-.1-29.5.12-17.68.18-26.52.9-34.5,1.02-11.36,2.28-25.22,8-41.6,2.96-8.47,3.39-6.96,15.2-33.33,6.3-14.07,9.47-21.19,10.67-25.87,3.85-15.02,2.78-27.49,1.87-38.13-1.15-13.4-3.89-23.83-5.87-31.2-2.11-7.88-4.35-14.41-6.13-19.2,2.96,3.94,7.03,9.64,11.47,16.8,1.95,3.14,7.69,12.6,14.13,26.4,6.19,13.27,5.47,14.38,10.93,24.8,4.65,8.88,8.84,15.08,11.47,18.93,5.94,8.72,9.17,13.4,14.87,18.4,5.25,4.61,10.31,7.48,13.8,9.2-3.29-.05-8.73.32-14.6,3-9.15,4.18-13.74,11.42-16.2,15.4-3.94,6.39-5.45,12.22-7,19.8-4.48,21.92-5.2,37.6-5.2,37.6-.9,19.4.17,33.51,2,56.8,1.95,24.72,3.75,34.58,4.4,38,4.53,23.84,9.85,33.62,13.67,39.4,4.78,7.25,9.95,12.41,13.73,15.73-3.65-.28-9.13-.29-15.47,1.33-6.62,1.7-11.13,4.39-14,6.13-4.92,2.99-16,9.92-22.53,23.6-.84,1.76-3.84,8.3-4.9,17.4-.45,3.89-.43,7.21-.3,9.7-1.3-3.4-3.6-8.31-7.7-13.3-.72-.87-2.95-3.53-9.1-8.6-3.71-3.06-8.89-7.3-16.2-11.7-1.84-1.11-8.22-4.87-23.8-10.9-7.99-3.09-16.4-6.34-27.7-9.4-10.5-2.84-24.75-6.69-43.7-7.2-9.86-.26-24.78-.54-43.2,5-17.44,5.25-29.6,13.17-35,17-5.33,3.77-13.75,10.41-22.2,20.4-3.63,4.29-6.41,8.19-8.4,11.2.29-2.65.88-6.43,2.2-10.8,3.13-10.4,8.28-17.27,12.8-23.2,12.19-15.96,15.04-18.82,22-28,10.06-13.27,15.18-20.11,19.2-30.2,4.1-10.29,5.36-19.45,5.8-25.4.73-9.96.77-15.9,0-32.6-1.92-41.44-1.13-49.8-1.13-59.93"/>
      <path d="M478.93,3.2c3.46,2.86,7.91,6.91,12.53,12.27,9.33,10.8,13.99,20.63,14.93,22.67,4.48,9.66,6.22,17.88,7.47,24,.99,4.85,1.54,8.99,1.87,12,.62,10.13,1.24,20.27,1.87,30.4.18,13.51.36,27.02.53,40.53l-.27,36c-.23,3.96-.13,10.04,1.87,17.07.61,2.15,2.63,8.71,7.73,16,4.42,6.31,7.42,7.84,13.87,14.13,6.85,6.68,4.67,6.13,17.07,20.53,9.07,10.54,12.77,13.77,20,23.47,2.55,3.42,4.55,6.31,5.87,8.27-.09-6.4-.18-12.8-.27-19.2v-108.27c.36-19.64.71-39.29,1.07-58.93.27-8.36.53-16.71.8-25.07.64-4.22,1.69-10.12,3.47-17.07,1.83-7.13,3.55-13.88,7.47-22.13,2.24-4.72,5.28-11.03,11.2-17.87,4.95-5.72,9.97-9.58,13.6-12-3.73,1.14-8.66,2.73-14.4,4.8-1.61.58-7.41,2.68-15.73,6.13-12.35,5.12-12.38,5.79-17.87,7.73-9.45,3.35-17.3,4.16-21.07,4.53-16.32,1.6-28.88-1.57-32-2.4-4.75-1.27-11.7-4.31-25.6-10.4-6.67-2.92-12.18-5.43-16-7.2Z"/>
      <path d="M483.96,302.27c-1.53-10.53-5.14-18.05-7.6-23.07-3.31-6.75-6.92-11.97-9.73-15.6-2.55,2.72-5.75,6.57-8.8,11.6-5.19,8.55-7.27,16.13-8,19.07-2.81,11.36-1.87,20.5-1.33,25.33,1.07,9.56,3.64,16.58,4.67,19.2,1.06,2.72,3.81,9.24,9.07,16.53,1.83,2.54,3.52,4.56,4.8,6,1.57-2.24,3.62-5.35,5.8-9.2,2.74-4.85,6.73-11.9,9.27-21.2,3.78-13.85,2.34-25.39,1.87-28.67ZM469.43,320.13c-.2,4.58-.44,9.49-1.3,16-.52,3.95-1.12,7.27-1.6,9.7-1.3-4.41-2.65-9.91-3.6-16.3-1.25-8.41-1.36-15.27-1.3-19.4.14-8.78,1.22-15.58,1.8-18.8.83-4.58,1.82-8.46,2.7-11.5.61,2.07,1.36,4.94,2,8.4.31,1.66,1.03,5.85,1.4,13.4.37,7.6.13,13.36-.1,18.5Z"/>
      <path d="M371.47,312.47c23.13-3.4,34.47-36.93,77.27-51.8-14.6,26.53-25.64,57.81,6.87,106.4-48.09-6.93-55.2-48.4-84.13-54.6Z"/>
      <path d="M561.07,312.47c-23.13-3.4-34.47-36.93-77.27-51.8,14.6,26.53,25.64,57.81-6.87,106.4,48.09-6.93,55.2-48.4,84.13-54.6Z"/>
    </g>
  </g>
</svg>